%FSLAX33Y33*%
%MOMM*%
%ADD10C,0.3302*%
%ADD11C,2.5*%
%ADD12C,1.2*%
%ADD13C,1.35*%
D10*
%LNhole_traces*%
G01*
X23000Y1500D03*
X16000Y99000D03*
X9500Y60345D03*
X17750Y43750D03*
X16650Y13885D03*
X18000Y1500D03*
X24000Y99000D03*
X14950Y54650D03*
X11950Y41750D03*
X11950Y58750D03*
X11950Y53750D03*
X11950Y92750D03*
X14950Y30150D03*
X11950Y19250D03*
X13550Y51920D03*
X23050Y48750D03*
X11950Y24250D03*
X17750Y24250D03*
X19000Y99000D03*
X11950Y64250D03*
X17750Y92750D03*
X23050Y73250D03*
X21000Y99000D03*
X12000Y99000D03*
X10000Y99000D03*
X11000Y99000D03*
X11950Y73250D03*
X17750Y73250D03*
X11950Y75250D03*
X15000Y1500D03*
X16000Y1500D03*
X14950Y5650D03*
X17000Y1500D03*
X16650Y51920D03*
X23050Y19250D03*
X19000Y1500D03*
X16650Y87385D03*
X16650Y62885D03*
X18000Y99000D03*
X11950Y48750D03*
X11950Y68250D03*
X10500Y48900D03*
X13000Y1500D03*
X23000Y99000D03*
X11950Y34240D03*
X11950Y26250D03*
X16650Y38385D03*
X11600Y84845D03*
X23050Y92750D03*
X11600Y11345D03*
X24000Y1500D03*
X9000Y99000D03*
X13000Y99000D03*
X17750Y68250D03*
X22000Y1500D03*
X11950Y56750D03*
X23050Y68250D03*
X20000Y99000D03*
X22000Y99000D03*
X21000Y1500D03*
X11950Y28240D03*
X23050Y43750D03*
X9000Y1500D03*
X14950Y79150D03*
X23050Y24250D03*
X15000Y99000D03*
X14000Y99000D03*
X9500Y35845D03*
X11950Y32240D03*
X11950Y77250D03*
X17750Y48750D03*
X20000Y1500D03*
X11000Y1500D03*
X11950Y30240D03*
X17750Y19250D03*
X10000Y1500D03*
X11950Y66250D03*
X11950Y43750D03*
X10500Y54650D03*
X8450Y54650D03*
X17000Y99000D03*
X12000Y1500D03*
X11950Y51750D03*
X14000Y1500D03*
%LNhole component 0ad7e8ae81e927d5*%
D11*
X23050Y70750D03*
X17750Y70750D03*
X11950Y70750D03*
%LNhole component 63f92f49c0d789ba*%
D12*
X21200Y77920D03*
X21200Y83000D03*
X21200Y88000D03*
%LNhole component 342f6c2ee5101998*%
D13*
X3730Y58890D03*
X3730Y56350D03*
X3730Y53810D03*
X3730Y51270D03*
X3730Y48730D03*
X3730Y46190D03*
X3730Y43650D03*
X3730Y41110D03*
X6270Y58890D03*
X6270Y56350D03*
X6270Y53810D03*
X6270Y51270D03*
X6270Y48730D03*
X6270Y46190D03*
X6270Y43650D03*
X6270Y41110D03*
%LNhole component f7b1e4ff4598025d*%
D12*
X21200Y53420D03*
X21200Y58500D03*
X21200Y63500D03*
%LNhole component 9d6c2c66087e3285*%
D11*
X23050Y95250D03*
X17750Y95250D03*
X11950Y95250D03*
%LNhole component be58aacc16939a2a*%
X23050Y46250D03*
X17750Y46250D03*
X11950Y46250D03*
%LNhole component 06eb1e308c3147ac*%
D12*
X21200Y28920D03*
X21200Y34000D03*
X21200Y39000D03*
%LNhole component 429111ad9cdb4e16*%
D11*
X23050Y21750D03*
X17750Y21750D03*
X11950Y21750D03*
%LNhole component a69faa7c95684c53*%
D12*
X21200Y4420D03*
X21200Y9500D03*
X21200Y14500D03*
M02*