%FSLAX33Y33*%
%MOMM*%
%AMRR-H2200001-W599999-R299999-RO1.500*
21,1,0.000001,2.200001,0.,0.,90*
21,1,0.599999,1.600003,0.,0.,90*
1,1,0.599998,-0.8000015,-0.0000005*
1,1,0.599998,-0.8000015,0.0000005*
1,1,0.599998,0.8000015,0.0000005*
1,1,0.599998,0.8000015,-0.0000005*%
%AMRect-W670710-H1320710-RO1.000*
21,1,0.67071,1.32071,0.,0.,180*%
%ADD10RR-H2200001-W599999-R299999-RO1.500*%
%ADD11Rect-W670710-H1320710-RO1.000*%
%ADD12R,0.67071X1.32071*%
D10*
%LNtop paste_traces*%
%LNtop paste component 54b877865c8c6b60*%
G01*
X13600Y64155D03*
X13600Y62885D03*
X13600Y61615D03*
X13600Y60345D03*
X18400Y64155D03*
X18400Y62885D03*
X18400Y61615D03*
X18400Y60345D03*
%LNtop paste component ec987d63ba6e90ee*%
D11*
X17050Y34000D03*
X14950Y34000D03*
%LNtop paste component bd244cdf4675282d*%
D10*
X13600Y88655D03*
X13600Y87385D03*
X13600Y86115D03*
X13600Y84845D03*
X18400Y88655D03*
X18400Y87385D03*
X18400Y86115D03*
X18400Y84845D03*
%LNtop paste component 4844c5e462a7c31c*%
D12*
X14950Y80400D03*
X17050Y80400D03*
%LNtop paste component ad66eb5f7ad9457e*%
X14950Y6900D03*
X17050Y6900D03*
%LNtop paste component 1e8cbf461f4e0159*%
X14950Y55900D03*
X17050Y55900D03*
%LNtop paste component f1d5df593f81f1a4*%
D11*
X17050Y41500D03*
X14950Y41500D03*
%LNtop paste component fc347e21ca2c40c2*%
X17050Y9500D03*
X14950Y9500D03*
%LNtop paste component a7ff6b6d77965276*%
X17050Y83000D03*
X14950Y83000D03*
%LNtop paste component be414f40d5ea6e4f*%
X17050Y58500D03*
X14950Y58500D03*
%LNtop paste component b15d75c6ec27c82e*%
X17050Y17000D03*
X14950Y17000D03*
%LNtop paste component 0599ffb3c0a8959f*%
D10*
X13600Y15155D03*
X13600Y13885D03*
X13600Y12615D03*
X13600Y11345D03*
X18400Y15155D03*
X18400Y13885D03*
X18400Y12615D03*
X18400Y11345D03*
%LNtop paste component 800e5b6bc9c18d00*%
D11*
X17050Y66000D03*
X14950Y66000D03*
%LNtop paste component 92b6b987cdba25fc*%
X17050Y90500D03*
X14950Y90500D03*
%LNtop paste component 1d86972c5e83ae7f*%
D10*
X13600Y39655D03*
X13600Y38385D03*
X13600Y37115D03*
X13600Y35845D03*
X18400Y39655D03*
X18400Y38385D03*
X18400Y37115D03*
X18400Y35845D03*
%LNtop paste component 889bc73f0323b172*%
D12*
X14950Y31400D03*
X17050Y31400D03*
M02*