%FSLAX33Y33*%
%MOMM*%
%AMRR-H2403201-W803199-R299999-RO1.500*
21,1,0.203201,2.403201,0.,0.,90*
21,1,0.803199,1.803203,0.,0.,90*
1,1,0.599998,-0.9016015,-0.1016005*
1,1,0.599998,-0.9016015,0.1016005*
1,1,0.599998,0.9016015,0.1016005*
1,1,0.599998,0.9016015,-0.1016005*%
%AMRect-W670710-H1320710-RO1.000*
21,1,0.67071,1.32071,0.,0.,180*%
%AMRect-W3100000-H3100000-RO1.500*
21,1,3.1,3.1,0.,0.,90*%
%ADD10C,0.68834*%
%ADD11R,0.67071X1.32071*%
%ADD12RR-H2403201-W803199-R299999-RO1.500*%
%ADD13Rect-W670710-H1320710-RO1.000*%
%ADD14C,3.1*%
%ADD15Rect-W3100000-H3100000-RO1.500*%
%ADD16C,1.85*%
%ADD17R,1.85X1.85*%
%ADD18R,2.049999X2.049999*%
%ADD19C,2.049999*%
D10*
%LNtop solder mask_traces*%
G01*
X23000Y1500D03*
X16000Y99000D03*
X9500Y60345D03*
X17750Y43750D03*
X16650Y13885D03*
X18000Y1500D03*
X24000Y99000D03*
X14950Y54650D03*
X11950Y41750D03*
X11950Y58750D03*
X11950Y53750D03*
X11950Y92750D03*
X14950Y30150D03*
X11950Y19250D03*
X13550Y51920D03*
X23050Y48750D03*
X11950Y24250D03*
X17750Y24250D03*
X19000Y99000D03*
X11950Y64250D03*
X17750Y92750D03*
X23050Y73250D03*
X21000Y99000D03*
X12000Y99000D03*
X10000Y99000D03*
X11000Y99000D03*
X11950Y73250D03*
X17750Y73250D03*
X11950Y75250D03*
X15000Y1500D03*
X16000Y1500D03*
X14950Y5650D03*
X17000Y1500D03*
X16650Y51920D03*
X23050Y19250D03*
X19000Y1500D03*
X16650Y87385D03*
X16650Y62885D03*
X18000Y99000D03*
X11950Y48750D03*
X11950Y68250D03*
X10500Y48900D03*
X13000Y1500D03*
X23000Y99000D03*
X11950Y34240D03*
X11950Y26250D03*
X16650Y38385D03*
X11600Y84845D03*
X23050Y92750D03*
X11600Y11345D03*
X24000Y1500D03*
X9000Y99000D03*
X13000Y99000D03*
X17750Y68250D03*
X22000Y1500D03*
X11950Y56750D03*
X23050Y68250D03*
X20000Y99000D03*
X22000Y99000D03*
X21000Y1500D03*
X11950Y28240D03*
X23050Y43750D03*
X9000Y1500D03*
X14950Y79150D03*
X23050Y24250D03*
X15000Y99000D03*
X14000Y99000D03*
X9500Y35845D03*
X11950Y32240D03*
X11950Y77250D03*
X17750Y48750D03*
X20000Y1500D03*
X11000Y1500D03*
X11950Y30240D03*
X17750Y19250D03*
X10000Y1500D03*
X11950Y66250D03*
X11950Y43750D03*
X10500Y54650D03*
X8450Y54650D03*
X17000Y99000D03*
X12000Y1500D03*
X11950Y51750D03*
X14000Y1500D03*
%LNtop solder mask component 6f6f78eed2c1234c*%
D11*
X14950Y77900D03*
X17050Y77900D03*
%LNtop solder mask component 54b877865c8c6b60*%
D12*
X13702Y64257D03*
X13702Y62987D03*
X13702Y61717D03*
X13702Y60447D03*
X18502Y64257D03*
X18502Y62987D03*
X18502Y61717D03*
X18502Y60447D03*
%LNtop solder mask component ec987d63ba6e90ee*%
D13*
X17050Y34000D03*
X14950Y34000D03*
%LNtop solder mask component bd244cdf4675282d*%
D12*
X13702Y88757D03*
X13702Y87487D03*
X13702Y86217D03*
X13702Y84947D03*
X18502Y88757D03*
X18502Y87487D03*
X18502Y86217D03*
X18502Y84947D03*
%LNtop solder mask component 0ad7e8ae81e927d5*%
D14*
X17750Y70750D03*
X11950Y70750D03*
D15*
X23050Y70750D03*
%LNtop solder mask component 6584c5d2434b7798*%
D11*
X14950Y53400D03*
X17050Y53400D03*
%LNtop solder mask component 4844c5e462a7c31c*%
X14950Y80400D03*
X17050Y80400D03*
%LNtop solder mask component dbf8c3d461c4a214*%
X14950Y4400D03*
X17050Y4400D03*
%LNtop solder mask component 63f92f49c0d789ba*%
D16*
X21200Y77920D03*
X21200Y83000D03*
D17*
X21200Y88000D03*
%LNtop solder mask component ad66eb5f7ad9457e*%
D11*
X14950Y6900D03*
X17050Y6900D03*
%LNtop solder mask component f1d5df593f81f1a4*%
D13*
X17050Y41500D03*
X14950Y41500D03*
%LNtop solder mask component 1e8cbf461f4e0159*%
D11*
X14950Y55900D03*
X17050Y55900D03*
%LNtop solder mask component 342f6c2ee5101998*%
D18*
X3730Y58890D03*
D19*
X3730Y56350D03*
X3730Y53810D03*
X3730Y51270D03*
X3730Y48730D03*
X3730Y46190D03*
X3730Y43650D03*
X3730Y41110D03*
X6270Y58890D03*
X6270Y56350D03*
X6270Y53810D03*
X6270Y51270D03*
X6270Y48730D03*
X6270Y46190D03*
X6270Y43650D03*
X6270Y41110D03*
%LNtop solder mask component bc9c7dcd28bf355d*%
D11*
X20450Y90500D03*
X22550Y90500D03*
%LNtop solder mask component fc347e21ca2c40c2*%
D13*
X17050Y9500D03*
X14950Y9500D03*
%LNtop solder mask component a7ff6b6d77965276*%
X17050Y83000D03*
X14950Y83000D03*
%LNtop solder mask component f7b1e4ff4598025d*%
D16*
X21200Y53420D03*
X21200Y58500D03*
D17*
X21200Y63500D03*
%LNtop solder mask component 9d6c2c66087e3285*%
D14*
X17750Y95250D03*
X11950Y95250D03*
D15*
X23050Y95250D03*
%LNtop solder mask component be414f40d5ea6e4f*%
D13*
X17050Y58500D03*
X14950Y58500D03*
%LNtop solder mask component be58aacc16939a2a*%
D14*
X17750Y46250D03*
X11950Y46250D03*
D15*
X23050Y46250D03*
%LNtop solder mask component f544585fc4f1698d*%
D11*
X14950Y28900D03*
X17050Y28900D03*
%LNtop solder mask component 06eb1e308c3147ac*%
D16*
X21200Y28920D03*
X21200Y34000D03*
D17*
X21200Y39000D03*
%LNtop solder mask component 429111ad9cdb4e16*%
D14*
X17750Y21750D03*
X11950Y21750D03*
D15*
X23050Y21750D03*
%LNtop solder mask component b15d75c6ec27c82e*%
D13*
X17050Y17000D03*
X14950Y17000D03*
%LNtop solder mask component 0599ffb3c0a8959f*%
D12*
X13702Y15257D03*
X13702Y13987D03*
X13702Y12717D03*
X13702Y11447D03*
X18502Y15257D03*
X18502Y13987D03*
X18502Y12717D03*
X18502Y11447D03*
%LNtop solder mask component 800e5b6bc9c18d00*%
D13*
X17050Y66000D03*
X14950Y66000D03*
%LNtop solder mask component 92b6b987cdba25fc*%
X17050Y90500D03*
X14950Y90500D03*
%LNtop solder mask component 3a5ada01124e2b37*%
D11*
X20450Y12000D03*
X22550Y12000D03*
%LNtop solder mask component a69faa7c95684c53*%
D16*
X21200Y4420D03*
X21200Y9500D03*
D17*
X21200Y14500D03*
%LNtop solder mask component 1d86972c5e83ae7f*%
D12*
X13702Y39757D03*
X13702Y38487D03*
X13702Y37217D03*
X13702Y35947D03*
X18502Y39757D03*
X18502Y38487D03*
X18502Y37217D03*
X18502Y35947D03*
%LNtop solder mask component 889bc73f0323b172*%
D11*
X14950Y31400D03*
X17050Y31400D03*
%LNtop solder mask component dde2191bb760bfec*%
X20450Y36500D03*
X22550Y36500D03*
%LNtop solder mask component 51b9a8308e64193c*%
X20450Y61000D03*
X22550Y61000D03*
M02*