%FSLAX33Y33*%
%MOMM*%
%AMRR-H508000-W10160000-R152400-RO0.000*
21,1,9.8552,0.508,0.,0.,360*
21,1,10.16,0.2032,0.,0.,360*
1,1,0.3048,-4.9276,0.1016*
1,1,0.3048,4.9276,0.1016*
1,1,0.3048,4.9276,-0.1016*
1,1,0.3048,-4.9276,-0.1016*%
%ADD10C,0.2*%
%ADD11C,0.500001X0.000003*%
%ADD12C,0.15*%
%ADD13C,0.500001X0.000003*%
%ADD14C,0.1*%
%ADD15R,1.X4.5*%
%ADD16RR-H508000-W10160000-R152400-RO0.000*%
%ADD17C,0.500001X0.000003*%
%ADD18C,0.500001X0.000003*%
D10*
%LNtop silkscreen_traces*%
%LNtop silkscreen component 54b877865c8c6b60*%
G01*
X15100Y59750D02*
X15100Y64750D01*
X16900Y59750D02*
X16900Y64750D01*
X15100Y64750D02*
X16900Y64750D01*
X15100Y59750D02*
X16900Y59750D01*
D11*
X13600Y65005D03*
%LNtop silkscreen component ec987d63ba6e90ee*%
D12*
X16415Y34625D02*
X15585Y34625D01*
X16415Y33375D02*
X15585Y33375D01*
G36*
X13398Y33876D02*
X13493Y33852D01*
X13475Y33797D01*
X13451Y33749D01*
X13422Y33708D01*
X13386Y33674D01*
X13345Y33647D01*
X13300Y33628D01*
X13250Y33617D01*
X13197Y33613D01*
X13141Y33616D01*
X13092Y33625D01*
X13047Y33639D01*
X13008Y33660D01*
X12974Y33686D01*
X12945Y33718D01*
X12919Y33754D01*
X12898Y33796D01*
X12881Y33842D01*
X12870Y33889D01*
X12863Y33938D01*
X12860Y33988D01*
X12863Y34042D01*
X12871Y34093D01*
X12884Y34140D01*
X12903Y34183D01*
X12927Y34222D01*
X12955Y34257D01*
X12987Y34286D01*
X13024Y34310D01*
X13065Y34329D01*
X13107Y34342D01*
X13152Y34350D01*
X13198Y34353D01*
X13250Y34350D01*
X13297Y34339D01*
X13340Y34322D01*
X13379Y34298D01*
X13413Y34268D01*
X13441Y34233D01*
X13464Y34191D01*
X13481Y34145D01*
X13388Y34123D01*
X13374Y34159D01*
X13357Y34190D01*
X13338Y34216D01*
X13315Y34236D01*
X13290Y34252D01*
X13262Y34263D01*
X13230Y34270D01*
X13196Y34272D01*
X13157Y34270D01*
X13120Y34262D01*
X13088Y34250D01*
X13058Y34232D01*
X13033Y34211D01*
X13011Y34186D01*
X12994Y34158D01*
X12980Y34126D01*
X12970Y34093D01*
X12963Y34059D01*
X12959Y34024D01*
X12958Y33989D01*
X12959Y33945D01*
X12964Y33903D01*
X12973Y33865D01*
X12984Y33829D01*
X13000Y33797D01*
X13018Y33770D01*
X13041Y33747D01*
X13067Y33728D01*
X13096Y33713D01*
X13126Y33702D01*
X13157Y33696D01*
X13189Y33694D01*
X13227Y33697D01*
X13262Y33705D01*
X13294Y33720D01*
X13324Y33740D01*
X13349Y33765D01*
X13370Y33797D01*
X13386Y33834D01*
X13398Y33876D01*
X13398Y33876D01*
X14030Y34166D02*
X13943Y34159D01*
X13936Y34183D01*
X13929Y34203D01*
X13920Y34220D01*
X13909Y34234D01*
X13891Y34250D01*
X13870Y34262D01*
X13847Y34269D01*
X13822Y34271D01*
X13801Y34270D01*
X13782Y34266D01*
X13764Y34258D01*
X13748Y34248D01*
X13728Y34231D01*
X13711Y34211D01*
X13695Y34187D01*
X13682Y34160D01*
X13672Y34128D01*
X13664Y34089D01*
X13659Y34045D01*
X13658Y33994D01*
X13704Y33958D01*
X13695Y33946D01*
X13682Y33920D01*
X13674Y33890D01*
X13671Y33857D01*
X13671Y33857D01*
X13672Y33834D01*
X13676Y33812D01*
X13682Y33791D01*
X13690Y33770D01*
X13701Y33751D01*
X13714Y33733D01*
X13728Y33719D01*
X13744Y33707D01*
X13762Y33697D01*
X13780Y33690D01*
X13798Y33686D01*
X13817Y33685D01*
X13844Y33688D01*
X13869Y33696D01*
X13892Y33710D01*
X13913Y33730D01*
X13930Y33754D01*
X13943Y33783D01*
X13950Y33815D01*
X13953Y33852D01*
X13950Y33887D01*
X13943Y33918D01*
X13931Y33946D01*
X13913Y33969D01*
X13892Y33988D01*
X13869Y34001D01*
X13843Y34009D01*
X13814Y34012D01*
X13785Y34009D01*
X13759Y34001D01*
X13735Y33988D01*
X13713Y33969D01*
X13704Y33958D01*
X13658Y33994D01*
X13674Y34017D01*
X13693Y34036D01*
X13713Y34053D01*
X13735Y34066D01*
X13758Y34076D01*
X13782Y34083D01*
X13806Y34088D01*
X13831Y34089D01*
X13874Y34085D01*
X13913Y34073D01*
X13948Y34053D01*
X13981Y34025D01*
X14008Y33990D01*
X14027Y33950D01*
X14039Y33906D01*
X14043Y33857D01*
X14041Y33824D01*
X14036Y33792D01*
X14026Y33762D01*
X14014Y33732D01*
X13998Y33705D01*
X13979Y33681D01*
X13958Y33661D01*
X13934Y33644D01*
X13908Y33630D01*
X13880Y33620D01*
X13850Y33615D01*
X13819Y33613D01*
X13766Y33618D01*
X13719Y33633D01*
X13677Y33658D01*
X13639Y33694D01*
X13609Y33741D01*
X13587Y33801D01*
X13574Y33874D01*
X13570Y33960D01*
X13575Y34057D01*
X13589Y34139D01*
X13613Y34208D01*
X13647Y34262D01*
X13683Y34298D01*
X13725Y34323D01*
X13773Y34339D01*
X13827Y34344D01*
X13867Y34341D01*
X13904Y34332D01*
X13937Y34317D01*
X13965Y34296D01*
X13990Y34270D01*
X14009Y34240D01*
X14022Y34205D01*
X14030Y34166D01*
X14030Y34166D01*
G37*
%LNtop silkscreen component bd244cdf4675282d*%
D10*
X15100Y84250D02*
X15100Y89250D01*
X16900Y84250D02*
X16900Y89250D01*
X15100Y89250D02*
X16900Y89250D01*
X15100Y84250D02*
X16900Y84250D01*
D13*
X13600Y89505D03*
%LNtop silkscreen component 4844c5e462a7c31c*%
D12*
X15585Y79775D02*
X16415Y79775D01*
X15585Y81025D02*
X16415Y81025D01*
G36*
X13398Y80351D02*
X13493Y80327D01*
X13475Y80272D01*
X13451Y80224D01*
X13422Y80183D01*
X13386Y80149D01*
X13345Y80122D01*
X13300Y80103D01*
X13250Y80092D01*
X13197Y80088D01*
X13141Y80091D01*
X13092Y80100D01*
X13047Y80114D01*
X13008Y80135D01*
X12974Y80161D01*
X12945Y80193D01*
X12919Y80229D01*
X12898Y80271D01*
X12881Y80317D01*
X12870Y80364D01*
X12863Y80413D01*
X12860Y80463D01*
X12863Y80517D01*
X12871Y80568D01*
X12884Y80615D01*
X12903Y80658D01*
X12927Y80697D01*
X12955Y80732D01*
X12987Y80761D01*
X13024Y80785D01*
X13065Y80804D01*
X13107Y80817D01*
X13152Y80825D01*
X13198Y80828D01*
X13250Y80825D01*
X13297Y80814D01*
X13340Y80797D01*
X13379Y80773D01*
X13413Y80743D01*
X13441Y80708D01*
X13464Y80666D01*
X13481Y80620D01*
X13388Y80598D01*
X13374Y80634D01*
X13357Y80665D01*
X13338Y80691D01*
X13315Y80711D01*
X13290Y80727D01*
X13262Y80738D01*
X13230Y80745D01*
X13196Y80747D01*
X13157Y80745D01*
X13120Y80737D01*
X13088Y80725D01*
X13058Y80707D01*
X13033Y80686D01*
X13011Y80661D01*
X12994Y80633D01*
X12980Y80601D01*
X12970Y80568D01*
X12963Y80534D01*
X12959Y80499D01*
X12958Y80464D01*
X12959Y80420D01*
X12964Y80378D01*
X12973Y80340D01*
X12984Y80304D01*
X13000Y80272D01*
X13018Y80245D01*
X13041Y80222D01*
X13067Y80203D01*
X13096Y80188D01*
X13126Y80177D01*
X13157Y80171D01*
X13189Y80169D01*
X13227Y80172D01*
X13262Y80180D01*
X13294Y80195D01*
X13324Y80215D01*
X13349Y80240D01*
X13370Y80272D01*
X13386Y80309D01*
X13398Y80351D01*
X13398Y80351D01*
X13905Y80100D02*
X13817Y80100D01*
X13817Y80660D01*
X13800Y80645D01*
X13781Y80630D01*
X13758Y80615D01*
X13734Y80600D01*
X13709Y80585D01*
X13685Y80573D01*
X13663Y80563D01*
X13641Y80554D01*
X13641Y80639D01*
X13677Y80657D01*
X13711Y80677D01*
X13742Y80699D01*
X13770Y80723D01*
X13796Y80748D01*
X13817Y80772D01*
X13835Y80795D01*
X13848Y80819D01*
X13905Y80819D01*
X13905Y80100D01*
X13905Y80100D01*
G37*
%LNtop silkscreen component ad66eb5f7ad9457e*%
X15585Y6275D02*
X16415Y6275D01*
X15585Y7525D02*
X16415Y7525D01*
G36*
X13398Y6851D02*
X13493Y6827D01*
X13475Y6772D01*
X13451Y6724D01*
X13422Y6683D01*
X13386Y6649D01*
X13345Y6622D01*
X13300Y6603D01*
X13250Y6592D01*
X13197Y6588D01*
X13141Y6591D01*
X13092Y6600D01*
X13047Y6614D01*
X13008Y6635D01*
X12974Y6661D01*
X12945Y6693D01*
X12919Y6729D01*
X12898Y6771D01*
X12881Y6817D01*
X12870Y6864D01*
X12863Y6913D01*
X12860Y6963D01*
X12863Y7017D01*
X12871Y7068D01*
X12884Y7115D01*
X12903Y7158D01*
X12927Y7197D01*
X12955Y7232D01*
X12987Y7261D01*
X13024Y7285D01*
X13065Y7304D01*
X13107Y7317D01*
X13152Y7325D01*
X13198Y7328D01*
X13250Y7325D01*
X13297Y7314D01*
X13340Y7297D01*
X13379Y7273D01*
X13413Y7243D01*
X13441Y7208D01*
X13464Y7166D01*
X13481Y7120D01*
X13388Y7098D01*
X13374Y7134D01*
X13357Y7165D01*
X13338Y7191D01*
X13315Y7211D01*
X13290Y7227D01*
X13262Y7238D01*
X13230Y7245D01*
X13196Y7247D01*
X13157Y7245D01*
X13120Y7237D01*
X13088Y7225D01*
X13058Y7207D01*
X13033Y7186D01*
X13011Y7161D01*
X12994Y7133D01*
X12980Y7101D01*
X12970Y7068D01*
X12963Y7034D01*
X12959Y6999D01*
X12958Y6964D01*
X12959Y6920D01*
X12964Y6878D01*
X12973Y6840D01*
X12984Y6804D01*
X13000Y6772D01*
X13018Y6745D01*
X13041Y6722D01*
X13067Y6703D01*
X13096Y6688D01*
X13126Y6677D01*
X13157Y6671D01*
X13189Y6669D01*
X13227Y6672D01*
X13262Y6680D01*
X13294Y6695D01*
X13324Y6715D01*
X13349Y6740D01*
X13370Y6772D01*
X13386Y6809D01*
X13398Y6851D01*
X13398Y6851D01*
X13580Y7222D02*
X13580Y7307D01*
X14043Y7307D01*
X14043Y7238D01*
X14009Y7199D01*
X13975Y7153D01*
X13941Y7102D01*
X13908Y7045D01*
X13876Y6984D01*
X13848Y6923D01*
X13824Y6860D01*
X13804Y6797D01*
X13792Y6751D01*
X13782Y6703D01*
X13775Y6652D01*
X13770Y6600D01*
X13680Y6600D01*
X13683Y6644D01*
X13689Y6693D01*
X13699Y6746D01*
X13713Y6804D01*
X13731Y6863D01*
X13752Y6922D01*
X13776Y6979D01*
X13804Y7035D01*
X13834Y7088D01*
X13865Y7137D01*
X13898Y7182D01*
X13930Y7222D01*
X13580Y7222D01*
X13580Y7222D01*
G37*
%LNtop silkscreen component 1e8cbf461f4e0159*%
X15585Y55275D02*
X16415Y55275D01*
X15585Y56525D02*
X16415Y56525D01*
G36*
X13398Y55851D02*
X13493Y55827D01*
X13475Y55772D01*
X13451Y55724D01*
X13422Y55683D01*
X13386Y55649D01*
X13345Y55622D01*
X13300Y55603D01*
X13250Y55592D01*
X13197Y55588D01*
X13141Y55591D01*
X13092Y55600D01*
X13047Y55614D01*
X13008Y55635D01*
X12974Y55661D01*
X12945Y55693D01*
X12919Y55729D01*
X12898Y55771D01*
X12881Y55817D01*
X12870Y55864D01*
X12863Y55913D01*
X12860Y55963D01*
X12863Y56017D01*
X12871Y56068D01*
X12884Y56115D01*
X12903Y56158D01*
X12927Y56197D01*
X12955Y56232D01*
X12987Y56261D01*
X13024Y56285D01*
X13065Y56304D01*
X13107Y56317D01*
X13152Y56325D01*
X13198Y56328D01*
X13250Y56325D01*
X13297Y56314D01*
X13340Y56297D01*
X13379Y56273D01*
X13413Y56243D01*
X13441Y56208D01*
X13464Y56166D01*
X13481Y56120D01*
X13388Y56098D01*
X13374Y56134D01*
X13357Y56165D01*
X13338Y56191D01*
X13315Y56211D01*
X13290Y56227D01*
X13262Y56238D01*
X13230Y56245D01*
X13196Y56247D01*
X13157Y56245D01*
X13120Y56237D01*
X13088Y56225D01*
X13058Y56207D01*
X13033Y56186D01*
X13011Y56161D01*
X12994Y56133D01*
X12980Y56101D01*
X12970Y56068D01*
X12963Y56034D01*
X12959Y55999D01*
X12958Y55964D01*
X12959Y55920D01*
X12964Y55878D01*
X12973Y55840D01*
X12984Y55804D01*
X13000Y55772D01*
X13018Y55745D01*
X13041Y55722D01*
X13067Y55703D01*
X13096Y55688D01*
X13126Y55677D01*
X13157Y55671D01*
X13189Y55669D01*
X13227Y55672D01*
X13262Y55680D01*
X13294Y55695D01*
X13324Y55715D01*
X13349Y55740D01*
X13370Y55772D01*
X13386Y55809D01*
X13398Y55851D01*
X13398Y55851D01*
X13575Y55789D02*
X13662Y55801D01*
X13671Y55766D01*
X13683Y55736D01*
X13697Y55712D01*
X13714Y55693D01*
X13733Y55679D01*
X13754Y55668D01*
X13777Y55662D01*
X13803Y55660D01*
X13832Y55663D01*
X13860Y55671D01*
X13885Y55684D01*
X13907Y55703D01*
X13926Y55726D01*
X13939Y55751D01*
X13947Y55779D01*
X13950Y55809D01*
X13948Y55838D01*
X13940Y55865D01*
X13928Y55888D01*
X13910Y55909D01*
X13889Y55927D01*
X13866Y55939D01*
X13839Y55946D01*
X13810Y55949D01*
X13797Y55948D01*
X13782Y55946D01*
X13766Y55943D01*
X13748Y55939D01*
X13758Y56016D01*
X13762Y56016D01*
X13766Y56015D01*
X13769Y56015D01*
X13772Y56015D01*
X13799Y56017D01*
X13825Y56022D01*
X13850Y56032D01*
X13873Y56044D01*
X13893Y56061D01*
X13907Y56082D01*
X13915Y56106D01*
X13918Y56135D01*
X13916Y56158D01*
X13910Y56179D01*
X13899Y56198D01*
X13885Y56215D01*
X13868Y56229D01*
X13848Y56239D01*
X13825Y56245D01*
X13801Y56246D01*
X13776Y56244D01*
X13754Y56238D01*
X13733Y56228D01*
X13715Y56214D01*
X13700Y56196D01*
X13687Y56174D01*
X13678Y56148D01*
X13671Y56118D01*
X13583Y56133D01*
X13594Y56175D01*
X13610Y56212D01*
X13631Y56243D01*
X13657Y56270D01*
X13687Y56291D01*
X13721Y56307D01*
X13758Y56316D01*
X13799Y56319D01*
X13827Y56317D01*
X13855Y56312D01*
X13881Y56305D01*
X13907Y56294D01*
X13930Y56280D01*
X13950Y56264D01*
X13967Y56246D01*
X13982Y56225D01*
X13993Y56203D01*
X14002Y56180D01*
X14006Y56157D01*
X14008Y56133D01*
X14007Y56110D01*
X14002Y56088D01*
X13994Y56068D01*
X13983Y56048D01*
X13969Y56030D01*
X13952Y56014D01*
X13932Y56000D01*
X13909Y55988D01*
X13939Y55978D01*
X13966Y55965D01*
X13989Y55948D01*
X14008Y55927D01*
X14023Y55902D01*
X14034Y55875D01*
X14041Y55845D01*
X14043Y55811D01*
X14039Y55766D01*
X14026Y55725D01*
X14005Y55687D01*
X13975Y55652D01*
X13938Y55624D01*
X13898Y55604D01*
X13852Y55591D01*
X13802Y55587D01*
X13757Y55591D01*
X13716Y55601D01*
X13679Y55619D01*
X13646Y55643D01*
X13618Y55674D01*
X13597Y55708D01*
X13582Y55746D01*
X13575Y55789D01*
X13575Y55789D01*
G37*
%LNtop silkscreen component 342f6c2ee5101998*%
D14*
X0750Y36000D02*
X0750Y64000D01*
X9250Y64000*
X9250Y36000*
X0750Y36000*
X1000Y36250D02*
X1000Y63750D01*
X9000Y63750*
X9000Y36250*
X1000Y36250*
D15*
X1250Y50025D03*
D16*
X5000Y64605D03*
G36*
X2113Y65138D02*
X2113Y66229D01*
X2597Y66229D01*
X2665Y66227D01*
X2725Y66222D01*
X2776Y66212D01*
X2819Y66200D01*
X2855Y66182D01*
X2887Y66159D01*
X2915Y66130D01*
X2940Y66096D01*
X2960Y66058D01*
X2974Y66017D01*
X2982Y65975D01*
X2985Y65931D01*
X2981Y65875D01*
X2966Y65824D01*
X2943Y65778D01*
X2910Y65736D01*
X2867Y65699D01*
X2814Y65670D01*
X2751Y65649D01*
X2715Y65642D01*
X2692Y65759D01*
X2723Y65768D01*
X2749Y65780D01*
X2772Y65795D01*
X2791Y65812D01*
X2807Y65833D01*
X2820Y65856D01*
X2829Y65880D01*
X2835Y65905D01*
X2836Y65931D01*
X2833Y65968D01*
X2822Y66002D01*
X2805Y66032D01*
X2780Y66059D01*
X2748Y66080D01*
X2708Y66096D01*
X2659Y66105D01*
X2603Y66108D01*
X2257Y66108D01*
X2257Y65747D01*
X2257Y65747D01*
X2568Y65747D01*
X2615Y65749D01*
X2656Y65753D01*
X2692Y65759D01*
X2715Y65642D01*
X2678Y65634D01*
X2705Y65621D01*
X2728Y65607D01*
X2748Y65593D01*
X2765Y65580D01*
X2796Y65549D01*
X2827Y65515D01*
X2856Y65477D01*
X2885Y65435D01*
X3075Y65138D01*
X2893Y65138D01*
X2749Y65365D01*
X2718Y65411D01*
X2691Y65452D01*
X2666Y65486D01*
X2644Y65515D01*
X2625Y65539D01*
X2606Y65560D01*
X2588Y65576D01*
X2571Y65588D01*
X2555Y65598D01*
X2538Y65606D01*
X2522Y65612D01*
X2505Y65617D01*
X2491Y65620D01*
X2473Y65621D01*
X2451Y65622D01*
X2425Y65622D01*
X2257Y65622D01*
X2257Y65138D01*
X2113Y65138D01*
X2113Y65138D01*
X3735Y65392D02*
X3874Y65375D01*
X3854Y65318D01*
X3827Y65268D01*
X3793Y65224D01*
X3752Y65187D01*
X3705Y65158D01*
X3652Y65137D01*
X3592Y65124D01*
X3526Y65120D01*
X3444Y65127D01*
X3371Y65147D01*
X3307Y65180D01*
X3251Y65227D01*
X3207Y65286D01*
X3175Y65355D01*
X3156Y65435D01*
X3150Y65526D01*
X3156Y65621D01*
X3175Y65704D01*
X3207Y65775D01*
X3252Y65836D01*
X3308Y65884D01*
X3370Y65919D01*
X3441Y65939D01*
X3519Y65946D01*
X3530Y65945D01*
X3520Y65836D01*
X3476Y65832D01*
X3435Y65821D01*
X3398Y65801D01*
X3365Y65774D01*
X3337Y65741D01*
X3316Y65702D01*
X3302Y65658D01*
X3296Y65609D01*
X3296Y65609D01*
X3737Y65609D01*
X3730Y65656D01*
X3720Y65696D01*
X3705Y65731D01*
X3686Y65759D01*
X3652Y65792D01*
X3613Y65817D01*
X3569Y65831D01*
X3520Y65836D01*
X3530Y65945D01*
X3594Y65939D01*
X3663Y65919D01*
X3724Y65885D01*
X3778Y65838D01*
X3822Y65779D01*
X3853Y65708D01*
X3872Y65627D01*
X3878Y65535D01*
X3878Y65528D01*
X3878Y65520D01*
X3878Y65510D01*
X3877Y65499D01*
X3288Y65499D01*
X3296Y65438D01*
X3310Y65384D01*
X3332Y65338D01*
X3362Y65299D01*
X3397Y65269D01*
X3436Y65248D01*
X3480Y65235D01*
X3527Y65230D01*
X3562Y65233D01*
X3595Y65240D01*
X3625Y65252D01*
X3653Y65269D01*
X3677Y65291D01*
X3699Y65319D01*
X3719Y65353D01*
X3735Y65392D01*
X3735Y65392D01*
X4555Y65138D02*
X4555Y65238D01*
X4494Y65300D01*
X4496Y65302D01*
X4522Y65343D01*
X4542Y65393D01*
X4553Y65452D01*
X4557Y65521D01*
X4553Y65597D01*
X4541Y65662D01*
X4522Y65716D01*
X4494Y65759D01*
X4461Y65793D01*
X4425Y65816D01*
X4384Y65831D01*
X4340Y65835D01*
X4298Y65831D01*
X4258Y65817D01*
X4223Y65794D01*
X4191Y65762D01*
X4165Y65721D01*
X4146Y65668D01*
X4135Y65606D01*
X4131Y65532D01*
X4131Y65532D01*
X4135Y65461D01*
X4147Y65400D01*
X4167Y65348D01*
X4195Y65305D01*
X4229Y65273D01*
X4265Y65249D01*
X4304Y65235D01*
X4346Y65230D01*
X4389Y65235D01*
X4428Y65248D01*
X4463Y65271D01*
X4494Y65300D01*
X4555Y65238D01*
X4513Y65186D01*
X4462Y65150D01*
X4402Y65127D01*
X4334Y65120D01*
X4287Y65123D01*
X4243Y65133D01*
X4200Y65149D01*
X4160Y65172D01*
X4123Y65201D01*
X4090Y65235D01*
X4061Y65274D01*
X4037Y65318D01*
X4018Y65366D01*
X4004Y65418D01*
X3996Y65473D01*
X3994Y65532D01*
X3996Y65590D01*
X4003Y65645D01*
X4016Y65698D01*
X4033Y65747D01*
X4055Y65792D01*
X4082Y65832D01*
X4114Y65866D01*
X4151Y65895D01*
X4192Y65917D01*
X4235Y65933D01*
X4280Y65943D01*
X4328Y65946D01*
X4362Y65944D01*
X4395Y65939D01*
X4426Y65929D01*
X4455Y65916D01*
X4482Y65900D01*
X4506Y65881D01*
X4527Y65861D01*
X4546Y65837D01*
X4546Y66229D01*
X4679Y66229D01*
X4679Y65138D01*
X4555Y65138D01*
X4555Y65138D01*
X5459Y65138D02*
X5217Y65928D01*
X5355Y65928D01*
X5481Y65472D01*
X5528Y65302D01*
X5532Y65317D01*
X5540Y65350D01*
X5552Y65399D01*
X5569Y65465D01*
X5695Y65928D01*
X5832Y65928D01*
X5951Y65470D01*
X5990Y65319D01*
X6036Y65471D01*
X6171Y65928D01*
X6301Y65928D01*
X6054Y65138D01*
X5915Y65138D01*
X5789Y65611D01*
X5759Y65746D01*
X5599Y65138D01*
X5459Y65138D01*
X5459Y65138D01*
X6414Y65138D02*
X6414Y65928D01*
X6548Y65928D01*
X6548Y65138D01*
X6414Y65138D01*
X6414Y65138D01*
X6414Y66075D02*
X6414Y66229D01*
X6548Y66229D01*
X6548Y66075D01*
X6414Y66075D01*
X6414Y66075D01*
X6751Y65138D02*
X6751Y65928D01*
X6871Y65928D01*
X6871Y65808D01*
X6894Y65847D01*
X6916Y65878D01*
X6936Y65902D01*
X6956Y65919D01*
X6976Y65931D01*
X6997Y65939D01*
X7019Y65944D01*
X7042Y65946D01*
X7076Y65943D01*
X7111Y65935D01*
X7145Y65922D01*
X7180Y65903D01*
X7134Y65779D01*
X7109Y65791D01*
X7085Y65800D01*
X7060Y65806D01*
X7036Y65808D01*
X7014Y65806D01*
X6994Y65801D01*
X6975Y65793D01*
X6957Y65781D01*
X6940Y65767D01*
X6927Y65750D01*
X6916Y65730D01*
X6907Y65708D01*
X6897Y65671D01*
X6890Y65633D01*
X6886Y65593D01*
X6885Y65552D01*
X6885Y65138D01*
X6751Y65138D01*
X6751Y65138D01*
X7801Y65392D02*
X7939Y65375D01*
X7919Y65318D01*
X7892Y65268D01*
X7858Y65224D01*
X7818Y65187D01*
X7770Y65158D01*
X7717Y65137D01*
X7657Y65124D01*
X7591Y65120D01*
X7509Y65127D01*
X7436Y65147D01*
X7372Y65180D01*
X7316Y65227D01*
X7272Y65286D01*
X7240Y65355D01*
X7221Y65435D01*
X7215Y65526D01*
X7221Y65621D01*
X7241Y65704D01*
X7273Y65775D01*
X7318Y65836D01*
X7373Y65884D01*
X7436Y65919D01*
X7506Y65939D01*
X7584Y65946D01*
X7595Y65945D01*
X7585Y65836D01*
X7541Y65832D01*
X7501Y65821D01*
X7464Y65801D01*
X7430Y65774D01*
X7402Y65741D01*
X7382Y65702D01*
X7368Y65658D01*
X7361Y65609D01*
X7361Y65609D01*
X7802Y65609D01*
X7796Y65656D01*
X7785Y65696D01*
X7770Y65731D01*
X7751Y65759D01*
X7717Y65792D01*
X7678Y65817D01*
X7634Y65831D01*
X7585Y65836D01*
X7595Y65945D01*
X7660Y65939D01*
X7728Y65919D01*
X7789Y65885D01*
X7843Y65838D01*
X7887Y65779D01*
X7918Y65708D01*
X7937Y65627D01*
X7943Y65535D01*
X7943Y65528D01*
X7943Y65520D01*
X7943Y65510D01*
X7943Y65499D01*
X7353Y65499D01*
X7361Y65438D01*
X7375Y65384D01*
X7398Y65338D01*
X7427Y65299D01*
X7462Y65269D01*
X7501Y65248D01*
X7545Y65235D01*
X7592Y65230D01*
X7628Y65233D01*
X7660Y65240D01*
X7691Y65252D01*
X7718Y65269D01*
X7743Y65291D01*
X7765Y65319D01*
X7784Y65353D01*
X7801Y65392D01*
X7801Y65392D01*
G37*
%LNtop silkscreen component f1d5df593f81f1a4*%
D12*
X16415Y42125D02*
X15585Y42125D01*
X16415Y40875D02*
X15585Y40875D01*
G36*
X12889Y41150D02*
X12889Y41866D01*
X13206Y41866D01*
X13251Y41865D01*
X13291Y41861D01*
X13324Y41855D01*
X13352Y41847D01*
X13376Y41835D01*
X13397Y41820D01*
X13415Y41801D01*
X13431Y41778D01*
X13444Y41753D01*
X13454Y41727D01*
X13459Y41699D01*
X13461Y41671D01*
X13458Y41634D01*
X13449Y41600D01*
X13433Y41570D01*
X13412Y41542D01*
X13384Y41518D01*
X13349Y41499D01*
X13308Y41485D01*
X13284Y41480D01*
X13269Y41557D01*
X13289Y41563D01*
X13306Y41571D01*
X13321Y41581D01*
X13334Y41593D01*
X13345Y41606D01*
X13353Y41621D01*
X13359Y41637D01*
X13362Y41653D01*
X13364Y41671D01*
X13361Y41695D01*
X13354Y41717D01*
X13343Y41737D01*
X13327Y41754D01*
X13306Y41768D01*
X13279Y41779D01*
X13247Y41785D01*
X13210Y41787D01*
X12984Y41787D01*
X12984Y41550D01*
X12984Y41550D01*
X13187Y41550D01*
X13218Y41551D01*
X13245Y41553D01*
X13269Y41557D01*
X13284Y41480D01*
X13260Y41476D01*
X13277Y41467D01*
X13293Y41458D01*
X13306Y41449D01*
X13317Y41440D01*
X13337Y41420D01*
X13357Y41397D01*
X13376Y41372D01*
X13395Y41345D01*
X13520Y41150D01*
X13401Y41150D01*
X13306Y41299D01*
X13286Y41329D01*
X13268Y41356D01*
X13252Y41379D01*
X13238Y41398D01*
X13225Y41413D01*
X13212Y41427D01*
X13200Y41437D01*
X13190Y41445D01*
X13179Y41452D01*
X13168Y41457D01*
X13157Y41461D01*
X13146Y41464D01*
X13137Y41466D01*
X13125Y41467D01*
X13111Y41468D01*
X13094Y41468D01*
X12984Y41468D01*
X12984Y41150D01*
X12889Y41150D01*
X12889Y41150D01*
X13575Y41339D02*
X13662Y41351D01*
X13671Y41316D01*
X13683Y41286D01*
X13697Y41262D01*
X13714Y41243D01*
X13733Y41229D01*
X13754Y41218D01*
X13777Y41212D01*
X13803Y41210D01*
X13832Y41213D01*
X13860Y41221D01*
X13885Y41234D01*
X13907Y41253D01*
X13926Y41276D01*
X13939Y41301D01*
X13947Y41329D01*
X13950Y41359D01*
X13948Y41388D01*
X13940Y41415D01*
X13928Y41438D01*
X13910Y41459D01*
X13889Y41477D01*
X13866Y41489D01*
X13839Y41496D01*
X13810Y41499D01*
X13797Y41498D01*
X13782Y41496D01*
X13766Y41493D01*
X13748Y41489D01*
X13758Y41566D01*
X13762Y41566D01*
X13766Y41565D01*
X13769Y41565D01*
X13772Y41565D01*
X13799Y41567D01*
X13825Y41572D01*
X13850Y41582D01*
X13873Y41594D01*
X13893Y41611D01*
X13907Y41632D01*
X13915Y41656D01*
X13918Y41685D01*
X13916Y41708D01*
X13910Y41729D01*
X13899Y41748D01*
X13885Y41765D01*
X13868Y41779D01*
X13848Y41789D01*
X13825Y41794D01*
X13801Y41796D01*
X13776Y41794D01*
X13754Y41788D01*
X13733Y41778D01*
X13715Y41764D01*
X13700Y41746D01*
X13687Y41724D01*
X13678Y41698D01*
X13671Y41668D01*
X13583Y41683D01*
X13594Y41725D01*
X13610Y41762D01*
X13631Y41793D01*
X13657Y41820D01*
X13687Y41841D01*
X13721Y41857D01*
X13758Y41866D01*
X13799Y41869D01*
X13827Y41867D01*
X13855Y41862D01*
X13881Y41855D01*
X13907Y41844D01*
X13930Y41830D01*
X13950Y41814D01*
X13967Y41796D01*
X13982Y41775D01*
X13993Y41753D01*
X14002Y41730D01*
X14006Y41707D01*
X14008Y41683D01*
X14007Y41660D01*
X14002Y41638D01*
X13994Y41618D01*
X13983Y41598D01*
X13969Y41580D01*
X13952Y41564D01*
X13932Y41550D01*
X13909Y41538D01*
X13939Y41528D01*
X13966Y41515D01*
X13989Y41498D01*
X14008Y41477D01*
X14023Y41452D01*
X14034Y41425D01*
X14041Y41395D01*
X14043Y41361D01*
X14039Y41316D01*
X14026Y41275D01*
X14005Y41237D01*
X13975Y41202D01*
X13938Y41174D01*
X13898Y41154D01*
X13852Y41141D01*
X13802Y41137D01*
X13757Y41141D01*
X13716Y41151D01*
X13679Y41169D01*
X13646Y41193D01*
X13618Y41224D01*
X13597Y41258D01*
X13582Y41296D01*
X13575Y41339D01*
X13575Y41339D01*
G37*
%LNtop silkscreen component fc347e21ca2c40c2*%
X16415Y10125D02*
X15585Y10125D01*
X16415Y8875D02*
X15585Y8875D01*
G36*
X13398Y9376D02*
X13493Y9352D01*
X13475Y9297D01*
X13451Y9249D01*
X13422Y9208D01*
X13386Y9174D01*
X13345Y9147D01*
X13300Y9128D01*
X13250Y9117D01*
X13197Y9113D01*
X13141Y9116D01*
X13092Y9125D01*
X13047Y9139D01*
X13008Y9160D01*
X12974Y9186D01*
X12945Y9218D01*
X12919Y9254D01*
X12898Y9296D01*
X12881Y9342D01*
X12870Y9389D01*
X12863Y9438D01*
X12860Y9488D01*
X12863Y9542D01*
X12871Y9593D01*
X12884Y9640D01*
X12903Y9683D01*
X12927Y9722D01*
X12955Y9757D01*
X12987Y9786D01*
X13024Y9810D01*
X13065Y9829D01*
X13107Y9842D01*
X13152Y9850D01*
X13198Y9853D01*
X13250Y9850D01*
X13297Y9839D01*
X13340Y9822D01*
X13379Y9798D01*
X13413Y9768D01*
X13441Y9733D01*
X13464Y9691D01*
X13481Y9645D01*
X13388Y9623D01*
X13374Y9659D01*
X13357Y9690D01*
X13338Y9716D01*
X13315Y9736D01*
X13290Y9752D01*
X13262Y9763D01*
X13230Y9770D01*
X13196Y9772D01*
X13157Y9770D01*
X13120Y9762D01*
X13088Y9750D01*
X13058Y9732D01*
X13033Y9711D01*
X13011Y9686D01*
X12994Y9658D01*
X12980Y9626D01*
X12970Y9593D01*
X12963Y9559D01*
X12959Y9524D01*
X12958Y9489D01*
X12959Y9445D01*
X12964Y9403D01*
X12973Y9365D01*
X12984Y9329D01*
X13000Y9297D01*
X13018Y9270D01*
X13041Y9247D01*
X13067Y9228D01*
X13096Y9213D01*
X13126Y9202D01*
X13157Y9196D01*
X13189Y9194D01*
X13227Y9197D01*
X13262Y9205D01*
X13294Y9220D01*
X13324Y9240D01*
X13349Y9265D01*
X13370Y9297D01*
X13386Y9334D01*
X13398Y9376D01*
X13398Y9376D01*
X13709Y9513D02*
X13738Y9458D01*
X13726Y9452D01*
X13704Y9434D01*
X13686Y9412D01*
X13674Y9388D01*
X13666Y9361D01*
X13663Y9332D01*
X13663Y9332D01*
X13665Y9313D01*
X13668Y9295D01*
X13673Y9277D01*
X13681Y9259D01*
X13691Y9242D01*
X13703Y9228D01*
X13718Y9215D01*
X13734Y9204D01*
X13752Y9196D01*
X13771Y9190D01*
X13790Y9186D01*
X13810Y9185D01*
X13840Y9188D01*
X13867Y9195D01*
X13892Y9208D01*
X13914Y9226D01*
X13932Y9247D01*
X13945Y9272D01*
X13952Y9299D01*
X13955Y9329D01*
X13952Y9359D01*
X13944Y9387D01*
X13931Y9411D01*
X13913Y9434D01*
X13890Y9452D01*
X13865Y9465D01*
X13837Y9473D01*
X13807Y9475D01*
X13777Y9473D01*
X13750Y9465D01*
X13738Y9458D01*
X13709Y9513D01*
X13742Y9565D01*
X13762Y9555D01*
X13784Y9549D01*
X13809Y9547D01*
X13834Y9549D01*
X13856Y9555D01*
X13875Y9565D01*
X13893Y9579D01*
X13907Y9596D01*
X13917Y9614D01*
X13923Y9635D01*
X13925Y9657D01*
X13923Y9680D01*
X13917Y9702D01*
X13906Y9721D01*
X13892Y9739D01*
X13874Y9753D01*
X13854Y9763D01*
X13832Y9769D01*
X13808Y9771D01*
X13784Y9769D01*
X13762Y9763D01*
X13743Y9753D01*
X13725Y9739D01*
X13710Y9722D01*
X13700Y9704D01*
X13694Y9684D01*
X13692Y9662D01*
X13692Y9662D01*
X13694Y9638D01*
X13700Y9616D01*
X13710Y9596D01*
X13724Y9579D01*
X13742Y9565D01*
X13709Y9513D01*
X13684Y9524D01*
X13662Y9537D01*
X13643Y9553D01*
X13628Y9570D01*
X13617Y9590D01*
X13608Y9611D01*
X13604Y9634D01*
X13602Y9659D01*
X13605Y9697D01*
X13616Y9731D01*
X13633Y9762D01*
X13658Y9791D01*
X13688Y9814D01*
X13723Y9830D01*
X13763Y9840D01*
X13807Y9844D01*
X13852Y9840D01*
X13892Y9830D01*
X13927Y9813D01*
X13958Y9789D01*
X13983Y9761D01*
X14001Y9729D01*
X14012Y9694D01*
X14015Y9657D01*
X14014Y9633D01*
X14009Y9610D01*
X14001Y9589D01*
X13989Y9570D01*
X13975Y9553D01*
X13956Y9537D01*
X13935Y9524D01*
X13910Y9513D01*
X13941Y9501D01*
X13968Y9485D01*
X13991Y9466D01*
X14010Y9444D01*
X14025Y9419D01*
X14036Y9391D01*
X14043Y9362D01*
X14045Y9330D01*
X14041Y9286D01*
X14029Y9245D01*
X14008Y9208D01*
X13980Y9175D01*
X13945Y9148D01*
X13905Y9128D01*
X13859Y9117D01*
X13809Y9113D01*
X13758Y9117D01*
X13713Y9128D01*
X13673Y9148D01*
X13638Y9176D01*
X13610Y9209D01*
X13589Y9246D01*
X13577Y9287D01*
X13573Y9332D01*
X13575Y9366D01*
X13582Y9396D01*
X13593Y9424D01*
X13608Y9449D01*
X13628Y9471D01*
X13651Y9489D01*
X13678Y9503D01*
X13709Y9513D01*
X13709Y9513D01*
G37*
%LNtop silkscreen component a7ff6b6d77965276*%
X16415Y83625D02*
X15585Y83625D01*
X16415Y82375D02*
X15585Y82375D01*
G36*
X13398Y82876D02*
X13493Y82852D01*
X13475Y82797D01*
X13451Y82749D01*
X13422Y82708D01*
X13386Y82674D01*
X13345Y82647D01*
X13300Y82628D01*
X13250Y82617D01*
X13197Y82613D01*
X13141Y82616D01*
X13092Y82625D01*
X13047Y82639D01*
X13008Y82660D01*
X12974Y82686D01*
X12945Y82718D01*
X12919Y82754D01*
X12898Y82796D01*
X12881Y82842D01*
X12870Y82889D01*
X12863Y82938D01*
X12860Y82988D01*
X12863Y83042D01*
X12871Y83093D01*
X12884Y83140D01*
X12903Y83183D01*
X12927Y83222D01*
X12955Y83257D01*
X12987Y83286D01*
X13024Y83310D01*
X13065Y83329D01*
X13107Y83342D01*
X13152Y83350D01*
X13198Y83353D01*
X13250Y83350D01*
X13297Y83339D01*
X13340Y83322D01*
X13379Y83298D01*
X13413Y83268D01*
X13441Y83233D01*
X13464Y83191D01*
X13481Y83145D01*
X13388Y83123D01*
X13374Y83159D01*
X13357Y83190D01*
X13338Y83216D01*
X13315Y83236D01*
X13290Y83252D01*
X13262Y83263D01*
X13230Y83270D01*
X13196Y83272D01*
X13157Y83270D01*
X13120Y83262D01*
X13088Y83250D01*
X13058Y83232D01*
X13033Y83211D01*
X13011Y83186D01*
X12994Y83158D01*
X12980Y83126D01*
X12970Y83093D01*
X12963Y83059D01*
X12959Y83024D01*
X12958Y82989D01*
X12959Y82945D01*
X12964Y82903D01*
X12973Y82865D01*
X12984Y82829D01*
X13000Y82797D01*
X13018Y82770D01*
X13041Y82747D01*
X13067Y82728D01*
X13096Y82713D01*
X13126Y82702D01*
X13157Y82696D01*
X13189Y82694D01*
X13227Y82697D01*
X13262Y82705D01*
X13294Y82720D01*
X13324Y82740D01*
X13349Y82765D01*
X13370Y82797D01*
X13386Y82834D01*
X13398Y82876D01*
X13398Y82876D01*
X14036Y82709D02*
X14036Y82625D01*
X13563Y82625D01*
X13563Y82641D01*
X13565Y82656D01*
X13568Y82671D01*
X13573Y82686D01*
X13583Y82710D01*
X13597Y82734D01*
X13612Y82758D01*
X13631Y82781D01*
X13653Y82806D01*
X13680Y82832D01*
X13711Y82860D01*
X13746Y82890D01*
X13800Y82935D01*
X13844Y82975D01*
X13878Y83011D01*
X13904Y83041D01*
X13922Y83069D01*
X13934Y83096D01*
X13942Y83122D01*
X13945Y83147D01*
X13942Y83172D01*
X13935Y83195D01*
X13924Y83216D01*
X13907Y83235D01*
X13887Y83251D01*
X13864Y83262D01*
X13838Y83269D01*
X13810Y83271D01*
X13780Y83269D01*
X13753Y83261D01*
X13729Y83250D01*
X13708Y83233D01*
X13692Y83212D01*
X13680Y83187D01*
X13672Y83159D01*
X13670Y83127D01*
X13579Y83137D01*
X13587Y83184D01*
X13601Y83226D01*
X13622Y83261D01*
X13649Y83291D01*
X13682Y83314D01*
X13720Y83331D01*
X13763Y83340D01*
X13812Y83344D01*
X13861Y83340D01*
X13904Y83329D01*
X13942Y83312D01*
X13975Y83287D01*
X14001Y83256D01*
X14020Y83223D01*
X14031Y83186D01*
X14035Y83145D01*
X14034Y83124D01*
X14031Y83102D01*
X14025Y83081D01*
X14017Y83061D01*
X14007Y83040D01*
X13994Y83018D01*
X13978Y82996D01*
X13959Y82973D01*
X13935Y82948D01*
X13905Y82919D01*
X13868Y82885D01*
X13824Y82847D01*
X13788Y82817D01*
X13759Y82791D01*
X13737Y82772D01*
X13722Y82757D01*
X13711Y82745D01*
X13701Y82733D01*
X13693Y82721D01*
X13685Y82709D01*
X14036Y82709D01*
X14036Y82709D01*
G37*
%LNtop silkscreen component be414f40d5ea6e4f*%
X16415Y59125D02*
X15585Y59125D01*
X16415Y57875D02*
X15585Y57875D01*
G36*
X13398Y58376D02*
X13493Y58352D01*
X13475Y58297D01*
X13451Y58249D01*
X13422Y58208D01*
X13386Y58174D01*
X13345Y58147D01*
X13300Y58128D01*
X13250Y58117D01*
X13197Y58113D01*
X13141Y58116D01*
X13092Y58125D01*
X13047Y58139D01*
X13008Y58160D01*
X12974Y58186D01*
X12945Y58218D01*
X12919Y58254D01*
X12898Y58296D01*
X12881Y58342D01*
X12870Y58389D01*
X12863Y58438D01*
X12860Y58488D01*
X12863Y58542D01*
X12871Y58593D01*
X12884Y58640D01*
X12903Y58683D01*
X12927Y58722D01*
X12955Y58757D01*
X12987Y58786D01*
X13024Y58810D01*
X13065Y58829D01*
X13107Y58842D01*
X13152Y58850D01*
X13198Y58853D01*
X13250Y58850D01*
X13297Y58839D01*
X13340Y58822D01*
X13379Y58798D01*
X13413Y58768D01*
X13441Y58733D01*
X13464Y58691D01*
X13481Y58645D01*
X13388Y58623D01*
X13374Y58659D01*
X13357Y58690D01*
X13338Y58716D01*
X13315Y58736D01*
X13290Y58752D01*
X13262Y58763D01*
X13230Y58770D01*
X13196Y58772D01*
X13157Y58770D01*
X13120Y58762D01*
X13088Y58750D01*
X13058Y58732D01*
X13033Y58711D01*
X13011Y58686D01*
X12994Y58658D01*
X12980Y58626D01*
X12970Y58593D01*
X12963Y58559D01*
X12959Y58524D01*
X12958Y58489D01*
X12959Y58445D01*
X12964Y58403D01*
X12973Y58365D01*
X12984Y58329D01*
X13000Y58297D01*
X13018Y58270D01*
X13041Y58247D01*
X13067Y58228D01*
X13096Y58213D01*
X13126Y58202D01*
X13157Y58196D01*
X13189Y58194D01*
X13227Y58197D01*
X13262Y58205D01*
X13294Y58220D01*
X13324Y58240D01*
X13349Y58265D01*
X13370Y58297D01*
X13386Y58334D01*
X13398Y58376D01*
X13398Y58376D01*
X13856Y58125D02*
X13856Y58296D01*
X13545Y58296D01*
X13545Y58377D01*
X13800Y58739D01*
X13856Y58700D01*
X13632Y58377D01*
X13856Y58377D01*
X13856Y58377D01*
X13856Y58700D01*
X13800Y58739D01*
X13872Y58841D01*
X13944Y58841D01*
X13944Y58377D01*
X14040Y58377D01*
X14040Y58296D01*
X13944Y58296D01*
X13944Y58125D01*
X13856Y58125D01*
X13856Y58125D01*
G37*
%LNtop silkscreen component b15d75c6ec27c82e*%
X16415Y17625D02*
X15585Y17625D01*
X16415Y16375D02*
X15585Y16375D01*
G36*
X12889Y16650D02*
X12889Y17366D01*
X13206Y17366D01*
X13251Y17365D01*
X13291Y17361D01*
X13324Y17355D01*
X13352Y17347D01*
X13376Y17335D01*
X13397Y17320D01*
X13415Y17301D01*
X13431Y17278D01*
X13444Y17253D01*
X13454Y17227D01*
X13459Y17199D01*
X13461Y17171D01*
X13458Y17134D01*
X13449Y17100D01*
X13433Y17070D01*
X13412Y17042D01*
X13384Y17018D01*
X13349Y16999D01*
X13308Y16985D01*
X13284Y16980D01*
X13269Y17057D01*
X13289Y17063D01*
X13306Y17071D01*
X13321Y17081D01*
X13334Y17093D01*
X13345Y17106D01*
X13353Y17121D01*
X13359Y17137D01*
X13362Y17153D01*
X13364Y17171D01*
X13361Y17195D01*
X13354Y17217D01*
X13343Y17237D01*
X13327Y17254D01*
X13306Y17268D01*
X13279Y17279D01*
X13247Y17285D01*
X13210Y17287D01*
X12984Y17287D01*
X12984Y17050D01*
X12984Y17050D01*
X13187Y17050D01*
X13218Y17051D01*
X13245Y17053D01*
X13269Y17057D01*
X13284Y16980D01*
X13260Y16976D01*
X13277Y16967D01*
X13293Y16958D01*
X13306Y16949D01*
X13317Y16940D01*
X13337Y16920D01*
X13357Y16897D01*
X13376Y16872D01*
X13395Y16845D01*
X13520Y16650D01*
X13401Y16650D01*
X13306Y16799D01*
X13286Y16829D01*
X13268Y16856D01*
X13252Y16879D01*
X13238Y16898D01*
X13225Y16913D01*
X13212Y16927D01*
X13200Y16937D01*
X13190Y16945D01*
X13179Y16952D01*
X13168Y16957D01*
X13157Y16961D01*
X13146Y16964D01*
X13137Y16966D01*
X13125Y16967D01*
X13111Y16968D01*
X13094Y16968D01*
X12984Y16968D01*
X12984Y16650D01*
X12889Y16650D01*
X12889Y16650D01*
X13856Y16650D02*
X13856Y16821D01*
X13545Y16821D01*
X13545Y16902D01*
X13800Y17264D01*
X13856Y17225D01*
X13632Y16902D01*
X13856Y16902D01*
X13856Y16902D01*
X13856Y17225D01*
X13800Y17264D01*
X13872Y17366D01*
X13944Y17366D01*
X13944Y16902D01*
X14040Y16902D01*
X14040Y16821D01*
X13944Y16821D01*
X13944Y16650D01*
X13856Y16650D01*
X13856Y16650D01*
G37*
%LNtop silkscreen component 0599ffb3c0a8959f*%
D10*
X15100Y10750D02*
X15100Y15750D01*
X16900Y10750D02*
X16900Y15750D01*
X15100Y15750D02*
X16900Y15750D01*
X15100Y10750D02*
X16900Y10750D01*
D17*
X13600Y16005D03*
%LNtop silkscreen component 800e5b6bc9c18d00*%
D12*
X16415Y66625D02*
X15585Y66625D01*
X16415Y65375D02*
X15585Y65375D01*
G36*
X12889Y65650D02*
X12889Y66366D01*
X13206Y66366D01*
X13251Y66365D01*
X13291Y66361D01*
X13324Y66355D01*
X13352Y66347D01*
X13376Y66335D01*
X13397Y66320D01*
X13415Y66301D01*
X13431Y66278D01*
X13444Y66253D01*
X13454Y66227D01*
X13459Y66199D01*
X13461Y66171D01*
X13458Y66134D01*
X13449Y66100D01*
X13433Y66070D01*
X13412Y66042D01*
X13384Y66018D01*
X13349Y65999D01*
X13308Y65985D01*
X13284Y65980D01*
X13269Y66057D01*
X13289Y66063D01*
X13306Y66071D01*
X13321Y66081D01*
X13334Y66093D01*
X13345Y66106D01*
X13353Y66121D01*
X13359Y66137D01*
X13362Y66153D01*
X13364Y66171D01*
X13361Y66195D01*
X13354Y66217D01*
X13343Y66237D01*
X13327Y66254D01*
X13306Y66268D01*
X13279Y66279D01*
X13247Y66285D01*
X13210Y66287D01*
X12984Y66287D01*
X12984Y66050D01*
X12984Y66050D01*
X13187Y66050D01*
X13218Y66051D01*
X13245Y66053D01*
X13269Y66057D01*
X13284Y65980D01*
X13260Y65976D01*
X13277Y65967D01*
X13293Y65958D01*
X13306Y65949D01*
X13317Y65940D01*
X13337Y65920D01*
X13357Y65897D01*
X13376Y65872D01*
X13395Y65845D01*
X13520Y65650D01*
X13401Y65650D01*
X13306Y65799D01*
X13286Y65829D01*
X13268Y65856D01*
X13252Y65879D01*
X13238Y65898D01*
X13225Y65913D01*
X13212Y65927D01*
X13200Y65937D01*
X13190Y65945D01*
X13179Y65952D01*
X13168Y65957D01*
X13157Y65961D01*
X13146Y65964D01*
X13137Y65966D01*
X13125Y65967D01*
X13111Y65968D01*
X13094Y65968D01*
X12984Y65968D01*
X12984Y65650D01*
X12889Y65650D01*
X12889Y65650D01*
X14036Y65734D02*
X14036Y65650D01*
X13563Y65650D01*
X13563Y65666D01*
X13565Y65681D01*
X13568Y65696D01*
X13573Y65711D01*
X13583Y65735D01*
X13597Y65759D01*
X13612Y65783D01*
X13631Y65806D01*
X13653Y65831D01*
X13680Y65857D01*
X13711Y65885D01*
X13746Y65915D01*
X13800Y65960D01*
X13844Y66000D01*
X13878Y66036D01*
X13904Y66066D01*
X13922Y66094D01*
X13934Y66121D01*
X13942Y66147D01*
X13945Y66172D01*
X13942Y66197D01*
X13935Y66220D01*
X13924Y66241D01*
X13907Y66260D01*
X13887Y66276D01*
X13864Y66287D01*
X13838Y66294D01*
X13810Y66296D01*
X13780Y66294D01*
X13753Y66286D01*
X13729Y66275D01*
X13708Y66258D01*
X13692Y66237D01*
X13680Y66212D01*
X13672Y66184D01*
X13670Y66152D01*
X13579Y66162D01*
X13587Y66209D01*
X13601Y66251D01*
X13622Y66286D01*
X13649Y66316D01*
X13682Y66339D01*
X13720Y66356D01*
X13763Y66365D01*
X13812Y66369D01*
X13861Y66365D01*
X13904Y66354D01*
X13942Y66337D01*
X13975Y66312D01*
X14001Y66281D01*
X14020Y66248D01*
X14031Y66211D01*
X14035Y66170D01*
X14034Y66149D01*
X14031Y66127D01*
X14025Y66106D01*
X14017Y66086D01*
X14007Y66065D01*
X13994Y66043D01*
X13978Y66021D01*
X13959Y65998D01*
X13935Y65973D01*
X13905Y65944D01*
X13868Y65910D01*
X13824Y65872D01*
X13788Y65842D01*
X13759Y65816D01*
X13737Y65797D01*
X13722Y65782D01*
X13711Y65770D01*
X13701Y65758D01*
X13693Y65746D01*
X13685Y65734D01*
X14036Y65734D01*
X14036Y65734D01*
G37*
%LNtop silkscreen component 92b6b987cdba25fc*%
X16415Y91125D02*
X15585Y91125D01*
X16415Y89875D02*
X15585Y89875D01*
G36*
X12889Y90150D02*
X12889Y90866D01*
X13206Y90866D01*
X13251Y90865D01*
X13291Y90861D01*
X13324Y90855D01*
X13352Y90847D01*
X13376Y90835D01*
X13397Y90820D01*
X13415Y90801D01*
X13431Y90778D01*
X13444Y90753D01*
X13454Y90727D01*
X13459Y90699D01*
X13461Y90671D01*
X13458Y90634D01*
X13449Y90600D01*
X13433Y90570D01*
X13412Y90542D01*
X13384Y90518D01*
X13349Y90499D01*
X13308Y90485D01*
X13284Y90480D01*
X13269Y90557D01*
X13289Y90563D01*
X13306Y90571D01*
X13321Y90581D01*
X13334Y90593D01*
X13345Y90606D01*
X13353Y90621D01*
X13359Y90637D01*
X13362Y90653D01*
X13364Y90671D01*
X13361Y90695D01*
X13354Y90717D01*
X13343Y90737D01*
X13327Y90754D01*
X13306Y90768D01*
X13279Y90779D01*
X13247Y90785D01*
X13210Y90787D01*
X12984Y90787D01*
X12984Y90550D01*
X12984Y90550D01*
X13187Y90550D01*
X13218Y90551D01*
X13245Y90553D01*
X13269Y90557D01*
X13284Y90480D01*
X13260Y90476D01*
X13277Y90467D01*
X13293Y90458D01*
X13306Y90449D01*
X13317Y90440D01*
X13337Y90420D01*
X13357Y90397D01*
X13376Y90372D01*
X13395Y90345D01*
X13520Y90150D01*
X13401Y90150D01*
X13306Y90299D01*
X13286Y90329D01*
X13268Y90356D01*
X13252Y90379D01*
X13238Y90398D01*
X13225Y90413D01*
X13212Y90427D01*
X13200Y90437D01*
X13190Y90445D01*
X13179Y90452D01*
X13168Y90457D01*
X13157Y90461D01*
X13146Y90464D01*
X13137Y90466D01*
X13125Y90467D01*
X13111Y90468D01*
X13094Y90468D01*
X12984Y90468D01*
X12984Y90150D01*
X12889Y90150D01*
X12889Y90150D01*
X13905Y90150D02*
X13817Y90150D01*
X13817Y90710D01*
X13800Y90695D01*
X13781Y90680D01*
X13758Y90665D01*
X13734Y90650D01*
X13709Y90635D01*
X13685Y90623D01*
X13663Y90613D01*
X13641Y90604D01*
X13641Y90689D01*
X13677Y90707D01*
X13711Y90727D01*
X13742Y90749D01*
X13770Y90773D01*
X13796Y90798D01*
X13817Y90822D01*
X13835Y90845D01*
X13848Y90869D01*
X13905Y90869D01*
X13905Y90150D01*
X13905Y90150D01*
G37*
%LNtop silkscreen component 1d86972c5e83ae7f*%
D10*
X15100Y35250D02*
X15100Y40250D01*
X16900Y35250D02*
X16900Y40250D01*
X15100Y40250D02*
X16900Y40250D01*
X15100Y35250D02*
X16900Y35250D01*
D18*
X13600Y40505D03*
%LNtop silkscreen component 889bc73f0323b172*%
D12*
X15585Y30775D02*
X16415Y30775D01*
X15585Y32025D02*
X16415Y32025D01*
G36*
X13398Y31351D02*
X13493Y31327D01*
X13475Y31272D01*
X13451Y31224D01*
X13422Y31183D01*
X13386Y31149D01*
X13345Y31122D01*
X13300Y31103D01*
X13250Y31092D01*
X13197Y31088D01*
X13141Y31091D01*
X13092Y31100D01*
X13047Y31114D01*
X13008Y31135D01*
X12974Y31161D01*
X12945Y31193D01*
X12919Y31229D01*
X12898Y31271D01*
X12881Y31317D01*
X12870Y31364D01*
X12863Y31413D01*
X12860Y31463D01*
X12863Y31517D01*
X12871Y31568D01*
X12884Y31615D01*
X12903Y31658D01*
X12927Y31697D01*
X12955Y31732D01*
X12987Y31761D01*
X13024Y31785D01*
X13065Y31804D01*
X13107Y31817D01*
X13152Y31825D01*
X13198Y31828D01*
X13250Y31825D01*
X13297Y31814D01*
X13340Y31797D01*
X13379Y31773D01*
X13413Y31743D01*
X13441Y31708D01*
X13464Y31666D01*
X13481Y31620D01*
X13388Y31598D01*
X13374Y31634D01*
X13357Y31665D01*
X13338Y31691D01*
X13315Y31711D01*
X13290Y31727D01*
X13262Y31738D01*
X13230Y31745D01*
X13196Y31747D01*
X13157Y31745D01*
X13120Y31737D01*
X13088Y31725D01*
X13058Y31707D01*
X13033Y31686D01*
X13011Y31661D01*
X12994Y31633D01*
X12980Y31601D01*
X12970Y31568D01*
X12963Y31534D01*
X12959Y31499D01*
X12958Y31464D01*
X12959Y31420D01*
X12964Y31378D01*
X12973Y31340D01*
X12984Y31304D01*
X13000Y31272D01*
X13018Y31245D01*
X13041Y31222D01*
X13067Y31203D01*
X13096Y31188D01*
X13126Y31177D01*
X13157Y31171D01*
X13189Y31169D01*
X13227Y31172D01*
X13262Y31180D01*
X13294Y31195D01*
X13324Y31215D01*
X13349Y31240D01*
X13370Y31272D01*
X13386Y31309D01*
X13398Y31351D01*
X13398Y31351D01*
X13574Y31288D02*
X13666Y31295D01*
X13673Y31264D01*
X13683Y31236D01*
X13697Y31213D01*
X13714Y31194D01*
X13734Y31179D01*
X13755Y31169D01*
X13779Y31162D01*
X13804Y31160D01*
X13835Y31163D01*
X13863Y31172D01*
X13888Y31187D01*
X13911Y31208D01*
X13931Y31234D01*
X13944Y31264D01*
X13953Y31297D01*
X13955Y31335D01*
X13953Y31370D01*
X13945Y31402D01*
X13932Y31430D01*
X13913Y31454D01*
X13890Y31473D01*
X13864Y31486D01*
X13835Y31494D01*
X13803Y31497D01*
X13782Y31496D01*
X13762Y31492D01*
X13743Y31486D01*
X13726Y31478D01*
X13710Y31467D01*
X13695Y31456D01*
X13683Y31442D01*
X13672Y31428D01*
X13590Y31438D01*
X13659Y31806D01*
X14015Y31806D01*
X14015Y31722D01*
X13729Y31722D01*
X13691Y31530D01*
X13723Y31549D01*
X13757Y31563D01*
X13791Y31572D01*
X13826Y31575D01*
X13871Y31571D01*
X13912Y31558D01*
X13950Y31538D01*
X13984Y31510D01*
X14012Y31475D01*
X14033Y31435D01*
X14045Y31391D01*
X14049Y31343D01*
X14045Y31296D01*
X14034Y31252D01*
X14017Y31212D01*
X13992Y31175D01*
X13954Y31137D01*
X13911Y31110D01*
X13860Y31093D01*
X13804Y31088D01*
X13757Y31091D01*
X13715Y31101D01*
X13678Y31119D01*
X13645Y31142D01*
X13617Y31172D01*
X13596Y31206D01*
X13582Y31245D01*
X13574Y31288D01*
X13574Y31288D01*
G37*
%LNtext*%
G36*
X10000Y72655D02*
X8926Y72655D01*
X8926Y73431D01*
X9053Y73431D01*
X9053Y72797D01*
X9382Y72797D01*
X9382Y73391D01*
X9508Y73391D01*
X9508Y72797D01*
X9873Y72797D01*
X9873Y73456D01*
X10000Y73456D01*
X10000Y72655D01*
X10000Y72655D01*
X10000Y74145D02*
X9886Y74145D01*
X9943Y74096D01*
X9985Y74038D01*
X10009Y73972D01*
X10018Y73899D01*
X10016Y73865D01*
X10011Y73832D01*
X10003Y73800D01*
X9991Y73770D01*
X9977Y73742D01*
X9961Y73718D01*
X9944Y73698D01*
X9925Y73681D01*
X9904Y73668D01*
X9881Y73657D01*
X9855Y73648D01*
X9827Y73641D01*
X9805Y73637D01*
X9777Y73635D01*
X9743Y73633D01*
X9704Y73633D01*
X9222Y73633D01*
X9222Y73764D01*
X9654Y73764D01*
X9701Y73765D01*
X9740Y73767D01*
X9771Y73769D01*
X9793Y73773D01*
X9817Y73781D01*
X9839Y73792D01*
X9858Y73807D01*
X9874Y73825D01*
X9887Y73847D01*
X9897Y73870D01*
X9902Y73896D01*
X9904Y73925D01*
X9902Y73954D01*
X9896Y73982D01*
X9887Y74010D01*
X9874Y74036D01*
X9857Y74060D01*
X9838Y74081D01*
X9816Y74097D01*
X9791Y74110D01*
X9762Y74119D01*
X9727Y74126D01*
X9686Y74130D01*
X9639Y74131D01*
X9222Y74131D01*
X9222Y74263D01*
X10000Y74263D01*
X10000Y74145D01*
X10000Y74145D01*
X10000Y74468D02*
X9222Y74468D01*
X9222Y74587D01*
X9340Y74587D01*
X9302Y74609D01*
X9271Y74631D01*
X9248Y74651D01*
X9231Y74671D01*
X9219Y74691D01*
X9211Y74711D01*
X9206Y74733D01*
X9205Y74755D01*
X9207Y74789D01*
X9215Y74823D01*
X9228Y74857D01*
X9247Y74891D01*
X9369Y74846D01*
X9357Y74821D01*
X9348Y74797D01*
X9343Y74773D01*
X9341Y74749D01*
X9342Y74728D01*
X9347Y74708D01*
X9355Y74689D01*
X9367Y74671D01*
X9381Y74655D01*
X9398Y74642D01*
X9417Y74631D01*
X9439Y74622D01*
X9475Y74613D01*
X9513Y74606D01*
X9552Y74602D01*
X9593Y74600D01*
X10000Y74600D01*
X10000Y74468D01*
X10000Y74468D01*
X9611Y74920D02*
X9510Y74928D01*
X9423Y74950D01*
X9350Y74988D01*
X9291Y75040D01*
X9253Y75093D01*
X9226Y75152D01*
X9210Y75216D01*
X9205Y75285D01*
X9211Y75362D01*
X9231Y75431D01*
X9264Y75493D01*
X9310Y75547D01*
X9367Y75592D01*
X9435Y75624D01*
X9512Y75643D01*
X9600Y75649D01*
X9671Y75646D01*
X9734Y75638D01*
X9789Y75624D01*
X9836Y75604D01*
X9877Y75579D01*
X9913Y75549D01*
X9944Y75513D01*
X9970Y75473D01*
X9991Y75429D01*
X10006Y75383D01*
X10015Y75335D01*
X10018Y75285D01*
X10017Y75276D01*
X9909Y75285D01*
X9905Y75332D01*
X9891Y75375D01*
X9867Y75414D01*
X9834Y75448D01*
X9792Y75477D01*
X9740Y75497D01*
X9678Y75509D01*
X9607Y75513D01*
X9539Y75509D01*
X9480Y75497D01*
X9430Y75477D01*
X9388Y75448D01*
X9356Y75413D01*
X9332Y75374D01*
X9318Y75332D01*
X9314Y75285D01*
X9318Y75238D01*
X9332Y75195D01*
X9355Y75156D01*
X9388Y75121D01*
X9429Y75092D01*
X9481Y75072D01*
X9541Y75060D01*
X9611Y75056D01*
X9611Y75056D01*
X9681Y75060D01*
X9742Y75072D01*
X9793Y75092D01*
X9835Y75121D01*
X9867Y75156D01*
X9891Y75195D01*
X9905Y75238D01*
X9909Y75285D01*
X10017Y75276D01*
X10011Y75207D01*
X9991Y75137D01*
X9959Y75075D01*
X9913Y75021D01*
X9855Y74977D01*
X9785Y74945D01*
X9704Y74927D01*
X9611Y74920D01*
X9611Y74920D01*
X10000Y75802D02*
X9222Y75802D01*
X9222Y75921D01*
X9340Y75921D01*
X9302Y75943D01*
X9271Y75964D01*
X9248Y75985D01*
X9231Y76005D01*
X9219Y76024D01*
X9211Y76045D01*
X9206Y76067D01*
X9205Y76089D01*
X9207Y76123D01*
X9215Y76156D01*
X9228Y76190D01*
X9247Y76225D01*
X9369Y76179D01*
X9357Y76155D01*
X9348Y76131D01*
X9343Y76107D01*
X9341Y76083D01*
X9342Y76062D01*
X9347Y76042D01*
X9355Y76023D01*
X9367Y76005D01*
X9381Y75989D01*
X9398Y75975D01*
X9417Y75964D01*
X9439Y75956D01*
X9475Y75946D01*
X9513Y75939D01*
X9552Y75935D01*
X9593Y75934D01*
X10000Y75934D01*
X10000Y75802D01*
X10000Y75802D01*
X9904Y76811D02*
X9933Y76774D01*
X9936Y76769D01*
X9863Y76719D01*
X9842Y76743D01*
X9817Y76762D01*
X9790Y76778D01*
X9765Y76788D01*
X9734Y76794D01*
X9699Y76798D01*
X9658Y76800D01*
X9610Y76800D01*
X9610Y76800D01*
X9624Y76759D01*
X9637Y76710D01*
X9649Y76652D01*
X9659Y76584D01*
X9665Y76547D01*
X9672Y76515D01*
X9679Y76489D01*
X9686Y76469D01*
X9694Y76453D01*
X9704Y76439D01*
X9715Y76427D01*
X9729Y76417D01*
X9743Y76409D01*
X9758Y76404D01*
X9774Y76400D01*
X9791Y76399D01*
X9817Y76401D01*
X9840Y76409D01*
X9860Y76421D01*
X9879Y76439D01*
X9895Y76461D01*
X9906Y76488D01*
X9912Y76520D01*
X9914Y76556D01*
X9912Y76593D01*
X9906Y76628D01*
X9896Y76661D01*
X9881Y76691D01*
X9863Y76719D01*
X9936Y76769D01*
X9957Y76739D01*
X9977Y76704D01*
X9992Y76670D01*
X10003Y76635D01*
X10011Y76599D01*
X10016Y76562D01*
X10018Y76524D01*
X10014Y76464D01*
X10002Y76411D01*
X9982Y76365D01*
X9955Y76327D01*
X9921Y76297D01*
X9884Y76276D01*
X9841Y76263D01*
X9795Y76258D01*
X9767Y76260D01*
X9740Y76265D01*
X9715Y76273D01*
X9691Y76284D01*
X9668Y76298D01*
X9648Y76314D01*
X9630Y76332D01*
X9615Y76352D01*
X9601Y76374D01*
X9590Y76397D01*
X9580Y76422D01*
X9572Y76447D01*
X9566Y76469D01*
X9561Y76496D01*
X9557Y76528D01*
X9552Y76565D01*
X9542Y76639D01*
X9531Y76703D01*
X9519Y76757D01*
X9506Y76800D01*
X9494Y76800D01*
X9484Y76800D01*
X9477Y76800D01*
X9472Y76800D01*
X9435Y76798D01*
X9403Y76791D01*
X9378Y76779D01*
X9358Y76763D01*
X9339Y76735D01*
X9325Y76700D01*
X9317Y76660D01*
X9314Y76613D01*
X9316Y76569D01*
X9322Y76532D01*
X9332Y76501D01*
X9346Y76476D01*
X9366Y76455D01*
X9391Y76437D01*
X9423Y76422D01*
X9462Y76410D01*
X9444Y76281D01*
X9405Y76291D01*
X9369Y76304D01*
X9338Y76320D01*
X9310Y76339D01*
X9286Y76361D01*
X9265Y76388D01*
X9247Y76420D01*
X9232Y76455D01*
X9220Y76495D01*
X9211Y76538D01*
X9206Y76583D01*
X9205Y76632D01*
X9206Y76679D01*
X9210Y76722D01*
X9218Y76760D01*
X9228Y76794D01*
X9241Y76823D01*
X9254Y76848D01*
X9270Y76869D01*
X9287Y76885D01*
X9306Y76899D01*
X9327Y76910D01*
X9351Y76919D01*
X9377Y76926D01*
X9397Y76929D01*
X9424Y76931D01*
X9458Y76933D01*
X9498Y76933D01*
X9674Y76933D01*
X9758Y76933D01*
X9824Y76935D01*
X9874Y76938D01*
X9907Y76941D01*
X9931Y76947D01*
X9954Y76954D01*
X9977Y76963D01*
X10000Y76975D01*
X10000Y76837D01*
X9979Y76828D01*
X9956Y76820D01*
X9931Y76814D01*
X9904Y76811D01*
X9904Y76811D01*
X9715Y77645D02*
X9732Y77774D01*
X9795Y77760D01*
X9851Y77737D01*
X9900Y77705D01*
X9942Y77666D01*
X9975Y77619D01*
X9999Y77568D01*
X10013Y77512D01*
X10018Y77451D01*
X10011Y77375D01*
X9991Y77307D01*
X9959Y77246D01*
X9913Y77194D01*
X9855Y77152D01*
X9786Y77121D01*
X9706Y77103D01*
X9614Y77097D01*
X9553Y77100D01*
X9496Y77107D01*
X9443Y77120D01*
X9394Y77139D01*
X9349Y77162D01*
X9311Y77191D01*
X9278Y77226D01*
X9252Y77266D01*
X9231Y77309D01*
X9216Y77355D01*
X9208Y77402D01*
X9205Y77451D01*
X9209Y77512D01*
X9221Y77567D01*
X9241Y77616D01*
X9269Y77659D01*
X9304Y77695D01*
X9346Y77725D01*
X9395Y77747D01*
X9451Y77762D01*
X9470Y77634D01*
X9434Y77623D01*
X9402Y77608D01*
X9375Y77591D01*
X9353Y77569D01*
X9335Y77545D01*
X9323Y77518D01*
X9315Y77488D01*
X9313Y77457D01*
X9317Y77409D01*
X9331Y77366D01*
X9353Y77328D01*
X9384Y77295D01*
X9425Y77268D01*
X9477Y77248D01*
X9538Y77236D01*
X9610Y77232D01*
X9683Y77236D01*
X9746Y77248D01*
X9797Y77266D01*
X9838Y77293D01*
X9869Y77325D01*
X9891Y77362D01*
X9905Y77403D01*
X9909Y77449D01*
X9906Y77487D01*
X9897Y77521D01*
X9882Y77551D01*
X9862Y77579D01*
X9835Y77603D01*
X9801Y77621D01*
X9761Y77636D01*
X9715Y77645D01*
X9715Y77645D01*
X10000Y77888D02*
X8926Y77888D01*
X8926Y78020D01*
X9539Y78020D01*
X9222Y78332D01*
X9222Y78503D01*
X9511Y78205D01*
X10000Y78533D01*
X10000Y78370D01*
X9602Y78113D01*
X9692Y78020D01*
X10000Y78020D01*
X10000Y77888D01*
X10000Y77888D01*
X10298Y79054D02*
X9222Y79054D01*
X9222Y79174D01*
X9323Y79174D01*
X9386Y79239D01*
X9387Y79238D01*
X9430Y79210D01*
X9483Y79190D01*
X9545Y79178D01*
X9615Y79173D01*
X9615Y79173D01*
X9686Y79177D01*
X9746Y79189D01*
X9797Y79208D01*
X9837Y79234D01*
X9869Y79266D01*
X9891Y79301D01*
X9905Y79340D01*
X9909Y79382D01*
X9905Y79424D01*
X9891Y79463D01*
X9867Y79499D01*
X9835Y79532D01*
X9793Y79559D01*
X9740Y79579D01*
X9677Y79591D01*
X9604Y79595D01*
X9535Y79591D01*
X9474Y79579D01*
X9423Y79560D01*
X9382Y79533D01*
X9349Y79501D01*
X9326Y79466D01*
X9312Y79428D01*
X9308Y79387D01*
X9313Y79346D01*
X9328Y79308D01*
X9352Y79272D01*
X9386Y79239D01*
X9323Y79174D01*
X9295Y79196D01*
X9271Y79219D01*
X9251Y79244D01*
X9234Y79270D01*
X9221Y79298D01*
X9212Y79329D01*
X9206Y79363D01*
X9205Y79400D01*
X9208Y79448D01*
X9217Y79494D01*
X9233Y79536D01*
X9256Y79576D01*
X9284Y79611D01*
X9318Y79642D01*
X9356Y79669D01*
X9401Y79691D01*
X9448Y79708D01*
X9498Y79720D01*
X9551Y79727D01*
X9605Y79729D01*
X9663Y79727D01*
X9719Y79719D01*
X9771Y79705D01*
X9820Y79687D01*
X9865Y79663D01*
X9905Y79634D01*
X9938Y79600D01*
X9967Y79562D01*
X9989Y79521D01*
X10005Y79478D01*
X10014Y79435D01*
X10018Y79390D01*
X10016Y79358D01*
X10011Y79328D01*
X10002Y79299D01*
X9990Y79272D01*
X9975Y79247D01*
X9958Y79224D01*
X9940Y79204D01*
X9919Y79186D01*
X10298Y79186D01*
X10298Y79054D01*
X10298Y79054D01*
X9611Y79839D02*
X9510Y79847D01*
X9423Y79869D01*
X9350Y79907D01*
X9291Y79959D01*
X9253Y80012D01*
X9226Y80071D01*
X9210Y80135D01*
X9205Y80204D01*
X9211Y80281D01*
X9231Y80350D01*
X9264Y80412D01*
X9310Y80466D01*
X9367Y80511D01*
X9435Y80543D01*
X9512Y80562D01*
X9600Y80568D01*
X9671Y80565D01*
X9734Y80557D01*
X9789Y80543D01*
X9836Y80523D01*
X9877Y80498D01*
X9913Y80468D01*
X9944Y80432D01*
X9970Y80392D01*
X9991Y80348D01*
X10006Y80302D01*
X10015Y80254D01*
X10018Y80204D01*
X10017Y80195D01*
X9909Y80204D01*
X9905Y80251D01*
X9891Y80294D01*
X9867Y80333D01*
X9834Y80367D01*
X9792Y80396D01*
X9740Y80416D01*
X9678Y80428D01*
X9607Y80433D01*
X9539Y80428D01*
X9480Y80416D01*
X9430Y80396D01*
X9388Y80367D01*
X9356Y80332D01*
X9332Y80293D01*
X9318Y80251D01*
X9314Y80204D01*
X9318Y80157D01*
X9332Y80114D01*
X9355Y80075D01*
X9388Y80040D01*
X9429Y80011D01*
X9481Y79991D01*
X9541Y79979D01*
X9611Y79975D01*
X9611Y79975D01*
X9681Y79979D01*
X9742Y79991D01*
X9793Y80011D01*
X9835Y80040D01*
X9867Y80075D01*
X9891Y80114D01*
X9905Y80157D01*
X9909Y80204D01*
X10017Y80195D01*
X10011Y80126D01*
X9991Y80056D01*
X9959Y79994D01*
X9913Y79940D01*
X9855Y79896D01*
X9785Y79864D01*
X9704Y79846D01*
X9611Y79839D01*
X9611Y79839D01*
X9882Y81010D02*
X9999Y81029D01*
X10004Y81002D01*
X10007Y80977D01*
X10010Y80953D01*
X10010Y80930D01*
X10009Y80896D01*
X10005Y80866D01*
X9997Y80840D01*
X9988Y80819D01*
X9975Y80800D01*
X9961Y80785D01*
X9945Y80772D01*
X9928Y80763D01*
X9904Y80756D01*
X9870Y80751D01*
X9826Y80748D01*
X9772Y80747D01*
X9325Y80747D01*
X9325Y80650D01*
X9222Y80650D01*
X9222Y80747D01*
X9030Y80747D01*
X8950Y80878D01*
X9222Y80878D01*
X9222Y81010D01*
X9325Y81010D01*
X9325Y80878D01*
X9780Y80878D01*
X9805Y80878D01*
X9826Y80880D01*
X9841Y80882D01*
X9852Y80885D01*
X9860Y80889D01*
X9867Y80894D01*
X9873Y80900D01*
X9878Y80908D01*
X9882Y80916D01*
X9885Y80927D01*
X9887Y80939D01*
X9887Y80953D01*
X9887Y80964D01*
X9886Y80978D01*
X9884Y80993D01*
X9882Y81010D01*
X9882Y81010D01*
X9750Y81672D02*
X9766Y81808D01*
X9823Y81788D01*
X9872Y81762D01*
X9915Y81729D01*
X9952Y81689D01*
X9980Y81642D01*
X10001Y81589D01*
X10013Y81531D01*
X10018Y81466D01*
X10011Y81385D01*
X9991Y81313D01*
X9958Y81250D01*
X9912Y81195D01*
X9855Y81152D01*
X9786Y81120D01*
X9707Y81102D01*
X9618Y81095D01*
X9525Y81102D01*
X9443Y81121D01*
X9373Y81152D01*
X9313Y81196D01*
X9266Y81251D01*
X9232Y81313D01*
X9211Y81382D01*
X9205Y81459D01*
X9206Y81470D01*
X9313Y81460D01*
X9317Y81417D01*
X9328Y81377D01*
X9347Y81340D01*
X9374Y81307D01*
X9407Y81280D01*
X9445Y81259D01*
X9488Y81246D01*
X9536Y81239D01*
X9536Y81239D01*
X9536Y81673D01*
X9490Y81667D01*
X9451Y81656D01*
X9417Y81642D01*
X9389Y81623D01*
X9356Y81590D01*
X9332Y81551D01*
X9318Y81508D01*
X9313Y81460D01*
X9206Y81470D01*
X9211Y81533D01*
X9231Y81600D01*
X9264Y81661D01*
X9311Y81714D01*
X9369Y81757D01*
X9439Y81788D01*
X9519Y81806D01*
X9610Y81812D01*
X9616Y81812D01*
X9624Y81812D01*
X9634Y81812D01*
X9645Y81812D01*
X9645Y81232D01*
X9705Y81239D01*
X9758Y81253D01*
X9803Y81275D01*
X9841Y81304D01*
X9871Y81339D01*
X9892Y81377D01*
X9905Y81420D01*
X9909Y81467D01*
X9907Y81502D01*
X9900Y81534D01*
X9888Y81564D01*
X9871Y81590D01*
X9849Y81615D01*
X9822Y81636D01*
X9788Y81655D01*
X9750Y81672D01*
X9750Y81672D01*
X10000Y81974D02*
X9222Y81974D01*
X9222Y82092D01*
X9333Y82092D01*
X9277Y82140D01*
X9237Y82197D01*
X9213Y82264D01*
X9205Y82340D01*
X9206Y82374D01*
X9211Y82407D01*
X9219Y82439D01*
X9230Y82469D01*
X9243Y82497D01*
X9259Y82521D01*
X9277Y82541D01*
X9296Y82557D01*
X9318Y82571D01*
X9341Y82582D01*
X9366Y82591D01*
X9394Y82598D01*
X9415Y82602D01*
X9444Y82604D01*
X9479Y82605D01*
X9522Y82606D01*
X10000Y82606D01*
X10000Y82474D01*
X9527Y82474D01*
X9489Y82473D01*
X9456Y82470D01*
X9429Y82465D01*
X9406Y82458D01*
X9387Y82449D01*
X9370Y82437D01*
X9356Y82422D01*
X9343Y82404D01*
X9332Y82383D01*
X9325Y82361D01*
X9320Y82337D01*
X9319Y82312D01*
X9322Y82271D01*
X9332Y82233D01*
X9349Y82199D01*
X9372Y82167D01*
X9405Y82140D01*
X9450Y82121D01*
X9506Y82109D01*
X9575Y82105D01*
X10000Y82105D01*
X10000Y81974D01*
X10000Y81974D01*
X9882Y83096D02*
X9999Y83115D01*
X10004Y83088D01*
X10007Y83062D01*
X10010Y83038D01*
X10010Y83015D01*
X10009Y82981D01*
X10005Y82951D01*
X9997Y82926D01*
X9988Y82904D01*
X9975Y82885D01*
X9961Y82870D01*
X9945Y82858D01*
X9928Y82848D01*
X9904Y82841D01*
X9870Y82836D01*
X9826Y82833D01*
X9772Y82832D01*
X9325Y82832D01*
X9325Y82735D01*
X9222Y82735D01*
X9222Y82832D01*
X9030Y82832D01*
X8950Y82963D01*
X9222Y82963D01*
X9222Y83096D01*
X9325Y83096D01*
X9325Y82963D01*
X9780Y82963D01*
X9805Y82964D01*
X9826Y82965D01*
X9841Y82967D01*
X9852Y82970D01*
X9860Y82974D01*
X9867Y82979D01*
X9873Y82985D01*
X9878Y82993D01*
X9882Y83001D01*
X9885Y83012D01*
X9887Y83024D01*
X9887Y83038D01*
X9887Y83050D01*
X9886Y83063D01*
X9884Y83079D01*
X9882Y83096D01*
X9882Y83096D01*
X10000Y83225D02*
X9222Y83225D01*
X9222Y83357D01*
X10000Y83357D01*
X10000Y83225D01*
X10000Y83225D01*
X9078Y83225D02*
X8926Y83225D01*
X8926Y83357D01*
X9078Y83357D01*
X9078Y83225D01*
X9078Y83225D01*
X9611Y83509D02*
X9510Y83516D01*
X9423Y83539D01*
X9350Y83576D01*
X9291Y83629D01*
X9253Y83682D01*
X9226Y83740D01*
X9210Y83804D01*
X9205Y83873D01*
X9211Y83950D01*
X9231Y84019D01*
X9264Y84081D01*
X9310Y84136D01*
X9367Y84180D01*
X9435Y84212D01*
X9512Y84231D01*
X9600Y84237D01*
X9671Y84235D01*
X9734Y84226D01*
X9789Y84212D01*
X9836Y84192D01*
X9877Y84167D01*
X9913Y84137D01*
X9944Y84102D01*
X9970Y84061D01*
X9991Y84017D01*
X10006Y83971D01*
X10015Y83923D01*
X10018Y83873D01*
X10017Y83864D01*
X9909Y83873D01*
X9905Y83920D01*
X9891Y83963D01*
X9867Y84002D01*
X9834Y84037D01*
X9792Y84065D01*
X9740Y84086D01*
X9678Y84098D01*
X9607Y84102D01*
X9539Y84098D01*
X9480Y84086D01*
X9430Y84065D01*
X9388Y84036D01*
X9356Y84002D01*
X9332Y83963D01*
X9318Y83920D01*
X9314Y83873D01*
X9318Y83826D01*
X9332Y83783D01*
X9355Y83744D01*
X9388Y83709D01*
X9429Y83681D01*
X9481Y83660D01*
X9541Y83648D01*
X9611Y83644D01*
X9611Y83644D01*
X9681Y83648D01*
X9742Y83660D01*
X9793Y83681D01*
X9835Y83709D01*
X9867Y83744D01*
X9891Y83783D01*
X9905Y83826D01*
X9909Y83873D01*
X10017Y83864D01*
X10011Y83796D01*
X9991Y83726D01*
X9959Y83664D01*
X9913Y83609D01*
X9855Y83565D01*
X9785Y83534D01*
X9704Y83515D01*
X9611Y83509D01*
X9611Y83509D01*
X10000Y84392D02*
X9222Y84392D01*
X9222Y84510D01*
X9331Y84510D01*
X9304Y84530D01*
X9280Y84553D01*
X9258Y84578D01*
X9239Y84607D01*
X9224Y84639D01*
X9213Y84672D01*
X9207Y84708D01*
X9205Y84746D01*
X9207Y84787D01*
X9214Y84824D01*
X9225Y84858D01*
X9240Y84887D01*
X9260Y84913D01*
X9284Y84935D01*
X9310Y84952D01*
X9341Y84965D01*
X9281Y85015D01*
X9239Y85072D01*
X9213Y85135D01*
X9205Y85206D01*
X9209Y85260D01*
X9221Y85308D01*
X9241Y85349D01*
X9269Y85384D01*
X9305Y85411D01*
X9350Y85430D01*
X9404Y85442D01*
X9466Y85446D01*
X10000Y85446D01*
X10000Y85315D01*
X9510Y85315D01*
X9473Y85314D01*
X9442Y85312D01*
X9416Y85308D01*
X9396Y85302D01*
X9380Y85294D01*
X9365Y85284D01*
X9352Y85271D01*
X9340Y85256D01*
X9331Y85238D01*
X9324Y85219D01*
X9320Y85198D01*
X9319Y85176D01*
X9322Y85137D01*
X9332Y85101D01*
X9350Y85069D01*
X9373Y85040D01*
X9405Y85016D01*
X9444Y85000D01*
X9492Y84989D01*
X9548Y84986D01*
X10000Y84986D01*
X10000Y84854D01*
X9495Y84854D01*
X9453Y84852D01*
X9418Y84846D01*
X9388Y84836D01*
X9363Y84822D01*
X9344Y84803D01*
X9330Y84779D01*
X9322Y84751D01*
X9319Y84716D01*
X9321Y84689D01*
X9326Y84663D01*
X9335Y84638D01*
X9348Y84614D01*
X9364Y84592D01*
X9384Y84573D01*
X9407Y84557D01*
X9434Y84545D01*
X9465Y84536D01*
X9503Y84529D01*
X9546Y84525D01*
X9596Y84524D01*
X10000Y84524D01*
X10000Y84392D01*
X10000Y84392D01*
X9750Y86174D02*
X9766Y86310D01*
X9823Y86291D01*
X9872Y86264D01*
X9915Y86231D01*
X9952Y86191D01*
X9980Y86144D01*
X10001Y86092D01*
X10013Y86033D01*
X10018Y85968D01*
X10011Y85887D01*
X9991Y85815D01*
X9958Y85752D01*
X9912Y85698D01*
X9855Y85654D01*
X9786Y85623D01*
X9707Y85604D01*
X9618Y85598D01*
X9525Y85604D01*
X9443Y85623D01*
X9373Y85654D01*
X9313Y85699D01*
X9266Y85753D01*
X9232Y85815D01*
X9211Y85884D01*
X9205Y85961D01*
X9206Y85972D01*
X9313Y85962D01*
X9317Y85919D01*
X9328Y85879D01*
X9347Y85842D01*
X9374Y85810D01*
X9407Y85782D01*
X9445Y85762D01*
X9488Y85748D01*
X9536Y85741D01*
X9536Y85741D01*
X9536Y86175D01*
X9490Y86169D01*
X9451Y86159D01*
X9417Y86144D01*
X9389Y86126D01*
X9356Y86092D01*
X9332Y86053D01*
X9318Y86010D01*
X9313Y85962D01*
X9206Y85972D01*
X9211Y86035D01*
X9231Y86103D01*
X9264Y86163D01*
X9311Y86216D01*
X9369Y86259D01*
X9439Y86290D01*
X9519Y86308D01*
X9610Y86315D01*
X9616Y86315D01*
X9624Y86314D01*
X9634Y86314D01*
X9645Y86314D01*
X9645Y85734D01*
X9705Y85741D01*
X9758Y85756D01*
X9803Y85777D01*
X9841Y85806D01*
X9871Y85841D01*
X9892Y85880D01*
X9905Y85922D01*
X9909Y85969D01*
X9907Y86004D01*
X9900Y86036D01*
X9888Y86066D01*
X9871Y86093D01*
X9849Y86117D01*
X9822Y86139D01*
X9788Y86158D01*
X9750Y86174D01*
X9750Y86174D01*
X9882Y86764D02*
X9999Y86783D01*
X10004Y86756D01*
X10007Y86730D01*
X10010Y86706D01*
X10010Y86683D01*
X10009Y86649D01*
X10005Y86619D01*
X9997Y86594D01*
X9988Y86572D01*
X9975Y86553D01*
X9961Y86538D01*
X9945Y86526D01*
X9928Y86516D01*
X9904Y86509D01*
X9870Y86504D01*
X9826Y86501D01*
X9772Y86500D01*
X9325Y86500D01*
X9325Y86403D01*
X9222Y86403D01*
X9222Y86500D01*
X9030Y86500D01*
X8950Y86631D01*
X9222Y86631D01*
X9222Y86764D01*
X9325Y86764D01*
X9325Y86631D01*
X9780Y86631D01*
X9805Y86631D01*
X9826Y86633D01*
X9841Y86635D01*
X9852Y86638D01*
X9860Y86642D01*
X9867Y86647D01*
X9873Y86653D01*
X9878Y86661D01*
X9882Y86669D01*
X9885Y86680D01*
X9887Y86692D01*
X9887Y86706D01*
X9887Y86718D01*
X9886Y86731D01*
X9884Y86747D01*
X9882Y86764D01*
X9882Y86764D01*
X9750Y87425D02*
X9766Y87561D01*
X9823Y87542D01*
X9872Y87515D01*
X9915Y87482D01*
X9952Y87442D01*
X9980Y87395D01*
X10001Y87343D01*
X10013Y87284D01*
X10018Y87219D01*
X10011Y87138D01*
X9991Y87066D01*
X9958Y87003D01*
X9912Y86949D01*
X9855Y86905D01*
X9786Y86874D01*
X9707Y86855D01*
X9618Y86849D01*
X9525Y86855D01*
X9443Y86874D01*
X9373Y86905D01*
X9313Y86950D01*
X9266Y87004D01*
X9232Y87066D01*
X9211Y87135D01*
X9205Y87212D01*
X9206Y87223D01*
X9313Y87213D01*
X9317Y87170D01*
X9328Y87130D01*
X9347Y87093D01*
X9374Y87061D01*
X9407Y87033D01*
X9445Y87013D01*
X9488Y86999D01*
X9536Y86992D01*
X9536Y86992D01*
X9536Y87426D01*
X9490Y87420D01*
X9451Y87410D01*
X9417Y87395D01*
X9389Y87377D01*
X9356Y87343D01*
X9332Y87304D01*
X9318Y87261D01*
X9313Y87213D01*
X9206Y87223D01*
X9211Y87286D01*
X9231Y87354D01*
X9264Y87414D01*
X9311Y87467D01*
X9369Y87510D01*
X9439Y87541D01*
X9519Y87559D01*
X9610Y87566D01*
X9616Y87566D01*
X9624Y87565D01*
X9634Y87565D01*
X9645Y87565D01*
X9645Y86985D01*
X9705Y86992D01*
X9758Y87007D01*
X9803Y87028D01*
X9841Y87057D01*
X9871Y87092D01*
X9892Y87131D01*
X9905Y87173D01*
X9909Y87220D01*
X9907Y87255D01*
X9900Y87287D01*
X9888Y87317D01*
X9871Y87344D01*
X9849Y87368D01*
X9822Y87390D01*
X9788Y87409D01*
X9750Y87425D01*
X9750Y87425D01*
X10000Y87725D02*
X9222Y87725D01*
X9222Y87844D01*
X9340Y87844D01*
X9302Y87866D01*
X9271Y87888D01*
X9248Y87908D01*
X9231Y87928D01*
X9219Y87948D01*
X9211Y87968D01*
X9206Y87990D01*
X9205Y88012D01*
X9207Y88046D01*
X9215Y88080D01*
X9228Y88114D01*
X9247Y88148D01*
X9369Y88102D01*
X9357Y88078D01*
X9348Y88054D01*
X9343Y88030D01*
X9341Y88006D01*
X9342Y87985D01*
X9347Y87965D01*
X9355Y87946D01*
X9367Y87928D01*
X9381Y87912D01*
X9398Y87899D01*
X9417Y87888D01*
X9439Y87879D01*
X9475Y87869D01*
X9513Y87863D01*
X9552Y87858D01*
X9593Y87857D01*
X10000Y87857D01*
X10000Y87725D01*
X10000Y87725D01*
X10000Y88643D02*
X9222Y88643D01*
X9222Y88761D01*
X9331Y88761D01*
X9304Y88781D01*
X9280Y88804D01*
X9258Y88829D01*
X9239Y88858D01*
X9224Y88890D01*
X9213Y88923D01*
X9207Y88959D01*
X9205Y88997D01*
X9207Y89038D01*
X9214Y89075D01*
X9225Y89109D01*
X9240Y89138D01*
X9260Y89164D01*
X9284Y89186D01*
X9310Y89203D01*
X9341Y89216D01*
X9281Y89266D01*
X9239Y89323D01*
X9213Y89386D01*
X9205Y89457D01*
X9209Y89511D01*
X9221Y89559D01*
X9241Y89600D01*
X9269Y89635D01*
X9305Y89662D01*
X9350Y89681D01*
X9404Y89693D01*
X9466Y89697D01*
X10000Y89697D01*
X10000Y89566D01*
X9510Y89566D01*
X9473Y89565D01*
X9442Y89563D01*
X9416Y89559D01*
X9396Y89553D01*
X9380Y89545D01*
X9365Y89535D01*
X9352Y89522D01*
X9340Y89506D01*
X9331Y89489D01*
X9324Y89470D01*
X9320Y89449D01*
X9319Y89427D01*
X9322Y89388D01*
X9332Y89352D01*
X9350Y89320D01*
X9373Y89291D01*
X9405Y89267D01*
X9444Y89251D01*
X9492Y89240D01*
X9548Y89237D01*
X10000Y89237D01*
X10000Y89105D01*
X9495Y89105D01*
X9453Y89103D01*
X9418Y89097D01*
X9388Y89087D01*
X9363Y89073D01*
X9344Y89054D01*
X9330Y89030D01*
X9322Y89001D01*
X9319Y88967D01*
X9321Y88940D01*
X9326Y88914D01*
X9335Y88889D01*
X9348Y88865D01*
X9364Y88843D01*
X9384Y88824D01*
X9407Y88808D01*
X9434Y88796D01*
X9465Y88787D01*
X9503Y88780D01*
X9546Y88776D01*
X9596Y88775D01*
X10000Y88775D01*
X10000Y88643D01*
X10000Y88643D01*
X9611Y89843D02*
X9510Y89851D01*
X9423Y89873D01*
X9350Y89911D01*
X9291Y89964D01*
X9253Y90016D01*
X9226Y90075D01*
X9210Y90139D01*
X9205Y90208D01*
X9211Y90285D01*
X9231Y90354D01*
X9264Y90416D01*
X9310Y90470D01*
X9367Y90515D01*
X9435Y90547D01*
X9512Y90566D01*
X9600Y90572D01*
X9671Y90569D01*
X9734Y90561D01*
X9789Y90547D01*
X9836Y90527D01*
X9877Y90502D01*
X9913Y90472D01*
X9944Y90437D01*
X9970Y90396D01*
X9991Y90352D01*
X10006Y90306D01*
X10015Y90258D01*
X10018Y90208D01*
X10017Y90199D01*
X9909Y90208D01*
X9905Y90255D01*
X9891Y90298D01*
X9867Y90337D01*
X9834Y90372D01*
X9792Y90400D01*
X9740Y90420D01*
X9678Y90433D01*
X9607Y90437D01*
X9539Y90433D01*
X9480Y90420D01*
X9430Y90400D01*
X9388Y90371D01*
X9356Y90336D01*
X9332Y90298D01*
X9318Y90255D01*
X9314Y90208D01*
X9318Y90161D01*
X9332Y90118D01*
X9355Y90079D01*
X9388Y90044D01*
X9429Y90016D01*
X9481Y89995D01*
X9541Y89983D01*
X9611Y89979D01*
X9611Y89979D01*
X9681Y89983D01*
X9742Y89995D01*
X9793Y90016D01*
X9835Y90044D01*
X9867Y90079D01*
X9891Y90118D01*
X9905Y90161D01*
X9909Y90208D01*
X10017Y90199D01*
X10011Y90130D01*
X9991Y90061D01*
X9959Y89998D01*
X9913Y89944D01*
X9855Y89900D01*
X9785Y89869D01*
X9704Y89850D01*
X9611Y89843D01*
X9611Y89843D01*
X10000Y91231D02*
X9902Y91231D01*
X9840Y91171D01*
X9839Y91173D01*
X9799Y91200D01*
X9749Y91218D01*
X9691Y91230D01*
X9623Y91234D01*
X9548Y91230D01*
X9484Y91218D01*
X9431Y91199D01*
X9388Y91172D01*
X9356Y91140D01*
X9332Y91103D01*
X9318Y91064D01*
X9314Y91020D01*
X9318Y90978D01*
X9332Y90940D01*
X9354Y90905D01*
X9385Y90874D01*
X9427Y90848D01*
X9478Y90829D01*
X9540Y90818D01*
X9612Y90815D01*
X9612Y90815D01*
X9682Y90819D01*
X9742Y90830D01*
X9794Y90850D01*
X9835Y90878D01*
X9868Y90911D01*
X9891Y90946D01*
X9905Y90985D01*
X9909Y91026D01*
X9905Y91068D01*
X9892Y91106D01*
X9869Y91141D01*
X9840Y91171D01*
X9902Y91231D01*
X9952Y91190D01*
X9989Y91140D01*
X10010Y91081D01*
X10018Y91014D01*
X10014Y90968D01*
X10005Y90925D01*
X9989Y90883D01*
X9966Y90843D01*
X9938Y90806D01*
X9905Y90774D01*
X9867Y90746D01*
X9823Y90722D01*
X9775Y90703D01*
X9724Y90690D01*
X9670Y90682D01*
X9612Y90679D01*
X9555Y90682D01*
X9501Y90689D01*
X9449Y90701D01*
X9401Y90718D01*
X9356Y90740D01*
X9317Y90766D01*
X9283Y90798D01*
X9255Y90834D01*
X9233Y90874D01*
X9217Y90917D01*
X9208Y90961D01*
X9205Y91008D01*
X9206Y91042D01*
X9212Y91074D01*
X9221Y91105D01*
X9234Y91133D01*
X9250Y91159D01*
X9268Y91183D01*
X9289Y91204D01*
X9312Y91223D01*
X8926Y91223D01*
X8926Y91354D01*
X10000Y91354D01*
X10000Y91231D01*
X10000Y91231D01*
X10000Y92071D02*
X9886Y92071D01*
X9943Y92021D01*
X9985Y91964D01*
X10009Y91898D01*
X10018Y91824D01*
X10016Y91790D01*
X10011Y91757D01*
X10003Y91726D01*
X9991Y91695D01*
X9977Y91667D01*
X9961Y91643D01*
X9944Y91623D01*
X9925Y91607D01*
X9904Y91593D01*
X9881Y91582D01*
X9855Y91573D01*
X9827Y91566D01*
X9805Y91563D01*
X9777Y91560D01*
X9743Y91559D01*
X9704Y91558D01*
X9222Y91558D01*
X9222Y91690D01*
X9654Y91690D01*
X9701Y91690D01*
X9740Y91692D01*
X9771Y91694D01*
X9793Y91698D01*
X9817Y91706D01*
X9839Y91717D01*
X9858Y91732D01*
X9874Y91751D01*
X9887Y91772D01*
X9897Y91796D01*
X9902Y91822D01*
X9904Y91850D01*
X9902Y91879D01*
X9896Y91908D01*
X9887Y91935D01*
X9874Y91962D01*
X9857Y91986D01*
X9838Y92006D01*
X9816Y92023D01*
X9791Y92035D01*
X9762Y92045D01*
X9727Y92051D01*
X9686Y92055D01*
X9639Y92057D01*
X9222Y92057D01*
X9222Y92189D01*
X10000Y92189D01*
X10000Y92071D01*
X10000Y92071D01*
X10000Y92392D02*
X8926Y92392D01*
X8926Y92524D01*
X10000Y92524D01*
X10000Y92392D01*
X10000Y92392D01*
X9750Y93261D02*
X9766Y93397D01*
X9823Y93378D01*
X9872Y93351D01*
X9915Y93318D01*
X9952Y93278D01*
X9980Y93231D01*
X10001Y93179D01*
X10013Y93120D01*
X10018Y93055D01*
X10011Y92974D01*
X9991Y92902D01*
X9958Y92839D01*
X9912Y92784D01*
X9855Y92741D01*
X9786Y92709D01*
X9707Y92691D01*
X9618Y92684D01*
X9525Y92691D01*
X9443Y92710D01*
X9373Y92741D01*
X9313Y92786D01*
X9266Y92840D01*
X9232Y92902D01*
X9211Y92971D01*
X9205Y93048D01*
X9206Y93059D01*
X9313Y93049D01*
X9317Y93006D01*
X9328Y92966D01*
X9347Y92929D01*
X9374Y92897D01*
X9407Y92869D01*
X9445Y92848D01*
X9488Y92835D01*
X9536Y92828D01*
X9536Y92828D01*
X9536Y93262D01*
X9490Y93256D01*
X9451Y93246D01*
X9417Y93231D01*
X9389Y93213D01*
X9356Y93179D01*
X9332Y93140D01*
X9318Y93097D01*
X9313Y93049D01*
X9206Y93059D01*
X9211Y93122D01*
X9231Y93190D01*
X9264Y93250D01*
X9311Y93303D01*
X9369Y93346D01*
X9439Y93377D01*
X9519Y93395D01*
X9610Y93402D01*
X9616Y93401D01*
X9624Y93401D01*
X9634Y93401D01*
X9645Y93401D01*
X9645Y92821D01*
X9705Y92828D01*
X9758Y92843D01*
X9803Y92864D01*
X9841Y92893D01*
X9871Y92928D01*
X9892Y92966D01*
X9905Y93009D01*
X9909Y93056D01*
X9907Y93091D01*
X9900Y93123D01*
X9888Y93153D01*
X9871Y93180D01*
X9849Y93204D01*
X9822Y93226D01*
X9788Y93245D01*
X9750Y93261D01*
X9750Y93261D01*
X24000Y79670D02*
X22926Y79254D01*
X22926Y79408D01*
X23706Y79687D01*
X23752Y79703D01*
X23797Y79718D01*
X23840Y79731D01*
X23882Y79743D01*
X23838Y79756D01*
X23794Y79770D01*
X23750Y79785D01*
X23706Y79801D01*
X22926Y80091D01*
X22926Y80236D01*
X24000Y79816D01*
X24000Y79670D01*
X24000Y79670D01*
X23750Y80797D02*
X23766Y80933D01*
X23823Y80913D01*
X23872Y80887D01*
X23915Y80854D01*
X23952Y80813D01*
X23980Y80767D01*
X24001Y80714D01*
X24013Y80655D01*
X24018Y80591D01*
X24011Y80510D01*
X23991Y80438D01*
X23958Y80374D01*
X23912Y80320D01*
X23855Y80276D01*
X23786Y80245D01*
X23707Y80226D01*
X23618Y80220D01*
X23525Y80226D01*
X23443Y80245D01*
X23373Y80277D01*
X23313Y80321D01*
X23266Y80375D01*
X23232Y80437D01*
X23211Y80507D01*
X23205Y80583D01*
X23206Y80594D01*
X23313Y80585D01*
X23317Y80541D01*
X23328Y80501D01*
X23347Y80465D01*
X23374Y80432D01*
X23407Y80405D01*
X23445Y80384D01*
X23488Y80370D01*
X23536Y80364D01*
X23536Y80364D01*
X23536Y80798D01*
X23490Y80792D01*
X23451Y80781D01*
X23417Y80767D01*
X23389Y80748D01*
X23356Y80714D01*
X23332Y80676D01*
X23318Y80633D01*
X23313Y80585D01*
X23206Y80594D01*
X23211Y80658D01*
X23231Y80725D01*
X23264Y80785D01*
X23311Y80838D01*
X23369Y80882D01*
X23439Y80912D01*
X23519Y80931D01*
X23610Y80937D01*
X23616Y80937D01*
X23624Y80937D01*
X23634Y80937D01*
X23645Y80936D01*
X23645Y80356D01*
X23705Y80364D01*
X23758Y80378D01*
X23803Y80400D01*
X23841Y80429D01*
X23871Y80463D01*
X23892Y80502D01*
X23905Y80545D01*
X23909Y80591D01*
X23907Y80626D01*
X23900Y80659D01*
X23888Y80688D01*
X23871Y80715D01*
X23849Y80740D01*
X23822Y80761D01*
X23788Y80780D01*
X23750Y80797D01*
X23750Y80797D01*
X24000Y81097D02*
X23222Y81097D01*
X23222Y81215D01*
X23340Y81215D01*
X23302Y81238D01*
X23271Y81259D01*
X23248Y81280D01*
X23231Y81299D01*
X23219Y81319D01*
X23211Y81340D01*
X23206Y81361D01*
X23205Y81384D01*
X23207Y81417D01*
X23215Y81451D01*
X23228Y81485D01*
X23247Y81519D01*
X23369Y81474D01*
X23357Y81450D01*
X23348Y81426D01*
X23343Y81402D01*
X23341Y81377D01*
X23342Y81356D01*
X23347Y81336D01*
X23355Y81317D01*
X23367Y81300D01*
X23381Y81284D01*
X23398Y81270D01*
X23417Y81259D01*
X23439Y81251D01*
X23475Y81241D01*
X23513Y81234D01*
X23552Y81230D01*
X23593Y81229D01*
X24000Y81229D01*
X24000Y81097D01*
X24000Y81097D01*
X23768Y81545D02*
X23747Y81675D01*
X23784Y81683D01*
X23817Y81696D01*
X23844Y81714D01*
X23867Y81737D01*
X23886Y81764D01*
X23899Y81797D01*
X23907Y81834D01*
X23909Y81877D01*
X23907Y81919D01*
X23900Y81956D01*
X23888Y81987D01*
X23872Y82012D01*
X23853Y82031D01*
X23832Y82045D01*
X23810Y82053D01*
X23785Y82056D01*
X23764Y82053D01*
X23745Y82046D01*
X23729Y82034D01*
X23715Y82017D01*
X23706Y81998D01*
X23695Y81969D01*
X23683Y81931D01*
X23670Y81882D01*
X23653Y81815D01*
X23636Y81759D01*
X23621Y81714D01*
X23607Y81681D01*
X23592Y81655D01*
X23575Y81632D01*
X23555Y81612D01*
X23533Y81596D01*
X23509Y81583D01*
X23483Y81574D01*
X23457Y81569D01*
X23429Y81567D01*
X23403Y81568D01*
X23379Y81573D01*
X23355Y81580D01*
X23332Y81591D01*
X23311Y81604D01*
X23292Y81619D01*
X23274Y81636D01*
X23259Y81656D01*
X23248Y81672D01*
X23238Y81692D01*
X23229Y81714D01*
X23220Y81739D01*
X23213Y81767D01*
X23209Y81795D01*
X23206Y81823D01*
X23205Y81853D01*
X23206Y81898D01*
X23211Y81939D01*
X23219Y81978D01*
X23231Y82014D01*
X23245Y82046D01*
X23262Y82074D01*
X23281Y82098D01*
X23302Y82116D01*
X23327Y82132D01*
X23355Y82144D01*
X23387Y82154D01*
X23423Y82162D01*
X23440Y82033D01*
X23412Y82026D01*
X23387Y82016D01*
X23365Y82001D01*
X23347Y81982D01*
X23332Y81959D01*
X23321Y81931D01*
X23315Y81899D01*
X23313Y81863D01*
X23315Y81821D01*
X23320Y81785D01*
X23330Y81756D01*
X23343Y81733D01*
X23359Y81716D01*
X23376Y81704D01*
X23394Y81697D01*
X23413Y81694D01*
X23426Y81695D01*
X23438Y81698D01*
X23449Y81704D01*
X23459Y81711D01*
X23470Y81720D01*
X23479Y81731D01*
X23487Y81745D01*
X23495Y81761D01*
X23499Y81776D01*
X23507Y81800D01*
X23516Y81834D01*
X23528Y81878D01*
X23546Y81942D01*
X23562Y81996D01*
X23577Y82040D01*
X23589Y82073D01*
X23603Y82099D01*
X23619Y82122D01*
X23637Y82142D01*
X23659Y82160D01*
X23683Y82173D01*
X23710Y82183D01*
X23739Y82189D01*
X23771Y82191D01*
X23804Y82189D01*
X23835Y82181D01*
X23866Y82169D01*
X23896Y82153D01*
X23923Y82131D01*
X23947Y82106D01*
X23968Y82076D01*
X23986Y82042D01*
X24000Y82004D01*
X24010Y81964D01*
X24016Y81922D01*
X24018Y81878D01*
X24014Y81806D01*
X24002Y81744D01*
X23982Y81691D01*
X23955Y81646D01*
X23919Y81610D01*
X23876Y81581D01*
X23826Y81560D01*
X23768Y81545D01*
X23768Y81545D01*
X24000Y82349D02*
X23222Y82349D01*
X23222Y82480D01*
X24000Y82480D01*
X24000Y82349D01*
X24000Y82349D01*
X23078Y82349D02*
X22926Y82349D01*
X22926Y82480D01*
X23078Y82480D01*
X23078Y82349D01*
X23078Y82349D01*
X23611Y82632D02*
X23510Y82639D01*
X23423Y82662D01*
X23350Y82700D01*
X23291Y82752D01*
X23253Y82805D01*
X23226Y82863D01*
X23210Y82927D01*
X23205Y82997D01*
X23211Y83073D01*
X23231Y83142D01*
X23264Y83204D01*
X23310Y83259D01*
X23367Y83303D01*
X23435Y83335D01*
X23512Y83354D01*
X23600Y83361D01*
X23671Y83358D01*
X23734Y83349D01*
X23789Y83335D01*
X23836Y83316D01*
X23877Y83291D01*
X23913Y83260D01*
X23944Y83225D01*
X23970Y83185D01*
X23991Y83141D01*
X24006Y83095D01*
X24015Y83047D01*
X24018Y82997D01*
X24017Y82988D01*
X23909Y82997D01*
X23905Y83044D01*
X23891Y83087D01*
X23867Y83125D01*
X23834Y83160D01*
X23792Y83189D01*
X23740Y83209D01*
X23678Y83221D01*
X23607Y83225D01*
X23539Y83221D01*
X23480Y83209D01*
X23430Y83188D01*
X23388Y83160D01*
X23356Y83125D01*
X23332Y83086D01*
X23318Y83043D01*
X23314Y82997D01*
X23318Y82949D01*
X23332Y82906D01*
X23355Y82867D01*
X23388Y82833D01*
X23429Y82804D01*
X23481Y82784D01*
X23541Y82772D01*
X23611Y82767D01*
X23611Y82767D01*
X23681Y82772D01*
X23742Y82784D01*
X23793Y82804D01*
X23835Y82833D01*
X23867Y82867D01*
X23891Y82906D01*
X23905Y82949D01*
X23909Y82997D01*
X24017Y82988D01*
X24011Y82919D01*
X23991Y82849D01*
X23959Y82787D01*
X23913Y82733D01*
X23855Y82689D01*
X23785Y82657D01*
X23704Y82638D01*
X23611Y82632D01*
X23611Y82632D01*
X24000Y83515D02*
X23222Y83515D01*
X23222Y83634D01*
X23333Y83634D01*
X23277Y83682D01*
X23237Y83739D01*
X23213Y83805D01*
X23205Y83881D01*
X23206Y83916D01*
X23211Y83949D01*
X23219Y83981D01*
X23230Y84011D01*
X23243Y84038D01*
X23259Y84062D01*
X23277Y84083D01*
X23296Y84099D01*
X23318Y84113D01*
X23341Y84124D01*
X23366Y84133D01*
X23394Y84140D01*
X23415Y84143D01*
X23444Y84146D01*
X23479Y84147D01*
X23522Y84147D01*
X24000Y84147D01*
X24000Y84016D01*
X23527Y84016D01*
X23489Y84015D01*
X23456Y84012D01*
X23429Y84007D01*
X23406Y84000D01*
X23387Y83991D01*
X23370Y83979D01*
X23356Y83964D01*
X23343Y83946D01*
X23332Y83925D01*
X23325Y83903D01*
X23320Y83879D01*
X23319Y83854D01*
X23322Y83813D01*
X23332Y83775D01*
X23349Y83740D01*
X23372Y83708D01*
X23405Y83682D01*
X23450Y83662D01*
X23506Y83651D01*
X23575Y83647D01*
X24000Y83647D01*
X24000Y83515D01*
X24000Y83515D01*
X24000Y85226D02*
X24000Y85094D01*
X23160Y85094D01*
X23183Y85069D01*
X23205Y85039D01*
X23228Y85006D01*
X23251Y84969D01*
X23272Y84932D01*
X23290Y84896D01*
X23306Y84862D01*
X23319Y84831D01*
X23191Y84831D01*
X23164Y84884D01*
X23134Y84934D01*
X23101Y84981D01*
X23065Y85024D01*
X23029Y85062D01*
X22993Y85095D01*
X22957Y85121D01*
X22922Y85141D01*
X22922Y85226D01*
X24000Y85226D01*
X24000Y85226D01*
X24000Y85638D02*
X23850Y85638D01*
X23850Y85788D01*
X24000Y85788D01*
X24000Y85638D01*
X24000Y85638D01*
X24000Y86477D02*
X24000Y86345D01*
X23160Y86345D01*
X23183Y86320D01*
X23205Y86290D01*
X23228Y86257D01*
X23251Y86220D01*
X23272Y86183D01*
X23290Y86147D01*
X23306Y86113D01*
X23319Y86082D01*
X23191Y86082D01*
X23164Y86135D01*
X23134Y86185D01*
X23101Y86232D01*
X23065Y86275D01*
X23029Y86313D01*
X22993Y86346D01*
X22957Y86372D01*
X22922Y86392D01*
X22922Y86477D01*
X24000Y86477D01*
X24000Y86477D01*
G37*
M02*