<?xml version="1.0" standalone="no"?>
<!DOCTYPE svg PUBLIC "-//W3C//DTD SVG 1.1//EN" "http://www.w3.org/Graphics/SVG/1.1/DTD/svg11.dtd">
<svg width="41mm" height="129mm" viewBox="0 -129 41 129" xmlns="http://www.w3.org/2000/svg" version="1.1">
<title>OpenSCAD Model</title>
<path d="
M 40.3,-128.5 L 0,-128.5 L 0,-0 L 40.3,-0 z
M 32.7432,-123.908 L 32.5878,-123.931 L 32.4355,-123.969 L 32.2877,-124.022 L 32.1458,-124.089 L 32.0111,-124.17
 L 31.885,-124.263 L 31.7686,-124.369 L 31.6632,-124.485 L 31.5696,-124.611 L 31.4889,-124.746 L 31.4218,-124.888
 L 31.3689,-125.036 L 31.3307,-125.188 L 31.3077,-125.343 L 31.3,-125.5 L 31.3077,-125.657 L 31.3307,-125.812
 L 31.3689,-125.964 L 31.4218,-126.112 L 31.4889,-126.254 L 31.5696,-126.389 L 31.6632,-126.515 L 31.7686,-126.631
 L 31.885,-126.737 L 32.0111,-126.83 L 32.1458,-126.911 L 32.2877,-126.978 L 32.4355,-127.031 L 32.5878,-127.069
 L 32.7432,-127.092 L 32.9,-127.1 L 33.0568,-127.092 L 33.2121,-127.069 L 33.3644,-127.031 L 33.5123,-126.978
 L 33.6542,-126.911 L 33.7889,-126.83 L 33.915,-126.737 L 34.0314,-126.631 L 34.1368,-126.515 L 34.2303,-126.389
 L 34.3111,-126.254 L 34.3782,-126.112 L 34.4311,-125.964 L 34.4693,-125.812 L 34.4923,-125.657 L 34.5,-125.5
 L 34.4923,-125.343 L 34.4693,-125.188 L 34.4311,-125.036 L 34.3782,-124.888 L 34.3111,-124.746 L 34.2303,-124.611
 L 34.1368,-124.485 L 34.0314,-124.369 L 33.915,-124.263 L 33.7889,-124.17 L 33.6542,-124.089 L 33.5123,-124.022
 L 33.3644,-123.969 L 33.2121,-123.931 L 33.0568,-123.908 L 32.9,-123.9 z
M 7.75693,-106.017 L 7.41718,-106.067 L 7.084,-106.151 L 6.7606,-106.266 L 6.4501,-106.413 L 6.1555,-106.59
 L 5.87962,-106.794 L 5.62512,-107.025 L 5.39445,-107.28 L 5.18985,-107.555 L 5.01328,-107.85 L 4.86641,-108.161
 L 4.7507,-108.484 L 4.66724,-108.817 L 4.61685,-109.157 L 4.59999,-109.5 L 4.61685,-109.843 L 4.66724,-110.183
 L 4.7507,-110.516 L 4.86641,-110.839 L 5.01328,-111.15 L 5.18985,-111.444 L 5.39445,-111.72 L 5.62512,-111.975
 L 5.87962,-112.206 L 6.1555,-112.41 L 6.4501,-112.587 L 6.7606,-112.734 L 7.084,-112.849 L 7.41718,-112.933
 L 7.75693,-112.983 L 8.09999,-113 L 8.44305,-112.983 L 8.78281,-112.933 L 9.11598,-112.849 L 9.43938,-112.734
 L 9.74988,-112.587 L 10.0445,-112.41 L 10.3204,-112.206 L 10.5749,-111.975 L 10.8055,-111.72 L 11.0101,-111.444
 L 11.1867,-111.15 L 11.3336,-110.839 L 11.4493,-110.516 L 11.5327,-110.183 L 11.5831,-109.843 L 11.6,-109.5
 L 11.5831,-109.157 L 11.5327,-108.817 L 11.4493,-108.484 L 11.3336,-108.161 L 11.1867,-107.85 L 11.0101,-107.555
 L 10.8055,-107.28 L 10.5749,-107.025 L 10.3204,-106.794 L 10.0445,-106.59 L 9.74988,-106.413 L 9.43938,-106.266
 L 9.11598,-106.151 L 8.78281,-106.067 L 8.44305,-106.017 L 8.09999,-106 z
M 28.2814,-94.0156 L 27.9659,-94.0624 L 27.6566,-94.1399 L 27.3563,-94.2474 L 27.0679,-94.3837 L 26.7944,-94.5477
 L 26.5382,-94.7377 L 26.3019,-94.9519 L 26.0877,-95.1882 L 25.8977,-95.4444 L 25.7337,-95.718 L 25.5974,-96.0063
 L 25.4899,-96.3066 L 25.4124,-96.616 L 25.3656,-96.9314 L 25.35,-97.25 L 25.3656,-97.5685 L 25.4124,-97.884
 L 25.4899,-98.1934 L 25.5974,-98.4937 L 25.7337,-98.782 L 25.8977,-99.0556 L 26.0877,-99.3118 L 26.3019,-99.5481
 L 26.5382,-99.7623 L 26.7944,-99.9523 L 27.0679,-100.116 L 27.3563,-100.253 L 27.6566,-100.36 L 27.9659,-100.438
 L 28.2814,-100.484 L 28.6,-100.5 L 28.9185,-100.484 L 29.234,-100.438 L 29.5434,-100.36 L 29.8437,-100.253
 L 30.132,-100.116 L 30.4056,-99.9523 L 30.6618,-99.7623 L 30.8981,-99.5481 L 31.1123,-99.3118 L 31.3023,-99.0556
 L 31.4662,-98.782 L 31.6026,-98.4937 L 31.7101,-98.1934 L 31.7876,-97.884 L 31.8343,-97.5685 L 31.85,-97.25
 L 31.8343,-96.9314 L 31.7876,-96.616 L 31.7101,-96.3066 L 31.6026,-96.0063 L 31.4662,-95.718 L 31.3023,-95.4444
 L 31.1123,-95.1882 L 30.8981,-94.9519 L 30.6618,-94.7377 L 30.4056,-94.5477 L 30.132,-94.3837 L 29.8437,-94.2474
 L 29.5434,-94.1399 L 29.234,-94.0624 L 28.9185,-94.0156 L 28.6,-94 z
M 7.75693,-81.5168 L 7.41718,-81.5672 L 7.084,-81.6507 L 6.7606,-81.7664 L 6.4501,-81.9133 L 6.1555,-82.0898
 L 5.87962,-82.2944 L 5.62512,-82.5251 L 5.39445,-82.7796 L 5.18985,-83.0555 L 5.01328,-83.3501 L 4.86641,-83.6606
 L 4.7507,-83.984 L 4.66724,-84.3172 L 4.61685,-84.6569 L 4.59999,-85 L 4.61685,-85.343 L 4.66724,-85.6828
 L 4.7507,-86.016 L 4.86641,-86.3394 L 5.01328,-86.6499 L 5.18985,-86.9445 L 5.39445,-87.2204 L 5.62512,-87.4749
 L 5.87962,-87.7055 L 6.1555,-87.9101 L 6.4501,-88.0867 L 6.7606,-88.2336 L 7.084,-88.3493 L 7.41718,-88.4327
 L 7.75693,-88.4831 L 8.09999,-88.5 L 8.44305,-88.4831 L 8.78281,-88.4327 L 9.11598,-88.3493 L 9.43938,-88.2336
 L 9.74988,-88.0867 L 10.0445,-87.9101 L 10.3204,-87.7055 L 10.5749,-87.4749 L 10.8055,-87.2204 L 11.0101,-86.9445
 L 11.1867,-86.6499 L 11.3336,-86.3394 L 11.4493,-86.016 L 11.5327,-85.6828 L 11.5831,-85.343 L 11.6,-85
 L 11.5831,-84.6569 L 11.5327,-84.3172 L 11.4493,-83.984 L 11.3336,-83.6606 L 11.1867,-83.3501 L 11.0101,-83.0555
 L 10.8055,-82.7796 L 10.5749,-82.5251 L 10.3204,-82.2944 L 10.0445,-82.0898 L 9.74988,-81.9133 L 9.43938,-81.7664
 L 9.11598,-81.6507 L 8.78281,-81.5672 L 8.44305,-81.5168 L 8.09999,-81.5 z
M 28.2814,-69.5156 L 27.9659,-69.5624 L 27.6566,-69.6399 L 27.3563,-69.7474 L 27.0679,-69.8837 L 26.7944,-70.0477
 L 26.5382,-70.2377 L 26.3019,-70.4519 L 26.0877,-70.6882 L 25.8977,-70.9444 L 25.7337,-71.218 L 25.5974,-71.5063
 L 25.4899,-71.8066 L 25.4124,-72.116 L 25.3656,-72.4314 L 25.35,-72.75 L 25.3656,-73.0685 L 25.4124,-73.384
 L 25.4899,-73.6934 L 25.5974,-73.9937 L 25.7337,-74.282 L 25.8977,-74.5556 L 26.0877,-74.8118 L 26.3019,-75.0481
 L 26.5382,-75.2623 L 26.7944,-75.4523 L 27.0679,-75.6162 L 27.3563,-75.7526 L 27.6566,-75.86 L 27.9659,-75.9375
 L 28.2814,-75.9843 L 28.6,-76 L 28.9185,-75.9843 L 29.234,-75.9375 L 29.5434,-75.86 L 29.8437,-75.7526
 L 30.132,-75.6162 L 30.4056,-75.4523 L 30.6618,-75.2623 L 30.8981,-75.0481 L 31.1123,-74.8118 L 31.3023,-74.5556
 L 31.4662,-74.282 L 31.6026,-73.9937 L 31.7101,-73.6934 L 31.7876,-73.384 L 31.8343,-73.0685 L 31.85,-72.75
 L 31.8343,-72.4314 L 31.7876,-72.116 L 31.7101,-71.8066 L 31.6026,-71.5063 L 31.4662,-71.218 L 31.3023,-70.9444
 L 31.1123,-70.6882 L 30.8981,-70.4519 L 30.6618,-70.2377 L 30.4056,-70.0477 L 30.132,-69.8837 L 29.8437,-69.7474
 L 29.5434,-69.6399 L 29.234,-69.5624 L 28.9185,-69.5156 L 28.6,-69.5 z
M 7.75693,-57.0168 L 7.41718,-57.0672 L 7.084,-57.1507 L 6.7606,-57.2664 L 6.4501,-57.4133 L 6.1555,-57.5898
 L 5.87962,-57.7944 L 5.62512,-58.0251 L 5.39445,-58.2796 L 5.18985,-58.5555 L 5.01328,-58.8501 L 4.86641,-59.1606
 L 4.7507,-59.484 L 4.66724,-59.8172 L 4.61685,-60.1569 L 4.59999,-60.5 L 4.61685,-60.843 L 4.66724,-61.1828
 L 4.7507,-61.516 L 4.86641,-61.8394 L 5.01328,-62.1499 L 5.18985,-62.4445 L 5.39445,-62.7204 L 5.62512,-62.9749
 L 5.87962,-63.2055 L 6.1555,-63.4101 L 6.4501,-63.5867 L 6.7606,-63.7336 L 7.084,-63.8493 L 7.41718,-63.9327
 L 7.75693,-63.9831 L 8.09999,-64 L 8.44305,-63.9831 L 8.78281,-63.9327 L 9.11598,-63.8493 L 9.43938,-63.7336
 L 9.74988,-63.5867 L 10.0445,-63.4101 L 10.3204,-63.2055 L 10.5749,-62.9749 L 10.8055,-62.7204 L 11.0101,-62.4445
 L 11.1867,-62.1499 L 11.3336,-61.8394 L 11.4493,-61.516 L 11.5327,-61.1828 L 11.5831,-60.843 L 11.6,-60.5
 L 11.5831,-60.1569 L 11.5327,-59.8172 L 11.4493,-59.484 L 11.3336,-59.1606 L 11.1867,-58.8501 L 11.0101,-58.5555
 L 10.8055,-58.2796 L 10.5749,-58.0251 L 10.3204,-57.7944 L 10.0445,-57.5898 L 9.74988,-57.4133 L 9.43938,-57.2664
 L 9.11598,-57.1507 L 8.78281,-57.0672 L 8.44305,-57.0168 L 8.09999,-57 z
M 28.2814,-45.0156 L 27.9659,-45.0624 L 27.6566,-45.1399 L 27.3563,-45.2474 L 27.0679,-45.3837 L 26.7944,-45.5477
 L 26.5382,-45.7377 L 26.3019,-45.9519 L 26.0877,-46.1882 L 25.8977,-46.4444 L 25.7337,-46.718 L 25.5974,-47.0063
 L 25.4899,-47.3066 L 25.4124,-47.616 L 25.3656,-47.9314 L 25.35,-48.25 L 25.3656,-48.5685 L 25.4124,-48.884
 L 25.4899,-49.1934 L 25.5974,-49.4937 L 25.7337,-49.782 L 25.8977,-50.0556 L 26.0877,-50.3118 L 26.3019,-50.5481
 L 26.5382,-50.7623 L 26.7944,-50.9523 L 27.0679,-51.1162 L 27.3563,-51.2526 L 27.6566,-51.36 L 27.9659,-51.4375
 L 28.2814,-51.4843 L 28.6,-51.5 L 28.9185,-51.4843 L 29.234,-51.4375 L 29.5434,-51.36 L 29.8437,-51.2526
 L 30.132,-51.1162 L 30.4056,-50.9523 L 30.6618,-50.7623 L 30.8981,-50.5481 L 31.1123,-50.3118 L 31.3023,-50.0556
 L 31.4662,-49.782 L 31.6026,-49.4937 L 31.7101,-49.1934 L 31.7876,-48.884 L 31.8343,-48.5685 L 31.85,-48.25
 L 31.8343,-47.9314 L 31.7876,-47.616 L 31.7101,-47.3066 L 31.6026,-47.0063 L 31.4662,-46.718 L 31.3023,-46.4444
 L 31.1123,-46.1882 L 30.8981,-45.9519 L 30.6618,-45.7377 L 30.4056,-45.5477 L 30.132,-45.3837 L 29.8437,-45.2474
 L 29.5434,-45.1399 L 29.234,-45.0624 L 28.9185,-45.0156 L 28.6,-45 z
M 7.75693,-32.5168 L 7.41718,-32.5672 L 7.084,-32.6507 L 6.7606,-32.7664 L 6.4501,-32.9133 L 6.1555,-33.0898
 L 5.87962,-33.2944 L 5.62512,-33.5251 L 5.39445,-33.7796 L 5.18985,-34.0555 L 5.01328,-34.3501 L 4.86641,-34.6606
 L 4.7507,-34.984 L 4.66724,-35.3172 L 4.61685,-35.6569 L 4.59999,-36 L 4.61685,-36.343 L 4.66724,-36.6828
 L 4.7507,-37.016 L 4.86641,-37.3394 L 5.01328,-37.6499 L 5.18985,-37.9445 L 5.39445,-38.2204 L 5.62512,-38.4749
 L 5.87962,-38.7055 L 6.1555,-38.9101 L 6.4501,-39.0867 L 6.7606,-39.2336 L 7.084,-39.3493 L 7.41718,-39.4327
 L 7.75693,-39.4831 L 8.09999,-39.5 L 8.44305,-39.4831 L 8.78281,-39.4327 L 9.11598,-39.3493 L 9.43938,-39.2336
 L 9.74988,-39.0867 L 10.0445,-38.9101 L 10.3204,-38.7055 L 10.5749,-38.4749 L 10.8055,-38.2204 L 11.0101,-37.9445
 L 11.1867,-37.6499 L 11.3336,-37.3394 L 11.4493,-37.016 L 11.5327,-36.6828 L 11.5831,-36.343 L 11.6,-36
 L 11.5831,-35.6569 L 11.5327,-35.3172 L 11.4493,-34.984 L 11.3336,-34.6606 L 11.1867,-34.3501 L 11.0101,-34.0555
 L 10.8055,-33.7796 L 10.5749,-33.5251 L 10.3204,-33.2944 L 10.0445,-33.0898 L 9.74988,-32.9133 L 9.43938,-32.7664
 L 9.11598,-32.6507 L 8.78281,-32.5672 L 8.44305,-32.5168 L 8.09999,-32.5 z
M 28.2814,-20.5156 L 27.9659,-20.5624 L 27.6566,-20.6399 L 27.3563,-20.7474 L 27.0679,-20.8837 L 26.7944,-21.0477
 L 26.5382,-21.2377 L 26.3019,-21.4519 L 26.0877,-21.6882 L 25.8977,-21.9444 L 25.7337,-22.218 L 25.5974,-22.5063
 L 25.4899,-22.8066 L 25.4124,-23.116 L 25.3656,-23.4314 L 25.35,-23.75 L 25.3656,-24.0685 L 25.4124,-24.384
 L 25.4899,-24.6934 L 25.5974,-24.9937 L 25.7337,-25.282 L 25.8977,-25.5556 L 26.0877,-25.8118 L 26.3019,-26.0481
 L 26.5382,-26.2623 L 26.7944,-26.4523 L 27.0679,-26.6162 L 27.3563,-26.7526 L 27.6566,-26.86 L 27.9659,-26.9375
 L 28.2814,-26.9843 L 28.6,-27 L 28.9185,-26.9843 L 29.234,-26.9375 L 29.5434,-26.86 L 29.8437,-26.7526
 L 30.132,-26.6162 L 30.4056,-26.4523 L 30.6618,-26.2623 L 30.8981,-26.0481 L 31.1123,-25.8118 L 31.3023,-25.5556
 L 31.4662,-25.282 L 31.6026,-24.9937 L 31.7101,-24.6934 L 31.7876,-24.384 L 31.8343,-24.0685 L 31.85,-23.75
 L 31.8343,-23.4314 L 31.7876,-23.116 L 31.7101,-22.8066 L 31.6026,-22.5063 L 31.4662,-22.218 L 31.3023,-21.9444
 L 31.1123,-21.6882 L 30.8981,-21.4519 L 30.6618,-21.2377 L 30.4056,-21.0477 L 30.132,-20.8837 L 29.8437,-20.7474
 L 29.5434,-20.6399 L 29.234,-20.5624 L 28.9185,-20.5156 L 28.6,-20.5 z
M 7.34317,-1.4077 L 7.18785,-1.43074 L 7.03554,-1.46889 L 6.8877,-1.52179 L 6.74576,-1.58891 L 6.61108,-1.66965
 L 6.48497,-1.76317 L 6.36862,-1.86862 L 6.26317,-1.98497 L 6.16965,-2.11108 L 6.08891,-2.24576 L 6.02179,-2.3877
 L 5.96889,-2.53554 L 5.93074,-2.68785 L 5.9077,-2.84317 L 5.89999,-3 L 5.9077,-3.15681 L 5.93074,-3.31213
 L 5.96889,-3.46445 L 6.02179,-3.61229 L 6.08891,-3.75423 L 6.16965,-3.8889 L 6.26317,-4.01501 L 6.36862,-4.13136
 L 6.48497,-4.23682 L 6.61108,-4.33034 L 6.74576,-4.41107 L 6.8877,-4.4782 L 7.03554,-4.5311 L 7.18785,-4.56924
 L 7.34317,-4.59229 L 7.5,-4.59999 L 7.65681,-4.59229 L 7.81213,-4.56924 L 7.96445,-4.5311 L 8.11229,-4.4782
 L 8.25423,-4.41107 L 8.3889,-4.33034 L 8.51501,-4.23682 L 8.63136,-4.13136 L 8.73682,-4.01501 L 8.83034,-3.8889
 L 8.91107,-3.75423 L 8.9782,-3.61229 L 9.0311,-3.46445 L 9.06924,-3.31213 L 9.09229,-3.15681 L 9.09999,-3
 L 9.09229,-2.84317 L 9.06924,-2.68785 L 9.0311,-2.53554 L 8.9782,-2.3877 L 8.91107,-2.24576 L 8.83034,-2.11108
 L 8.73682,-1.98497 L 8.63136,-1.86862 L 8.51501,-1.76317 L 8.3889,-1.66965 L 8.25423,-1.58891 L 8.11229,-1.52179
 L 7.96445,-1.46889 L 7.81213,-1.43074 L 7.65681,-1.4077 L 7.5,-1.39999 z
" stroke="black" fill="lightgray" stroke-width="0.5"/>
</svg>
