<?xml version="1.0" standalone="no"?>
<!DOCTYPE svg PUBLIC "-//W3C//DTD SVG 1.1//EN" "http://www.w3.org/Graphics/SVG/1.1/DTD/svg11.dtd">
<svg width="41mm" height="129mm" viewBox="0 -129 41 129" xmlns="http://www.w3.org/2000/svg" version="1.1">
<title>OpenSCAD Model</title>
<path d="
M 40.3,-128.5 L 0,-128.5 L 0,-0 L 40.3,-0 z
M 32.7432,-123.908 L 32.5878,-123.931 L 32.4355,-123.969 L 32.2877,-124.022 L 32.1458,-124.089 L 32.0111,-124.17
 L 31.885,-124.263 L 31.7686,-124.369 L 31.6632,-124.485 L 31.5696,-124.611 L 31.4889,-124.746 L 31.4218,-124.888
 L 31.3689,-125.036 L 31.3307,-125.188 L 31.3077,-125.343 L 31.3,-125.5 L 31.3077,-125.657 L 31.3307,-125.812
 L 31.3689,-125.964 L 31.4218,-126.112 L 31.4889,-126.254 L 31.5696,-126.389 L 31.6632,-126.515 L 31.7686,-126.631
 L 31.885,-126.737 L 32.0111,-126.83 L 32.1458,-126.911 L 32.2877,-126.978 L 32.4355,-127.031 L 32.5878,-127.069
 L 32.7432,-127.092 L 32.9,-127.1 L 33.0568,-127.092 L 33.2121,-127.069 L 33.3644,-127.031 L 33.5123,-126.978
 L 33.6542,-126.911 L 33.7889,-126.83 L 33.915,-126.737 L 34.0314,-126.631 L 34.1368,-126.515 L 34.2303,-126.389
 L 34.3111,-126.254 L 34.3782,-126.112 L 34.4311,-125.964 L 34.4693,-125.812 L 34.4923,-125.657 L 34.5,-125.5
 L 34.4923,-125.343 L 34.4693,-125.188 L 34.4311,-125.036 L 34.3782,-124.888 L 34.3111,-124.746 L 34.2303,-124.611
 L 34.1368,-124.485 L 34.0314,-124.369 L 33.915,-124.263 L 33.7889,-124.17 L 33.6542,-124.089 L 33.5123,-124.022
 L 33.3644,-123.969 L 33.2121,-123.931 L 33.0568,-123.908 L 32.9,-123.9 z
M 9.25693,-106.017 L 8.91718,-106.067 L 8.584,-106.151 L 8.2606,-106.266 L 7.9501,-106.413 L 7.6555,-106.59
 L 7.37962,-106.794 L 7.12512,-107.025 L 6.89445,-107.28 L 6.68985,-107.555 L 6.51328,-107.85 L 6.36641,-108.161
 L 6.2507,-108.484 L 6.16724,-108.817 L 6.11685,-109.157 L 6.09999,-109.5 L 6.11685,-109.843 L 6.16724,-110.183
 L 6.2507,-110.516 L 6.36641,-110.839 L 6.51328,-111.15 L 6.68985,-111.444 L 6.89445,-111.72 L 7.12512,-111.975
 L 7.37962,-112.206 L 7.6555,-112.41 L 7.9501,-112.587 L 8.2606,-112.734 L 8.584,-112.849 L 8.91718,-112.933
 L 9.25693,-112.983 L 9.59999,-113 L 9.94305,-112.983 L 10.2828,-112.933 L 10.616,-112.849 L 10.9394,-112.734
 L 11.2499,-112.587 L 11.5445,-112.41 L 11.8204,-112.206 L 12.0749,-111.975 L 12.3055,-111.72 L 12.5101,-111.444
 L 12.6867,-111.15 L 12.8336,-110.839 L 12.9493,-110.516 L 13.0327,-110.183 L 13.0831,-109.843 L 13.1,-109.5
 L 13.0831,-109.157 L 13.0327,-108.817 L 12.9493,-108.484 L 12.8336,-108.161 L 12.6867,-107.85 L 12.5101,-107.555
 L 12.3055,-107.28 L 12.0749,-107.025 L 11.8204,-106.794 L 11.5445,-106.59 L 11.2499,-106.413 L 10.9394,-106.266
 L 10.616,-106.151 L 10.2828,-106.067 L 9.94305,-106.017 L 9.59999,-106 z
M 28.7814,-94.0156 L 28.4659,-94.0624 L 28.1566,-94.1399 L 27.8563,-94.2474 L 27.5679,-94.3837 L 27.2944,-94.5477
 L 27.0382,-94.7377 L 26.8019,-94.9519 L 26.5877,-95.1882 L 26.3977,-95.4444 L 26.2337,-95.718 L 26.0974,-96.0063
 L 25.9899,-96.3066 L 25.9124,-96.616 L 25.8656,-96.9314 L 25.85,-97.25 L 25.8656,-97.5685 L 25.9124,-97.884
 L 25.9899,-98.1934 L 26.0974,-98.4937 L 26.2337,-98.782 L 26.3977,-99.0556 L 26.5877,-99.3118 L 26.8019,-99.5481
 L 27.0382,-99.7623 L 27.2944,-99.9523 L 27.5679,-100.116 L 27.8563,-100.253 L 28.1566,-100.36 L 28.4659,-100.438
 L 28.7814,-100.484 L 29.1,-100.5 L 29.4185,-100.484 L 29.734,-100.438 L 30.0434,-100.36 L 30.3437,-100.253
 L 30.632,-100.116 L 30.9056,-99.9523 L 31.1618,-99.7623 L 31.3981,-99.5481 L 31.6123,-99.3118 L 31.8023,-99.0556
 L 31.9662,-98.782 L 32.1026,-98.4937 L 32.2101,-98.1934 L 32.2876,-97.884 L 32.3343,-97.5685 L 32.35,-97.25
 L 32.3343,-96.9314 L 32.2876,-96.616 L 32.2101,-96.3066 L 32.1026,-96.0063 L 31.9662,-95.718 L 31.8023,-95.4444
 L 31.6123,-95.1882 L 31.3981,-94.9519 L 31.1618,-94.7377 L 30.9056,-94.5477 L 30.632,-94.3837 L 30.3437,-94.2474
 L 30.0434,-94.1399 L 29.734,-94.0624 L 29.4185,-94.0156 L 29.1,-94 z
M 9.25693,-81.5168 L 8.91718,-81.5672 L 8.584,-81.6507 L 8.2606,-81.7664 L 7.9501,-81.9133 L 7.6555,-82.0898
 L 7.37962,-82.2944 L 7.12512,-82.5251 L 6.89445,-82.7796 L 6.68985,-83.0555 L 6.51328,-83.3501 L 6.36641,-83.6606
 L 6.2507,-83.984 L 6.16724,-84.3172 L 6.11685,-84.6569 L 6.09999,-85 L 6.11685,-85.343 L 6.16724,-85.6828
 L 6.2507,-86.016 L 6.36641,-86.3394 L 6.51328,-86.6499 L 6.68985,-86.9445 L 6.89445,-87.2204 L 7.12512,-87.4749
 L 7.37962,-87.7055 L 7.6555,-87.9101 L 7.9501,-88.0867 L 8.2606,-88.2336 L 8.584,-88.3493 L 8.91718,-88.4327
 L 9.25693,-88.4831 L 9.59999,-88.5 L 9.94305,-88.4831 L 10.2828,-88.4327 L 10.616,-88.3493 L 10.9394,-88.2336
 L 11.2499,-88.0867 L 11.5445,-87.9101 L 11.8204,-87.7055 L 12.0749,-87.4749 L 12.3055,-87.2204 L 12.5101,-86.9445
 L 12.6867,-86.6499 L 12.8336,-86.3394 L 12.9493,-86.016 L 13.0327,-85.6828 L 13.0831,-85.343 L 13.1,-85
 L 13.0831,-84.6569 L 13.0327,-84.3172 L 12.9493,-83.984 L 12.8336,-83.6606 L 12.6867,-83.3501 L 12.5101,-83.0555
 L 12.3055,-82.7796 L 12.0749,-82.5251 L 11.8204,-82.2944 L 11.5445,-82.0898 L 11.2499,-81.9133 L 10.9394,-81.7664
 L 10.616,-81.6507 L 10.2828,-81.5672 L 9.94305,-81.5168 L 9.59999,-81.5 z
M 28.7814,-69.5156 L 28.4659,-69.5624 L 28.1566,-69.6399 L 27.8563,-69.7474 L 27.5679,-69.8837 L 27.2944,-70.0477
 L 27.0382,-70.2377 L 26.8019,-70.4519 L 26.5877,-70.6882 L 26.3977,-70.9444 L 26.2337,-71.218 L 26.0974,-71.5063
 L 25.9899,-71.8066 L 25.9124,-72.116 L 25.8656,-72.4314 L 25.85,-72.75 L 25.8656,-73.0685 L 25.9124,-73.384
 L 25.9899,-73.6934 L 26.0974,-73.9937 L 26.2337,-74.282 L 26.3977,-74.5556 L 26.5877,-74.8118 L 26.8019,-75.0481
 L 27.0382,-75.2623 L 27.2944,-75.4523 L 27.5679,-75.6162 L 27.8563,-75.7526 L 28.1566,-75.86 L 28.4659,-75.9375
 L 28.7814,-75.9843 L 29.1,-76 L 29.4185,-75.9843 L 29.734,-75.9375 L 30.0434,-75.86 L 30.3437,-75.7526
 L 30.632,-75.6162 L 30.9056,-75.4523 L 31.1618,-75.2623 L 31.3981,-75.0481 L 31.6123,-74.8118 L 31.8023,-74.5556
 L 31.9662,-74.282 L 32.1026,-73.9937 L 32.2101,-73.6934 L 32.2876,-73.384 L 32.3343,-73.0685 L 32.35,-72.75
 L 32.3343,-72.4314 L 32.2876,-72.116 L 32.2101,-71.8066 L 32.1026,-71.5063 L 31.9662,-71.218 L 31.8023,-70.9444
 L 31.6123,-70.6882 L 31.3981,-70.4519 L 31.1618,-70.2377 L 30.9056,-70.0477 L 30.632,-69.8837 L 30.3437,-69.7474
 L 30.0434,-69.6399 L 29.734,-69.5624 L 29.4185,-69.5156 L 29.1,-69.5 z
M 9.25693,-57.0168 L 8.91718,-57.0672 L 8.584,-57.1507 L 8.2606,-57.2664 L 7.9501,-57.4133 L 7.6555,-57.5898
 L 7.37962,-57.7944 L 7.12512,-58.0251 L 6.89445,-58.2796 L 6.68985,-58.5555 L 6.51328,-58.8501 L 6.36641,-59.1606
 L 6.2507,-59.484 L 6.16724,-59.8172 L 6.11685,-60.1569 L 6.09999,-60.5 L 6.11685,-60.843 L 6.16724,-61.1828
 L 6.2507,-61.516 L 6.36641,-61.8394 L 6.51328,-62.1499 L 6.68985,-62.4445 L 6.89445,-62.7204 L 7.12512,-62.9749
 L 7.37962,-63.2055 L 7.6555,-63.4101 L 7.9501,-63.5867 L 8.2606,-63.7336 L 8.584,-63.8493 L 8.91718,-63.9327
 L 9.25693,-63.9831 L 9.59999,-64 L 9.94305,-63.9831 L 10.2828,-63.9327 L 10.616,-63.8493 L 10.9394,-63.7336
 L 11.2499,-63.5867 L 11.5445,-63.4101 L 11.8204,-63.2055 L 12.0749,-62.9749 L 12.3055,-62.7204 L 12.5101,-62.4445
 L 12.6867,-62.1499 L 12.8336,-61.8394 L 12.9493,-61.516 L 13.0327,-61.1828 L 13.0831,-60.843 L 13.1,-60.5
 L 13.0831,-60.1569 L 13.0327,-59.8172 L 12.9493,-59.484 L 12.8336,-59.1606 L 12.6867,-58.8501 L 12.5101,-58.5555
 L 12.3055,-58.2796 L 12.0749,-58.0251 L 11.8204,-57.7944 L 11.5445,-57.5898 L 11.2499,-57.4133 L 10.9394,-57.2664
 L 10.616,-57.1507 L 10.2828,-57.0672 L 9.94305,-57.0168 L 9.59999,-57 z
M 28.7814,-45.0156 L 28.4659,-45.0624 L 28.1566,-45.1399 L 27.8563,-45.2474 L 27.5679,-45.3837 L 27.2944,-45.5477
 L 27.0382,-45.7377 L 26.8019,-45.9519 L 26.5877,-46.1882 L 26.3977,-46.4444 L 26.2337,-46.718 L 26.0974,-47.0063
 L 25.9899,-47.3066 L 25.9124,-47.616 L 25.8656,-47.9314 L 25.85,-48.25 L 25.8656,-48.5685 L 25.9124,-48.884
 L 25.9899,-49.1934 L 26.0974,-49.4937 L 26.2337,-49.782 L 26.3977,-50.0556 L 26.5877,-50.3118 L 26.8019,-50.5481
 L 27.0382,-50.7623 L 27.2944,-50.9523 L 27.5679,-51.1162 L 27.8563,-51.2526 L 28.1566,-51.36 L 28.4659,-51.4375
 L 28.7814,-51.4843 L 29.1,-51.5 L 29.4185,-51.4843 L 29.734,-51.4375 L 30.0434,-51.36 L 30.3437,-51.2526
 L 30.632,-51.1162 L 30.9056,-50.9523 L 31.1618,-50.7623 L 31.3981,-50.5481 L 31.6123,-50.3118 L 31.8023,-50.0556
 L 31.9662,-49.782 L 32.1026,-49.4937 L 32.2101,-49.1934 L 32.2876,-48.884 L 32.3343,-48.5685 L 32.35,-48.25
 L 32.3343,-47.9314 L 32.2876,-47.616 L 32.2101,-47.3066 L 32.1026,-47.0063 L 31.9662,-46.718 L 31.8023,-46.4444
 L 31.6123,-46.1882 L 31.3981,-45.9519 L 31.1618,-45.7377 L 30.9056,-45.5477 L 30.632,-45.3837 L 30.3437,-45.2474
 L 30.0434,-45.1399 L 29.734,-45.0624 L 29.4185,-45.0156 L 29.1,-45 z
M 9.25693,-32.5168 L 8.91718,-32.5672 L 8.584,-32.6507 L 8.2606,-32.7664 L 7.9501,-32.9133 L 7.6555,-33.0898
 L 7.37962,-33.2944 L 7.12512,-33.5251 L 6.89445,-33.7796 L 6.68985,-34.0555 L 6.51328,-34.3501 L 6.36641,-34.6606
 L 6.2507,-34.984 L 6.16724,-35.3172 L 6.11685,-35.6569 L 6.09999,-36 L 6.11685,-36.343 L 6.16724,-36.6828
 L 6.2507,-37.016 L 6.36641,-37.3394 L 6.51328,-37.6499 L 6.68985,-37.9445 L 6.89445,-38.2204 L 7.12512,-38.4749
 L 7.37962,-38.7055 L 7.6555,-38.9101 L 7.9501,-39.0867 L 8.2606,-39.2336 L 8.584,-39.3493 L 8.91718,-39.4327
 L 9.25693,-39.4831 L 9.59999,-39.5 L 9.94305,-39.4831 L 10.2828,-39.4327 L 10.616,-39.3493 L 10.9394,-39.2336
 L 11.2499,-39.0867 L 11.5445,-38.9101 L 11.8204,-38.7055 L 12.0749,-38.4749 L 12.3055,-38.2204 L 12.5101,-37.9445
 L 12.6867,-37.6499 L 12.8336,-37.3394 L 12.9493,-37.016 L 13.0327,-36.6828 L 13.0831,-36.343 L 13.1,-36
 L 13.0831,-35.6569 L 13.0327,-35.3172 L 12.9493,-34.984 L 12.8336,-34.6606 L 12.6867,-34.3501 L 12.5101,-34.0555
 L 12.3055,-33.7796 L 12.0749,-33.5251 L 11.8204,-33.2944 L 11.5445,-33.0898 L 11.2499,-32.9133 L 10.9394,-32.7664
 L 10.616,-32.6507 L 10.2828,-32.5672 L 9.94305,-32.5168 L 9.59999,-32.5 z
M 28.7814,-20.5156 L 28.4659,-20.5624 L 28.1566,-20.6399 L 27.8563,-20.7474 L 27.5679,-20.8837 L 27.2944,-21.0477
 L 27.0382,-21.2377 L 26.8019,-21.4519 L 26.5877,-21.6882 L 26.3977,-21.9444 L 26.2337,-22.218 L 26.0974,-22.5063
 L 25.9899,-22.8066 L 25.9124,-23.116 L 25.8656,-23.4314 L 25.85,-23.75 L 25.8656,-24.0685 L 25.9124,-24.384
 L 25.9899,-24.6934 L 26.0974,-24.9937 L 26.2337,-25.282 L 26.3977,-25.5556 L 26.5877,-25.8118 L 26.8019,-26.0481
 L 27.0382,-26.2623 L 27.2944,-26.4523 L 27.5679,-26.6162 L 27.8563,-26.7526 L 28.1566,-26.86 L 28.4659,-26.9375
 L 28.7814,-26.9843 L 29.1,-27 L 29.4185,-26.9843 L 29.734,-26.9375 L 30.0434,-26.86 L 30.3437,-26.7526
 L 30.632,-26.6162 L 30.9056,-26.4523 L 31.1618,-26.2623 L 31.3981,-26.0481 L 31.6123,-25.8118 L 31.8023,-25.5556
 L 31.9662,-25.282 L 32.1026,-24.9937 L 32.2101,-24.6934 L 32.2876,-24.384 L 32.3343,-24.0685 L 32.35,-23.75
 L 32.3343,-23.4314 L 32.2876,-23.116 L 32.2101,-22.8066 L 32.1026,-22.5063 L 31.9662,-22.218 L 31.8023,-21.9444
 L 31.6123,-21.6882 L 31.3981,-21.4519 L 31.1618,-21.2377 L 30.9056,-21.0477 L 30.632,-20.8837 L 30.3437,-20.7474
 L 30.0434,-20.6399 L 29.734,-20.5624 L 29.4185,-20.5156 L 29.1,-20.5 z
M 7.34317,-1.4077 L 7.18785,-1.43074 L 7.03554,-1.46889 L 6.8877,-1.52179 L 6.74576,-1.58891 L 6.61108,-1.66965
 L 6.48497,-1.76317 L 6.36862,-1.86862 L 6.26317,-1.98497 L 6.16965,-2.11108 L 6.08891,-2.24576 L 6.02179,-2.3877
 L 5.96889,-2.53554 L 5.93074,-2.68785 L 5.9077,-2.84317 L 5.89999,-3 L 5.9077,-3.15681 L 5.93074,-3.31213
 L 5.96889,-3.46445 L 6.02179,-3.61229 L 6.08891,-3.75423 L 6.16965,-3.8889 L 6.26317,-4.01501 L 6.36862,-4.13136
 L 6.48497,-4.23682 L 6.61108,-4.33034 L 6.74576,-4.41107 L 6.8877,-4.4782 L 7.03554,-4.5311 L 7.18785,-4.56924
 L 7.34317,-4.59229 L 7.5,-4.59999 L 7.65681,-4.59229 L 7.81213,-4.56924 L 7.96445,-4.5311 L 8.11229,-4.4782
 L 8.25423,-4.41107 L 8.3889,-4.33034 L 8.51501,-4.23682 L 8.63136,-4.13136 L 8.73682,-4.01501 L 8.83034,-3.8889
 L 8.91107,-3.75423 L 8.9782,-3.61229 L 9.0311,-3.46445 L 9.06924,-3.31213 L 9.09229,-3.15681 L 9.09999,-3
 L 9.09229,-2.84317 L 9.06924,-2.68785 L 9.0311,-2.53554 L 8.9782,-2.3877 L 8.91107,-2.24576 L 8.83034,-2.11108
 L 8.73682,-1.98497 L 8.63136,-1.86862 L 8.51501,-1.76317 L 8.3889,-1.66965 L 8.25423,-1.58891 L 8.11229,-1.52179
 L 7.96445,-1.46889 L 7.81213,-1.43074 L 7.65681,-1.4077 L 7.5,-1.39999 z
" stroke="black" fill="lightgray" stroke-width="0.5"/>
</svg>
