  0
SECTION
  2
BLOCKS
  0
ENDSEC
  0
SECTION
  2
ENTITIES
  0
LINE
  8
0
 10
40.3
 20
128.5
 11
0
 21
128.5
  0
LINE
  8
0
 10
0
 20
128.5
 11
0
 21
0
  0
LINE
  8
0
 10
0
 20
0
 11
40.3
 21
0
  0
LINE
  8
0
 10
40.3
 20
0
 11
40.3
 21
128.5
  0
LINE
  8
0
 10
32.7432
 20
123.908
 11
32.5878
 21
123.931
  0
LINE
  8
0
 10
32.5878
 20
123.931
 11
32.4355
 21
123.969
  0
LINE
  8
0
 10
32.4355
 20
123.969
 11
32.2877
 21
124.022
  0
LINE
  8
0
 10
32.2877
 20
124.022
 11
32.1458
 21
124.089
  0
LINE
  8
0
 10
32.1458
 20
124.089
 11
32.0111
 21
124.17
  0
LINE
  8
0
 10
32.0111
 20
124.17
 11
31.885
 21
124.263
  0
LINE
  8
0
 10
31.885
 20
124.263
 11
31.7686
 21
124.369
  0
LINE
  8
0
 10
31.7686
 20
124.369
 11
31.6632
 21
124.485
  0
LINE
  8
0
 10
31.6632
 20
124.485
 11
31.5696
 21
124.611
  0
LINE
  8
0
 10
31.5696
 20
124.611
 11
31.4889
 21
124.746
  0
LINE
  8
0
 10
31.4889
 20
124.746
 11
31.4218
 21
124.888
  0
LINE
  8
0
 10
31.4218
 20
124.888
 11
31.3689
 21
125.036
  0
LINE
  8
0
 10
31.3689
 20
125.036
 11
31.3307
 21
125.188
  0
LINE
  8
0
 10
31.3307
 20
125.188
 11
31.3077
 21
125.343
  0
LINE
  8
0
 10
31.3077
 20
125.343
 11
31.3
 21
125.5
  0
LINE
  8
0
 10
31.3
 20
125.5
 11
31.3077
 21
125.657
  0
LINE
  8
0
 10
31.3077
 20
125.657
 11
31.3307
 21
125.812
  0
LINE
  8
0
 10
31.3307
 20
125.812
 11
31.3689
 21
125.964
  0
LINE
  8
0
 10
31.3689
 20
125.964
 11
31.4218
 21
126.112
  0
LINE
  8
0
 10
31.4218
 20
126.112
 11
31.4889
 21
126.254
  0
LINE
  8
0
 10
31.4889
 20
126.254
 11
31.5696
 21
126.389
  0
LINE
  8
0
 10
31.5696
 20
126.389
 11
31.6632
 21
126.515
  0
LINE
  8
0
 10
31.6632
 20
126.515
 11
31.7686
 21
126.631
  0
LINE
  8
0
 10
31.7686
 20
126.631
 11
31.885
 21
126.737
  0
LINE
  8
0
 10
31.885
 20
126.737
 11
32.0111
 21
126.83
  0
LINE
  8
0
 10
32.0111
 20
126.83
 11
32.1458
 21
126.911
  0
LINE
  8
0
 10
32.1458
 20
126.911
 11
32.2877
 21
126.978
  0
LINE
  8
0
 10
32.2877
 20
126.978
 11
32.4355
 21
127.031
  0
LINE
  8
0
 10
32.4355
 20
127.031
 11
32.5878
 21
127.069
  0
LINE
  8
0
 10
32.5878
 20
127.069
 11
32.7432
 21
127.092
  0
LINE
  8
0
 10
32.7432
 20
127.092
 11
32.9
 21
127.1
  0
LINE
  8
0
 10
32.9
 20
127.1
 11
33.0568
 21
127.092
  0
LINE
  8
0
 10
33.0568
 20
127.092
 11
33.2121
 21
127.069
  0
LINE
  8
0
 10
33.2121
 20
127.069
 11
33.3644
 21
127.031
  0
LINE
  8
0
 10
33.3644
 20
127.031
 11
33.5123
 21
126.978
  0
LINE
  8
0
 10
33.5123
 20
126.978
 11
33.6542
 21
126.911
  0
LINE
  8
0
 10
33.6542
 20
126.911
 11
33.7889
 21
126.83
  0
LINE
  8
0
 10
33.7889
 20
126.83
 11
33.915
 21
126.737
  0
LINE
  8
0
 10
33.915
 20
126.737
 11
34.0314
 21
126.631
  0
LINE
  8
0
 10
34.0314
 20
126.631
 11
34.1368
 21
126.515
  0
LINE
  8
0
 10
34.1368
 20
126.515
 11
34.2303
 21
126.389
  0
LINE
  8
0
 10
34.2303
 20
126.389
 11
34.3111
 21
126.254
  0
LINE
  8
0
 10
34.3111
 20
126.254
 11
34.3782
 21
126.112
  0
LINE
  8
0
 10
34.3782
 20
126.112
 11
34.4311
 21
125.964
  0
LINE
  8
0
 10
34.4311
 20
125.964
 11
34.4693
 21
125.812
  0
LINE
  8
0
 10
34.4693
 20
125.812
 11
34.4923
 21
125.657
  0
LINE
  8
0
 10
34.4923
 20
125.657
 11
34.5
 21
125.5
  0
LINE
  8
0
 10
34.5
 20
125.5
 11
34.4923
 21
125.343
  0
LINE
  8
0
 10
34.4923
 20
125.343
 11
34.4693
 21
125.188
  0
LINE
  8
0
 10
34.4693
 20
125.188
 11
34.4311
 21
125.036
  0
LINE
  8
0
 10
34.4311
 20
125.036
 11
34.3782
 21
124.888
  0
LINE
  8
0
 10
34.3782
 20
124.888
 11
34.3111
 21
124.746
  0
LINE
  8
0
 10
34.3111
 20
124.746
 11
34.2303
 21
124.611
  0
LINE
  8
0
 10
34.2303
 20
124.611
 11
34.1368
 21
124.485
  0
LINE
  8
0
 10
34.1368
 20
124.485
 11
34.0314
 21
124.369
  0
LINE
  8
0
 10
34.0314
 20
124.369
 11
33.915
 21
124.263
  0
LINE
  8
0
 10
33.915
 20
124.263
 11
33.7889
 21
124.17
  0
LINE
  8
0
 10
33.7889
 20
124.17
 11
33.6542
 21
124.089
  0
LINE
  8
0
 10
33.6542
 20
124.089
 11
33.5123
 21
124.022
  0
LINE
  8
0
 10
33.5123
 20
124.022
 11
33.3644
 21
123.969
  0
LINE
  8
0
 10
33.3644
 20
123.969
 11
33.2121
 21
123.931
  0
LINE
  8
0
 10
33.2121
 20
123.931
 11
33.0568
 21
123.908
  0
LINE
  8
0
 10
33.0568
 20
123.908
 11
32.9
 21
123.9
  0
LINE
  8
0
 10
32.9
 20
123.9
 11
32.7432
 21
123.908
  0
LINE
  8
0
 10
7.75693
 20
106.017
 11
7.41718
 21
106.067
  0
LINE
  8
0
 10
7.41718
 20
106.067
 11
7.084
 21
106.151
  0
LINE
  8
0
 10
7.084
 20
106.151
 11
6.7606
 21
106.266
  0
LINE
  8
0
 10
6.7606
 20
106.266
 11
6.4501
 21
106.413
  0
LINE
  8
0
 10
6.4501
 20
106.413
 11
6.1555
 21
106.59
  0
LINE
  8
0
 10
6.1555
 20
106.59
 11
5.87962
 21
106.794
  0
LINE
  8
0
 10
5.87962
 20
106.794
 11
5.62512
 21
107.025
  0
LINE
  8
0
 10
5.62512
 20
107.025
 11
5.39445
 21
107.28
  0
LINE
  8
0
 10
5.39445
 20
107.28
 11
5.18985
 21
107.555
  0
LINE
  8
0
 10
5.18985
 20
107.555
 11
5.01328
 21
107.85
  0
LINE
  8
0
 10
5.01328
 20
107.85
 11
4.86641
 21
108.161
  0
LINE
  8
0
 10
4.86641
 20
108.161
 11
4.7507
 21
108.484
  0
LINE
  8
0
 10
4.7507
 20
108.484
 11
4.66724
 21
108.817
  0
LINE
  8
0
 10
4.66724
 20
108.817
 11
4.61685
 21
109.157
  0
LINE
  8
0
 10
4.61685
 20
109.157
 11
4.59999
 21
109.5
  0
LINE
  8
0
 10
4.59999
 20
109.5
 11
4.61685
 21
109.843
  0
LINE
  8
0
 10
4.61685
 20
109.843
 11
4.66724
 21
110.183
  0
LINE
  8
0
 10
4.66724
 20
110.183
 11
4.7507
 21
110.516
  0
LINE
  8
0
 10
4.7507
 20
110.516
 11
4.86641
 21
110.839
  0
LINE
  8
0
 10
4.86641
 20
110.839
 11
5.01328
 21
111.15
  0
LINE
  8
0
 10
5.01328
 20
111.15
 11
5.18985
 21
111.444
  0
LINE
  8
0
 10
5.18985
 20
111.444
 11
5.39445
 21
111.72
  0
LINE
  8
0
 10
5.39445
 20
111.72
 11
5.62512
 21
111.975
  0
LINE
  8
0
 10
5.62512
 20
111.975
 11
5.87962
 21
112.206
  0
LINE
  8
0
 10
5.87962
 20
112.206
 11
6.1555
 21
112.41
  0
LINE
  8
0
 10
6.1555
 20
112.41
 11
6.4501
 21
112.587
  0
LINE
  8
0
 10
6.4501
 20
112.587
 11
6.7606
 21
112.734
  0
LINE
  8
0
 10
6.7606
 20
112.734
 11
7.084
 21
112.849
  0
LINE
  8
0
 10
7.084
 20
112.849
 11
7.41718
 21
112.933
  0
LINE
  8
0
 10
7.41718
 20
112.933
 11
7.75693
 21
112.983
  0
LINE
  8
0
 10
7.75693
 20
112.983
 11
8.09999
 21
113
  0
LINE
  8
0
 10
8.09999
 20
113
 11
8.44305
 21
112.983
  0
LINE
  8
0
 10
8.44305
 20
112.983
 11
8.78281
 21
112.933
  0
LINE
  8
0
 10
8.78281
 20
112.933
 11
9.11598
 21
112.849
  0
LINE
  8
0
 10
9.11598
 20
112.849
 11
9.43938
 21
112.734
  0
LINE
  8
0
 10
9.43938
 20
112.734
 11
9.74988
 21
112.587
  0
LINE
  8
0
 10
9.74988
 20
112.587
 11
10.0445
 21
112.41
  0
LINE
  8
0
 10
10.0445
 20
112.41
 11
10.3204
 21
112.206
  0
LINE
  8
0
 10
10.3204
 20
112.206
 11
10.5749
 21
111.975
  0
LINE
  8
0
 10
10.5749
 20
111.975
 11
10.8055
 21
111.72
  0
LINE
  8
0
 10
10.8055
 20
111.72
 11
11.0101
 21
111.444
  0
LINE
  8
0
 10
11.0101
 20
111.444
 11
11.1867
 21
111.15
  0
LINE
  8
0
 10
11.1867
 20
111.15
 11
11.3336
 21
110.839
  0
LINE
  8
0
 10
11.3336
 20
110.839
 11
11.4493
 21
110.516
  0
LINE
  8
0
 10
11.4493
 20
110.516
 11
11.5327
 21
110.183
  0
LINE
  8
0
 10
11.5327
 20
110.183
 11
11.5831
 21
109.843
  0
LINE
  8
0
 10
11.5831
 20
109.843
 11
11.6
 21
109.5
  0
LINE
  8
0
 10
11.6
 20
109.5
 11
11.5831
 21
109.157
  0
LINE
  8
0
 10
11.5831
 20
109.157
 11
11.5327
 21
108.817
  0
LINE
  8
0
 10
11.5327
 20
108.817
 11
11.4493
 21
108.484
  0
LINE
  8
0
 10
11.4493
 20
108.484
 11
11.3336
 21
108.161
  0
LINE
  8
0
 10
11.3336
 20
108.161
 11
11.1867
 21
107.85
  0
LINE
  8
0
 10
11.1867
 20
107.85
 11
11.0101
 21
107.555
  0
LINE
  8
0
 10
11.0101
 20
107.555
 11
10.8055
 21
107.28
  0
LINE
  8
0
 10
10.8055
 20
107.28
 11
10.5749
 21
107.025
  0
LINE
  8
0
 10
10.5749
 20
107.025
 11
10.3204
 21
106.794
  0
LINE
  8
0
 10
10.3204
 20
106.794
 11
10.0445
 21
106.59
  0
LINE
  8
0
 10
10.0445
 20
106.59
 11
9.74988
 21
106.413
  0
LINE
  8
0
 10
9.74988
 20
106.413
 11
9.43938
 21
106.266
  0
LINE
  8
0
 10
9.43938
 20
106.266
 11
9.11598
 21
106.151
  0
LINE
  8
0
 10
9.11598
 20
106.151
 11
8.78281
 21
106.067
  0
LINE
  8
0
 10
8.78281
 20
106.067
 11
8.44305
 21
106.017
  0
LINE
  8
0
 10
8.44305
 20
106.017
 11
8.09999
 21
106
  0
LINE
  8
0
 10
8.09999
 20
106
 11
7.75693
 21
106.017
  0
LINE
  8
0
 10
28.2814
 20
94.0156
 11
27.9659
 21
94.0624
  0
LINE
  8
0
 10
27.9659
 20
94.0624
 11
27.6566
 21
94.1399
  0
LINE
  8
0
 10
27.6566
 20
94.1399
 11
27.3563
 21
94.2474
  0
LINE
  8
0
 10
27.3563
 20
94.2474
 11
27.0679
 21
94.3837
  0
LINE
  8
0
 10
27.0679
 20
94.3837
 11
26.7944
 21
94.5477
  0
LINE
  8
0
 10
26.7944
 20
94.5477
 11
26.5382
 21
94.7377
  0
LINE
  8
0
 10
26.5382
 20
94.7377
 11
26.3019
 21
94.9519
  0
LINE
  8
0
 10
26.3019
 20
94.9519
 11
26.0877
 21
95.1882
  0
LINE
  8
0
 10
26.0877
 20
95.1882
 11
25.8977
 21
95.4444
  0
LINE
  8
0
 10
25.8977
 20
95.4444
 11
25.7337
 21
95.718
  0
LINE
  8
0
 10
25.7337
 20
95.718
 11
25.5974
 21
96.0063
  0
LINE
  8
0
 10
25.5974
 20
96.0063
 11
25.4899
 21
96.3066
  0
LINE
  8
0
 10
25.4899
 20
96.3066
 11
25.4124
 21
96.616
  0
LINE
  8
0
 10
25.4124
 20
96.616
 11
25.3656
 21
96.9314
  0
LINE
  8
0
 10
25.3656
 20
96.9314
 11
25.35
 21
97.25
  0
LINE
  8
0
 10
25.35
 20
97.25
 11
25.3656
 21
97.5685
  0
LINE
  8
0
 10
25.3656
 20
97.5685
 11
25.4124
 21
97.884
  0
LINE
  8
0
 10
25.4124
 20
97.884
 11
25.4899
 21
98.1934
  0
LINE
  8
0
 10
25.4899
 20
98.1934
 11
25.5974
 21
98.4937
  0
LINE
  8
0
 10
25.5974
 20
98.4937
 11
25.7337
 21
98.782
  0
LINE
  8
0
 10
25.7337
 20
98.782
 11
25.8977
 21
99.0556
  0
LINE
  8
0
 10
25.8977
 20
99.0556
 11
26.0877
 21
99.3118
  0
LINE
  8
0
 10
26.0877
 20
99.3118
 11
26.3019
 21
99.5481
  0
LINE
  8
0
 10
26.3019
 20
99.5481
 11
26.5382
 21
99.7623
  0
LINE
  8
0
 10
26.5382
 20
99.7623
 11
26.7944
 21
99.9523
  0
LINE
  8
0
 10
26.7944
 20
99.9523
 11
27.0679
 21
100.116
  0
LINE
  8
0
 10
27.0679
 20
100.116
 11
27.3563
 21
100.253
  0
LINE
  8
0
 10
27.3563
 20
100.253
 11
27.6566
 21
100.36
  0
LINE
  8
0
 10
27.6566
 20
100.36
 11
27.9659
 21
100.438
  0
LINE
  8
0
 10
27.9659
 20
100.438
 11
28.2814
 21
100.484
  0
LINE
  8
0
 10
28.2814
 20
100.484
 11
28.6
 21
100.5
  0
LINE
  8
0
 10
28.6
 20
100.5
 11
28.9185
 21
100.484
  0
LINE
  8
0
 10
28.9185
 20
100.484
 11
29.234
 21
100.438
  0
LINE
  8
0
 10
29.234
 20
100.438
 11
29.5434
 21
100.36
  0
LINE
  8
0
 10
29.5434
 20
100.36
 11
29.8437
 21
100.253
  0
LINE
  8
0
 10
29.8437
 20
100.253
 11
30.132
 21
100.116
  0
LINE
  8
0
 10
30.132
 20
100.116
 11
30.4056
 21
99.9523
  0
LINE
  8
0
 10
30.4056
 20
99.9523
 11
30.6618
 21
99.7623
  0
LINE
  8
0
 10
30.6618
 20
99.7623
 11
30.8981
 21
99.5481
  0
LINE
  8
0
 10
30.8981
 20
99.5481
 11
31.1123
 21
99.3118
  0
LINE
  8
0
 10
31.1123
 20
99.3118
 11
31.3023
 21
99.0556
  0
LINE
  8
0
 10
31.3023
 20
99.0556
 11
31.4662
 21
98.782
  0
LINE
  8
0
 10
31.4662
 20
98.782
 11
31.6026
 21
98.4937
  0
LINE
  8
0
 10
31.6026
 20
98.4937
 11
31.7101
 21
98.1934
  0
LINE
  8
0
 10
31.7101
 20
98.1934
 11
31.7876
 21
97.884
  0
LINE
  8
0
 10
31.7876
 20
97.884
 11
31.8343
 21
97.5685
  0
LINE
  8
0
 10
31.8343
 20
97.5685
 11
31.85
 21
97.25
  0
LINE
  8
0
 10
31.85
 20
97.25
 11
31.8343
 21
96.9314
  0
LINE
  8
0
 10
31.8343
 20
96.9314
 11
31.7876
 21
96.616
  0
LINE
  8
0
 10
31.7876
 20
96.616
 11
31.7101
 21
96.3066
  0
LINE
  8
0
 10
31.7101
 20
96.3066
 11
31.6026
 21
96.0063
  0
LINE
  8
0
 10
31.6026
 20
96.0063
 11
31.4662
 21
95.718
  0
LINE
  8
0
 10
31.4662
 20
95.718
 11
31.3023
 21
95.4444
  0
LINE
  8
0
 10
31.3023
 20
95.4444
 11
31.1123
 21
95.1882
  0
LINE
  8
0
 10
31.1123
 20
95.1882
 11
30.8981
 21
94.9519
  0
LINE
  8
0
 10
30.8981
 20
94.9519
 11
30.6618
 21
94.7377
  0
LINE
  8
0
 10
30.6618
 20
94.7377
 11
30.4056
 21
94.5477
  0
LINE
  8
0
 10
30.4056
 20
94.5477
 11
30.132
 21
94.3837
  0
LINE
  8
0
 10
30.132
 20
94.3837
 11
29.8437
 21
94.2474
  0
LINE
  8
0
 10
29.8437
 20
94.2474
 11
29.5434
 21
94.1399
  0
LINE
  8
0
 10
29.5434
 20
94.1399
 11
29.234
 21
94.0624
  0
LINE
  8
0
 10
29.234
 20
94.0624
 11
28.9185
 21
94.0156
  0
LINE
  8
0
 10
28.9185
 20
94.0156
 11
28.6
 21
94
  0
LINE
  8
0
 10
28.6
 20
94
 11
28.2814
 21
94.0156
  0
LINE
  8
0
 10
7.75693
 20
81.5168
 11
7.41718
 21
81.5672
  0
LINE
  8
0
 10
7.41718
 20
81.5672
 11
7.084
 21
81.6507
  0
LINE
  8
0
 10
7.084
 20
81.6507
 11
6.7606
 21
81.7664
  0
LINE
  8
0
 10
6.7606
 20
81.7664
 11
6.4501
 21
81.9133
  0
LINE
  8
0
 10
6.4501
 20
81.9133
 11
6.1555
 21
82.0898
  0
LINE
  8
0
 10
6.1555
 20
82.0898
 11
5.87962
 21
82.2944
  0
LINE
  8
0
 10
5.87962
 20
82.2944
 11
5.62512
 21
82.5251
  0
LINE
  8
0
 10
5.62512
 20
82.5251
 11
5.39445
 21
82.7796
  0
LINE
  8
0
 10
5.39445
 20
82.7796
 11
5.18985
 21
83.0555
  0
LINE
  8
0
 10
5.18985
 20
83.0555
 11
5.01328
 21
83.3501
  0
LINE
  8
0
 10
5.01328
 20
83.3501
 11
4.86641
 21
83.6606
  0
LINE
  8
0
 10
4.86641
 20
83.6606
 11
4.7507
 21
83.984
  0
LINE
  8
0
 10
4.7507
 20
83.984
 11
4.66724
 21
84.3172
  0
LINE
  8
0
 10
4.66724
 20
84.3172
 11
4.61685
 21
84.6569
  0
LINE
  8
0
 10
4.61685
 20
84.6569
 11
4.59999
 21
85
  0
LINE
  8
0
 10
4.59999
 20
85
 11
4.61685
 21
85.343
  0
LINE
  8
0
 10
4.61685
 20
85.343
 11
4.66724
 21
85.6828
  0
LINE
  8
0
 10
4.66724
 20
85.6828
 11
4.7507
 21
86.016
  0
LINE
  8
0
 10
4.7507
 20
86.016
 11
4.86641
 21
86.3394
  0
LINE
  8
0
 10
4.86641
 20
86.3394
 11
5.01328
 21
86.6499
  0
LINE
  8
0
 10
5.01328
 20
86.6499
 11
5.18985
 21
86.9445
  0
LINE
  8
0
 10
5.18985
 20
86.9445
 11
5.39445
 21
87.2204
  0
LINE
  8
0
 10
5.39445
 20
87.2204
 11
5.62512
 21
87.4749
  0
LINE
  8
0
 10
5.62512
 20
87.4749
 11
5.87962
 21
87.7055
  0
LINE
  8
0
 10
5.87962
 20
87.7055
 11
6.1555
 21
87.9101
  0
LINE
  8
0
 10
6.1555
 20
87.9101
 11
6.4501
 21
88.0867
  0
LINE
  8
0
 10
6.4501
 20
88.0867
 11
6.7606
 21
88.2336
  0
LINE
  8
0
 10
6.7606
 20
88.2336
 11
7.084
 21
88.3493
  0
LINE
  8
0
 10
7.084
 20
88.3493
 11
7.41718
 21
88.4327
  0
LINE
  8
0
 10
7.41718
 20
88.4327
 11
7.75693
 21
88.4831
  0
LINE
  8
0
 10
7.75693
 20
88.4831
 11
8.09999
 21
88.5
  0
LINE
  8
0
 10
8.09999
 20
88.5
 11
8.44305
 21
88.4831
  0
LINE
  8
0
 10
8.44305
 20
88.4831
 11
8.78281
 21
88.4327
  0
LINE
  8
0
 10
8.78281
 20
88.4327
 11
9.11598
 21
88.3493
  0
LINE
  8
0
 10
9.11598
 20
88.3493
 11
9.43938
 21
88.2336
  0
LINE
  8
0
 10
9.43938
 20
88.2336
 11
9.74988
 21
88.0867
  0
LINE
  8
0
 10
9.74988
 20
88.0867
 11
10.0445
 21
87.9101
  0
LINE
  8
0
 10
10.0445
 20
87.9101
 11
10.3204
 21
87.7055
  0
LINE
  8
0
 10
10.3204
 20
87.7055
 11
10.5749
 21
87.4749
  0
LINE
  8
0
 10
10.5749
 20
87.4749
 11
10.8055
 21
87.2204
  0
LINE
  8
0
 10
10.8055
 20
87.2204
 11
11.0101
 21
86.9445
  0
LINE
  8
0
 10
11.0101
 20
86.9445
 11
11.1867
 21
86.6499
  0
LINE
  8
0
 10
11.1867
 20
86.6499
 11
11.3336
 21
86.3394
  0
LINE
  8
0
 10
11.3336
 20
86.3394
 11
11.4493
 21
86.016
  0
LINE
  8
0
 10
11.4493
 20
86.016
 11
11.5327
 21
85.6828
  0
LINE
  8
0
 10
11.5327
 20
85.6828
 11
11.5831
 21
85.343
  0
LINE
  8
0
 10
11.5831
 20
85.343
 11
11.6
 21
85
  0
LINE
  8
0
 10
11.6
 20
85
 11
11.5831
 21
84.6569
  0
LINE
  8
0
 10
11.5831
 20
84.6569
 11
11.5327
 21
84.3172
  0
LINE
  8
0
 10
11.5327
 20
84.3172
 11
11.4493
 21
83.984
  0
LINE
  8
0
 10
11.4493
 20
83.984
 11
11.3336
 21
83.6606
  0
LINE
  8
0
 10
11.3336
 20
83.6606
 11
11.1867
 21
83.3501
  0
LINE
  8
0
 10
11.1867
 20
83.3501
 11
11.0101
 21
83.0555
  0
LINE
  8
0
 10
11.0101
 20
83.0555
 11
10.8055
 21
82.7796
  0
LINE
  8
0
 10
10.8055
 20
82.7796
 11
10.5749
 21
82.5251
  0
LINE
  8
0
 10
10.5749
 20
82.5251
 11
10.3204
 21
82.2944
  0
LINE
  8
0
 10
10.3204
 20
82.2944
 11
10.0445
 21
82.0898
  0
LINE
  8
0
 10
10.0445
 20
82.0898
 11
9.74988
 21
81.9133
  0
LINE
  8
0
 10
9.74988
 20
81.9133
 11
9.43938
 21
81.7664
  0
LINE
  8
0
 10
9.43938
 20
81.7664
 11
9.11598
 21
81.6507
  0
LINE
  8
0
 10
9.11598
 20
81.6507
 11
8.78281
 21
81.5672
  0
LINE
  8
0
 10
8.78281
 20
81.5672
 11
8.44305
 21
81.5168
  0
LINE
  8
0
 10
8.44305
 20
81.5168
 11
8.09999
 21
81.5
  0
LINE
  8
0
 10
8.09999
 20
81.5
 11
7.75693
 21
81.5168
  0
LINE
  8
0
 10
28.2814
 20
69.5156
 11
27.9659
 21
69.5624
  0
LINE
  8
0
 10
27.9659
 20
69.5624
 11
27.6566
 21
69.6399
  0
LINE
  8
0
 10
27.6566
 20
69.6399
 11
27.3563
 21
69.7474
  0
LINE
  8
0
 10
27.3563
 20
69.7474
 11
27.0679
 21
69.8837
  0
LINE
  8
0
 10
27.0679
 20
69.8837
 11
26.7944
 21
70.0477
  0
LINE
  8
0
 10
26.7944
 20
70.0477
 11
26.5382
 21
70.2377
  0
LINE
  8
0
 10
26.5382
 20
70.2377
 11
26.3019
 21
70.4519
  0
LINE
  8
0
 10
26.3019
 20
70.4519
 11
26.0877
 21
70.6882
  0
LINE
  8
0
 10
26.0877
 20
70.6882
 11
25.8977
 21
70.9444
  0
LINE
  8
0
 10
25.8977
 20
70.9444
 11
25.7337
 21
71.218
  0
LINE
  8
0
 10
25.7337
 20
71.218
 11
25.5974
 21
71.5063
  0
LINE
  8
0
 10
25.5974
 20
71.5063
 11
25.4899
 21
71.8066
  0
LINE
  8
0
 10
25.4899
 20
71.8066
 11
25.4124
 21
72.116
  0
LINE
  8
0
 10
25.4124
 20
72.116
 11
25.3656
 21
72.4314
  0
LINE
  8
0
 10
25.3656
 20
72.4314
 11
25.35
 21
72.75
  0
LINE
  8
0
 10
25.35
 20
72.75
 11
25.3656
 21
73.0685
  0
LINE
  8
0
 10
25.3656
 20
73.0685
 11
25.4124
 21
73.384
  0
LINE
  8
0
 10
25.4124
 20
73.384
 11
25.4899
 21
73.6934
  0
LINE
  8
0
 10
25.4899
 20
73.6934
 11
25.5974
 21
73.9937
  0
LINE
  8
0
 10
25.5974
 20
73.9937
 11
25.7337
 21
74.282
  0
LINE
  8
0
 10
25.7337
 20
74.282
 11
25.8977
 21
74.5556
  0
LINE
  8
0
 10
25.8977
 20
74.5556
 11
26.0877
 21
74.8118
  0
LINE
  8
0
 10
26.0877
 20
74.8118
 11
26.3019
 21
75.0481
  0
LINE
  8
0
 10
26.3019
 20
75.0481
 11
26.5382
 21
75.2623
  0
LINE
  8
0
 10
26.5382
 20
75.2623
 11
26.7944
 21
75.4523
  0
LINE
  8
0
 10
26.7944
 20
75.4523
 11
27.0679
 21
75.6162
  0
LINE
  8
0
 10
27.0679
 20
75.6162
 11
27.3563
 21
75.7526
  0
LINE
  8
0
 10
27.3563
 20
75.7526
 11
27.6566
 21
75.86
  0
LINE
  8
0
 10
27.6566
 20
75.86
 11
27.9659
 21
75.9375
  0
LINE
  8
0
 10
27.9659
 20
75.9375
 11
28.2814
 21
75.9843
  0
LINE
  8
0
 10
28.2814
 20
75.9843
 11
28.6
 21
76
  0
LINE
  8
0
 10
28.6
 20
76
 11
28.9185
 21
75.9843
  0
LINE
  8
0
 10
28.9185
 20
75.9843
 11
29.234
 21
75.9375
  0
LINE
  8
0
 10
29.234
 20
75.9375
 11
29.5434
 21
75.86
  0
LINE
  8
0
 10
29.5434
 20
75.86
 11
29.8437
 21
75.7526
  0
LINE
  8
0
 10
29.8437
 20
75.7526
 11
30.132
 21
75.6162
  0
LINE
  8
0
 10
30.132
 20
75.6162
 11
30.4056
 21
75.4523
  0
LINE
  8
0
 10
30.4056
 20
75.4523
 11
30.6618
 21
75.2623
  0
LINE
  8
0
 10
30.6618
 20
75.2623
 11
30.8981
 21
75.0481
  0
LINE
  8
0
 10
30.8981
 20
75.0481
 11
31.1123
 21
74.8118
  0
LINE
  8
0
 10
31.1123
 20
74.8118
 11
31.3023
 21
74.5556
  0
LINE
  8
0
 10
31.3023
 20
74.5556
 11
31.4662
 21
74.282
  0
LINE
  8
0
 10
31.4662
 20
74.282
 11
31.6026
 21
73.9937
  0
LINE
  8
0
 10
31.6026
 20
73.9937
 11
31.7101
 21
73.6934
  0
LINE
  8
0
 10
31.7101
 20
73.6934
 11
31.7876
 21
73.384
  0
LINE
  8
0
 10
31.7876
 20
73.384
 11
31.8343
 21
73.0685
  0
LINE
  8
0
 10
31.8343
 20
73.0685
 11
31.85
 21
72.75
  0
LINE
  8
0
 10
31.85
 20
72.75
 11
31.8343
 21
72.4314
  0
LINE
  8
0
 10
31.8343
 20
72.4314
 11
31.7876
 21
72.116
  0
LINE
  8
0
 10
31.7876
 20
72.116
 11
31.7101
 21
71.8066
  0
LINE
  8
0
 10
31.7101
 20
71.8066
 11
31.6026
 21
71.5063
  0
LINE
  8
0
 10
31.6026
 20
71.5063
 11
31.4662
 21
71.218
  0
LINE
  8
0
 10
31.4662
 20
71.218
 11
31.3023
 21
70.9444
  0
LINE
  8
0
 10
31.3023
 20
70.9444
 11
31.1123
 21
70.6882
  0
LINE
  8
0
 10
31.1123
 20
70.6882
 11
30.8981
 21
70.4519
  0
LINE
  8
0
 10
30.8981
 20
70.4519
 11
30.6618
 21
70.2377
  0
LINE
  8
0
 10
30.6618
 20
70.2377
 11
30.4056
 21
70.0477
  0
LINE
  8
0
 10
30.4056
 20
70.0477
 11
30.132
 21
69.8837
  0
LINE
  8
0
 10
30.132
 20
69.8837
 11
29.8437
 21
69.7474
  0
LINE
  8
0
 10
29.8437
 20
69.7474
 11
29.5434
 21
69.6399
  0
LINE
  8
0
 10
29.5434
 20
69.6399
 11
29.234
 21
69.5624
  0
LINE
  8
0
 10
29.234
 20
69.5624
 11
28.9185
 21
69.5156
  0
LINE
  8
0
 10
28.9185
 20
69.5156
 11
28.6
 21
69.5
  0
LINE
  8
0
 10
28.6
 20
69.5
 11
28.2814
 21
69.5156
  0
LINE
  8
0
 10
7.75693
 20
57.0168
 11
7.41718
 21
57.0672
  0
LINE
  8
0
 10
7.41718
 20
57.0672
 11
7.084
 21
57.1507
  0
LINE
  8
0
 10
7.084
 20
57.1507
 11
6.7606
 21
57.2664
  0
LINE
  8
0
 10
6.7606
 20
57.2664
 11
6.4501
 21
57.4133
  0
LINE
  8
0
 10
6.4501
 20
57.4133
 11
6.1555
 21
57.5898
  0
LINE
  8
0
 10
6.1555
 20
57.5898
 11
5.87962
 21
57.7944
  0
LINE
  8
0
 10
5.87962
 20
57.7944
 11
5.62512
 21
58.0251
  0
LINE
  8
0
 10
5.62512
 20
58.0251
 11
5.39445
 21
58.2796
  0
LINE
  8
0
 10
5.39445
 20
58.2796
 11
5.18985
 21
58.5555
  0
LINE
  8
0
 10
5.18985
 20
58.5555
 11
5.01328
 21
58.8501
  0
LINE
  8
0
 10
5.01328
 20
58.8501
 11
4.86641
 21
59.1606
  0
LINE
  8
0
 10
4.86641
 20
59.1606
 11
4.7507
 21
59.484
  0
LINE
  8
0
 10
4.7507
 20
59.484
 11
4.66724
 21
59.8172
  0
LINE
  8
0
 10
4.66724
 20
59.8172
 11
4.61685
 21
60.1569
  0
LINE
  8
0
 10
4.61685
 20
60.1569
 11
4.59999
 21
60.5
  0
LINE
  8
0
 10
4.59999
 20
60.5
 11
4.61685
 21
60.843
  0
LINE
  8
0
 10
4.61685
 20
60.843
 11
4.66724
 21
61.1828
  0
LINE
  8
0
 10
4.66724
 20
61.1828
 11
4.7507
 21
61.516
  0
LINE
  8
0
 10
4.7507
 20
61.516
 11
4.86641
 21
61.8394
  0
LINE
  8
0
 10
4.86641
 20
61.8394
 11
5.01328
 21
62.1499
  0
LINE
  8
0
 10
5.01328
 20
62.1499
 11
5.18985
 21
62.4445
  0
LINE
  8
0
 10
5.18985
 20
62.4445
 11
5.39445
 21
62.7204
  0
LINE
  8
0
 10
5.39445
 20
62.7204
 11
5.62512
 21
62.9749
  0
LINE
  8
0
 10
5.62512
 20
62.9749
 11
5.87962
 21
63.2055
  0
LINE
  8
0
 10
5.87962
 20
63.2055
 11
6.1555
 21
63.4101
  0
LINE
  8
0
 10
6.1555
 20
63.4101
 11
6.4501
 21
63.5867
  0
LINE
  8
0
 10
6.4501
 20
63.5867
 11
6.7606
 21
63.7336
  0
LINE
  8
0
 10
6.7606
 20
63.7336
 11
7.084
 21
63.8493
  0
LINE
  8
0
 10
7.084
 20
63.8493
 11
7.41718
 21
63.9327
  0
LINE
  8
0
 10
7.41718
 20
63.9327
 11
7.75693
 21
63.9831
  0
LINE
  8
0
 10
7.75693
 20
63.9831
 11
8.09999
 21
64
  0
LINE
  8
0
 10
8.09999
 20
64
 11
8.44305
 21
63.9831
  0
LINE
  8
0
 10
8.44305
 20
63.9831
 11
8.78281
 21
63.9327
  0
LINE
  8
0
 10
8.78281
 20
63.9327
 11
9.11598
 21
63.8493
  0
LINE
  8
0
 10
9.11598
 20
63.8493
 11
9.43938
 21
63.7336
  0
LINE
  8
0
 10
9.43938
 20
63.7336
 11
9.74988
 21
63.5867
  0
LINE
  8
0
 10
9.74988
 20
63.5867
 11
10.0445
 21
63.4101
  0
LINE
  8
0
 10
10.0445
 20
63.4101
 11
10.3204
 21
63.2055
  0
LINE
  8
0
 10
10.3204
 20
63.2055
 11
10.5749
 21
62.9749
  0
LINE
  8
0
 10
10.5749
 20
62.9749
 11
10.8055
 21
62.7204
  0
LINE
  8
0
 10
10.8055
 20
62.7204
 11
11.0101
 21
62.4445
  0
LINE
  8
0
 10
11.0101
 20
62.4445
 11
11.1867
 21
62.1499
  0
LINE
  8
0
 10
11.1867
 20
62.1499
 11
11.3336
 21
61.8394
  0
LINE
  8
0
 10
11.3336
 20
61.8394
 11
11.4493
 21
61.516
  0
LINE
  8
0
 10
11.4493
 20
61.516
 11
11.5327
 21
61.1828
  0
LINE
  8
0
 10
11.5327
 20
61.1828
 11
11.5831
 21
60.843
  0
LINE
  8
0
 10
11.5831
 20
60.843
 11
11.6
 21
60.5
  0
LINE
  8
0
 10
11.6
 20
60.5
 11
11.5831
 21
60.1569
  0
LINE
  8
0
 10
11.5831
 20
60.1569
 11
11.5327
 21
59.8172
  0
LINE
  8
0
 10
11.5327
 20
59.8172
 11
11.4493
 21
59.484
  0
LINE
  8
0
 10
11.4493
 20
59.484
 11
11.3336
 21
59.1606
  0
LINE
  8
0
 10
11.3336
 20
59.1606
 11
11.1867
 21
58.8501
  0
LINE
  8
0
 10
11.1867
 20
58.8501
 11
11.0101
 21
58.5555
  0
LINE
  8
0
 10
11.0101
 20
58.5555
 11
10.8055
 21
58.2796
  0
LINE
  8
0
 10
10.8055
 20
58.2796
 11
10.5749
 21
58.0251
  0
LINE
  8
0
 10
10.5749
 20
58.0251
 11
10.3204
 21
57.7944
  0
LINE
  8
0
 10
10.3204
 20
57.7944
 11
10.0445
 21
57.5898
  0
LINE
  8
0
 10
10.0445
 20
57.5898
 11
9.74988
 21
57.4133
  0
LINE
  8
0
 10
9.74988
 20
57.4133
 11
9.43938
 21
57.2664
  0
LINE
  8
0
 10
9.43938
 20
57.2664
 11
9.11598
 21
57.1507
  0
LINE
  8
0
 10
9.11598
 20
57.1507
 11
8.78281
 21
57.0672
  0
LINE
  8
0
 10
8.78281
 20
57.0672
 11
8.44305
 21
57.0168
  0
LINE
  8
0
 10
8.44305
 20
57.0168
 11
8.09999
 21
57
  0
LINE
  8
0
 10
8.09999
 20
57
 11
7.75693
 21
57.0168
  0
LINE
  8
0
 10
28.2814
 20
45.0156
 11
27.9659
 21
45.0624
  0
LINE
  8
0
 10
27.9659
 20
45.0624
 11
27.6566
 21
45.1399
  0
LINE
  8
0
 10
27.6566
 20
45.1399
 11
27.3563
 21
45.2474
  0
LINE
  8
0
 10
27.3563
 20
45.2474
 11
27.0679
 21
45.3837
  0
LINE
  8
0
 10
27.0679
 20
45.3837
 11
26.7944
 21
45.5477
  0
LINE
  8
0
 10
26.7944
 20
45.5477
 11
26.5382
 21
45.7377
  0
LINE
  8
0
 10
26.5382
 20
45.7377
 11
26.3019
 21
45.9519
  0
LINE
  8
0
 10
26.3019
 20
45.9519
 11
26.0877
 21
46.1882
  0
LINE
  8
0
 10
26.0877
 20
46.1882
 11
25.8977
 21
46.4444
  0
LINE
  8
0
 10
25.8977
 20
46.4444
 11
25.7337
 21
46.718
  0
LINE
  8
0
 10
25.7337
 20
46.718
 11
25.5974
 21
47.0063
  0
LINE
  8
0
 10
25.5974
 20
47.0063
 11
25.4899
 21
47.3066
  0
LINE
  8
0
 10
25.4899
 20
47.3066
 11
25.4124
 21
47.616
  0
LINE
  8
0
 10
25.4124
 20
47.616
 11
25.3656
 21
47.9314
  0
LINE
  8
0
 10
25.3656
 20
47.9314
 11
25.35
 21
48.25
  0
LINE
  8
0
 10
25.35
 20
48.25
 11
25.3656
 21
48.5685
  0
LINE
  8
0
 10
25.3656
 20
48.5685
 11
25.4124
 21
48.884
  0
LINE
  8
0
 10
25.4124
 20
48.884
 11
25.4899
 21
49.1934
  0
LINE
  8
0
 10
25.4899
 20
49.1934
 11
25.5974
 21
49.4937
  0
LINE
  8
0
 10
25.5974
 20
49.4937
 11
25.7337
 21
49.782
  0
LINE
  8
0
 10
25.7337
 20
49.782
 11
25.8977
 21
50.0556
  0
LINE
  8
0
 10
25.8977
 20
50.0556
 11
26.0877
 21
50.3118
  0
LINE
  8
0
 10
26.0877
 20
50.3118
 11
26.3019
 21
50.5481
  0
LINE
  8
0
 10
26.3019
 20
50.5481
 11
26.5382
 21
50.7623
  0
LINE
  8
0
 10
26.5382
 20
50.7623
 11
26.7944
 21
50.9523
  0
LINE
  8
0
 10
26.7944
 20
50.9523
 11
27.0679
 21
51.1162
  0
LINE
  8
0
 10
27.0679
 20
51.1162
 11
27.3563
 21
51.2526
  0
LINE
  8
0
 10
27.3563
 20
51.2526
 11
27.6566
 21
51.36
  0
LINE
  8
0
 10
27.6566
 20
51.36
 11
27.9659
 21
51.4375
  0
LINE
  8
0
 10
27.9659
 20
51.4375
 11
28.2814
 21
51.4843
  0
LINE
  8
0
 10
28.2814
 20
51.4843
 11
28.6
 21
51.5
  0
LINE
  8
0
 10
28.6
 20
51.5
 11
28.9185
 21
51.4843
  0
LINE
  8
0
 10
28.9185
 20
51.4843
 11
29.234
 21
51.4375
  0
LINE
  8
0
 10
29.234
 20
51.4375
 11
29.5434
 21
51.36
  0
LINE
  8
0
 10
29.5434
 20
51.36
 11
29.8437
 21
51.2526
  0
LINE
  8
0
 10
29.8437
 20
51.2526
 11
30.132
 21
51.1162
  0
LINE
  8
0
 10
30.132
 20
51.1162
 11
30.4056
 21
50.9523
  0
LINE
  8
0
 10
30.4056
 20
50.9523
 11
30.6618
 21
50.7623
  0
LINE
  8
0
 10
30.6618
 20
50.7623
 11
30.8981
 21
50.5481
  0
LINE
  8
0
 10
30.8981
 20
50.5481
 11
31.1123
 21
50.3118
  0
LINE
  8
0
 10
31.1123
 20
50.3118
 11
31.3023
 21
50.0556
  0
LINE
  8
0
 10
31.3023
 20
50.0556
 11
31.4662
 21
49.782
  0
LINE
  8
0
 10
31.4662
 20
49.782
 11
31.6026
 21
49.4937
  0
LINE
  8
0
 10
31.6026
 20
49.4937
 11
31.7101
 21
49.1934
  0
LINE
  8
0
 10
31.7101
 20
49.1934
 11
31.7876
 21
48.884
  0
LINE
  8
0
 10
31.7876
 20
48.884
 11
31.8343
 21
48.5685
  0
LINE
  8
0
 10
31.8343
 20
48.5685
 11
31.85
 21
48.25
  0
LINE
  8
0
 10
31.85
 20
48.25
 11
31.8343
 21
47.9314
  0
LINE
  8
0
 10
31.8343
 20
47.9314
 11
31.7876
 21
47.616
  0
LINE
  8
0
 10
31.7876
 20
47.616
 11
31.7101
 21
47.3066
  0
LINE
  8
0
 10
31.7101
 20
47.3066
 11
31.6026
 21
47.0063
  0
LINE
  8
0
 10
31.6026
 20
47.0063
 11
31.4662
 21
46.718
  0
LINE
  8
0
 10
31.4662
 20
46.718
 11
31.3023
 21
46.4444
  0
LINE
  8
0
 10
31.3023
 20
46.4444
 11
31.1123
 21
46.1882
  0
LINE
  8
0
 10
31.1123
 20
46.1882
 11
30.8981
 21
45.9519
  0
LINE
  8
0
 10
30.8981
 20
45.9519
 11
30.6618
 21
45.7377
  0
LINE
  8
0
 10
30.6618
 20
45.7377
 11
30.4056
 21
45.5477
  0
LINE
  8
0
 10
30.4056
 20
45.5477
 11
30.132
 21
45.3837
  0
LINE
  8
0
 10
30.132
 20
45.3837
 11
29.8437
 21
45.2474
  0
LINE
  8
0
 10
29.8437
 20
45.2474
 11
29.5434
 21
45.1399
  0
LINE
  8
0
 10
29.5434
 20
45.1399
 11
29.234
 21
45.0624
  0
LINE
  8
0
 10
29.234
 20
45.0624
 11
28.9185
 21
45.0156
  0
LINE
  8
0
 10
28.9185
 20
45.0156
 11
28.6
 21
45
  0
LINE
  8
0
 10
28.6
 20
45
 11
28.2814
 21
45.0156
  0
LINE
  8
0
 10
7.75693
 20
32.5168
 11
7.41718
 21
32.5672
  0
LINE
  8
0
 10
7.41718
 20
32.5672
 11
7.084
 21
32.6507
  0
LINE
  8
0
 10
7.084
 20
32.6507
 11
6.7606
 21
32.7664
  0
LINE
  8
0
 10
6.7606
 20
32.7664
 11
6.4501
 21
32.9133
  0
LINE
  8
0
 10
6.4501
 20
32.9133
 11
6.1555
 21
33.0898
  0
LINE
  8
0
 10
6.1555
 20
33.0898
 11
5.87962
 21
33.2944
  0
LINE
  8
0
 10
5.87962
 20
33.2944
 11
5.62512
 21
33.5251
  0
LINE
  8
0
 10
5.62512
 20
33.5251
 11
5.39445
 21
33.7796
  0
LINE
  8
0
 10
5.39445
 20
33.7796
 11
5.18985
 21
34.0555
  0
LINE
  8
0
 10
5.18985
 20
34.0555
 11
5.01328
 21
34.3501
  0
LINE
  8
0
 10
5.01328
 20
34.3501
 11
4.86641
 21
34.6606
  0
LINE
  8
0
 10
4.86641
 20
34.6606
 11
4.7507
 21
34.984
  0
LINE
  8
0
 10
4.7507
 20
34.984
 11
4.66724
 21
35.3172
  0
LINE
  8
0
 10
4.66724
 20
35.3172
 11
4.61685
 21
35.6569
  0
LINE
  8
0
 10
4.61685
 20
35.6569
 11
4.59999
 21
36
  0
LINE
  8
0
 10
4.59999
 20
36
 11
4.61685
 21
36.343
  0
LINE
  8
0
 10
4.61685
 20
36.343
 11
4.66724
 21
36.6828
  0
LINE
  8
0
 10
4.66724
 20
36.6828
 11
4.7507
 21
37.016
  0
LINE
  8
0
 10
4.7507
 20
37.016
 11
4.86641
 21
37.3394
  0
LINE
  8
0
 10
4.86641
 20
37.3394
 11
5.01328
 21
37.6499
  0
LINE
  8
0
 10
5.01328
 20
37.6499
 11
5.18985
 21
37.9445
  0
LINE
  8
0
 10
5.18985
 20
37.9445
 11
5.39445
 21
38.2204
  0
LINE
  8
0
 10
5.39445
 20
38.2204
 11
5.62512
 21
38.4749
  0
LINE
  8
0
 10
5.62512
 20
38.4749
 11
5.87962
 21
38.7055
  0
LINE
  8
0
 10
5.87962
 20
38.7055
 11
6.1555
 21
38.9101
  0
LINE
  8
0
 10
6.1555
 20
38.9101
 11
6.4501
 21
39.0867
  0
LINE
  8
0
 10
6.4501
 20
39.0867
 11
6.7606
 21
39.2336
  0
LINE
  8
0
 10
6.7606
 20
39.2336
 11
7.084
 21
39.3493
  0
LINE
  8
0
 10
7.084
 20
39.3493
 11
7.41718
 21
39.4327
  0
LINE
  8
0
 10
7.41718
 20
39.4327
 11
7.75693
 21
39.4831
  0
LINE
  8
0
 10
7.75693
 20
39.4831
 11
8.09999
 21
39.5
  0
LINE
  8
0
 10
8.09999
 20
39.5
 11
8.44305
 21
39.4831
  0
LINE
  8
0
 10
8.44305
 20
39.4831
 11
8.78281
 21
39.4327
  0
LINE
  8
0
 10
8.78281
 20
39.4327
 11
9.11598
 21
39.3493
  0
LINE
  8
0
 10
9.11598
 20
39.3493
 11
9.43938
 21
39.2336
  0
LINE
  8
0
 10
9.43938
 20
39.2336
 11
9.74988
 21
39.0867
  0
LINE
  8
0
 10
9.74988
 20
39.0867
 11
10.0445
 21
38.9101
  0
LINE
  8
0
 10
10.0445
 20
38.9101
 11
10.3204
 21
38.7055
  0
LINE
  8
0
 10
10.3204
 20
38.7055
 11
10.5749
 21
38.4749
  0
LINE
  8
0
 10
10.5749
 20
38.4749
 11
10.8055
 21
38.2204
  0
LINE
  8
0
 10
10.8055
 20
38.2204
 11
11.0101
 21
37.9445
  0
LINE
  8
0
 10
11.0101
 20
37.9445
 11
11.1867
 21
37.6499
  0
LINE
  8
0
 10
11.1867
 20
37.6499
 11
11.3336
 21
37.3394
  0
LINE
  8
0
 10
11.3336
 20
37.3394
 11
11.4493
 21
37.016
  0
LINE
  8
0
 10
11.4493
 20
37.016
 11
11.5327
 21
36.6828
  0
LINE
  8
0
 10
11.5327
 20
36.6828
 11
11.5831
 21
36.343
  0
LINE
  8
0
 10
11.5831
 20
36.343
 11
11.6
 21
36
  0
LINE
  8
0
 10
11.6
 20
36
 11
11.5831
 21
35.6569
  0
LINE
  8
0
 10
11.5831
 20
35.6569
 11
11.5327
 21
35.3172
  0
LINE
  8
0
 10
11.5327
 20
35.3172
 11
11.4493
 21
34.984
  0
LINE
  8
0
 10
11.4493
 20
34.984
 11
11.3336
 21
34.6606
  0
LINE
  8
0
 10
11.3336
 20
34.6606
 11
11.1867
 21
34.3501
  0
LINE
  8
0
 10
11.1867
 20
34.3501
 11
11.0101
 21
34.0555
  0
LINE
  8
0
 10
11.0101
 20
34.0555
 11
10.8055
 21
33.7796
  0
LINE
  8
0
 10
10.8055
 20
33.7796
 11
10.5749
 21
33.5251
  0
LINE
  8
0
 10
10.5749
 20
33.5251
 11
10.3204
 21
33.2944
  0
LINE
  8
0
 10
10.3204
 20
33.2944
 11
10.0445
 21
33.0898
  0
LINE
  8
0
 10
10.0445
 20
33.0898
 11
9.74988
 21
32.9133
  0
LINE
  8
0
 10
9.74988
 20
32.9133
 11
9.43938
 21
32.7664
  0
LINE
  8
0
 10
9.43938
 20
32.7664
 11
9.11598
 21
32.6507
  0
LINE
  8
0
 10
9.11598
 20
32.6507
 11
8.78281
 21
32.5672
  0
LINE
  8
0
 10
8.78281
 20
32.5672
 11
8.44305
 21
32.5168
  0
LINE
  8
0
 10
8.44305
 20
32.5168
 11
8.09999
 21
32.5
  0
LINE
  8
0
 10
8.09999
 20
32.5
 11
7.75693
 21
32.5168
  0
LINE
  8
0
 10
28.2814
 20
20.5156
 11
27.9659
 21
20.5624
  0
LINE
  8
0
 10
27.9659
 20
20.5624
 11
27.6566
 21
20.6399
  0
LINE
  8
0
 10
27.6566
 20
20.6399
 11
27.3563
 21
20.7474
  0
LINE
  8
0
 10
27.3563
 20
20.7474
 11
27.0679
 21
20.8837
  0
LINE
  8
0
 10
27.0679
 20
20.8837
 11
26.7944
 21
21.0477
  0
LINE
  8
0
 10
26.7944
 20
21.0477
 11
26.5382
 21
21.2377
  0
LINE
  8
0
 10
26.5382
 20
21.2377
 11
26.3019
 21
21.4519
  0
LINE
  8
0
 10
26.3019
 20
21.4519
 11
26.0877
 21
21.6882
  0
LINE
  8
0
 10
26.0877
 20
21.6882
 11
25.8977
 21
21.9444
  0
LINE
  8
0
 10
25.8977
 20
21.9444
 11
25.7337
 21
22.218
  0
LINE
  8
0
 10
25.7337
 20
22.218
 11
25.5974
 21
22.5063
  0
LINE
  8
0
 10
25.5974
 20
22.5063
 11
25.4899
 21
22.8066
  0
LINE
  8
0
 10
25.4899
 20
22.8066
 11
25.4124
 21
23.116
  0
LINE
  8
0
 10
25.4124
 20
23.116
 11
25.3656
 21
23.4314
  0
LINE
  8
0
 10
25.3656
 20
23.4314
 11
25.35
 21
23.75
  0
LINE
  8
0
 10
25.35
 20
23.75
 11
25.3656
 21
24.0685
  0
LINE
  8
0
 10
25.3656
 20
24.0685
 11
25.4124
 21
24.384
  0
LINE
  8
0
 10
25.4124
 20
24.384
 11
25.4899
 21
24.6934
  0
LINE
  8
0
 10
25.4899
 20
24.6934
 11
25.5974
 21
24.9937
  0
LINE
  8
0
 10
25.5974
 20
24.9937
 11
25.7337
 21
25.282
  0
LINE
  8
0
 10
25.7337
 20
25.282
 11
25.8977
 21
25.5556
  0
LINE
  8
0
 10
25.8977
 20
25.5556
 11
26.0877
 21
25.8118
  0
LINE
  8
0
 10
26.0877
 20
25.8118
 11
26.3019
 21
26.0481
  0
LINE
  8
0
 10
26.3019
 20
26.0481
 11
26.5382
 21
26.2623
  0
LINE
  8
0
 10
26.5382
 20
26.2623
 11
26.7944
 21
26.4523
  0
LINE
  8
0
 10
26.7944
 20
26.4523
 11
27.0679
 21
26.6162
  0
LINE
  8
0
 10
27.0679
 20
26.6162
 11
27.3563
 21
26.7526
  0
LINE
  8
0
 10
27.3563
 20
26.7526
 11
27.6566
 21
26.86
  0
LINE
  8
0
 10
27.6566
 20
26.86
 11
27.9659
 21
26.9375
  0
LINE
  8
0
 10
27.9659
 20
26.9375
 11
28.2814
 21
26.9843
  0
LINE
  8
0
 10
28.2814
 20
26.9843
 11
28.6
 21
27
  0
LINE
  8
0
 10
28.6
 20
27
 11
28.9185
 21
26.9843
  0
LINE
  8
0
 10
28.9185
 20
26.9843
 11
29.234
 21
26.9375
  0
LINE
  8
0
 10
29.234
 20
26.9375
 11
29.5434
 21
26.86
  0
LINE
  8
0
 10
29.5434
 20
26.86
 11
29.8437
 21
26.7526
  0
LINE
  8
0
 10
29.8437
 20
26.7526
 11
30.132
 21
26.6162
  0
LINE
  8
0
 10
30.132
 20
26.6162
 11
30.4056
 21
26.4523
  0
LINE
  8
0
 10
30.4056
 20
26.4523
 11
30.6618
 21
26.2623
  0
LINE
  8
0
 10
30.6618
 20
26.2623
 11
30.8981
 21
26.0481
  0
LINE
  8
0
 10
30.8981
 20
26.0481
 11
31.1123
 21
25.8118
  0
LINE
  8
0
 10
31.1123
 20
25.8118
 11
31.3023
 21
25.5556
  0
LINE
  8
0
 10
31.3023
 20
25.5556
 11
31.4662
 21
25.282
  0
LINE
  8
0
 10
31.4662
 20
25.282
 11
31.6026
 21
24.9937
  0
LINE
  8
0
 10
31.6026
 20
24.9937
 11
31.7101
 21
24.6934
  0
LINE
  8
0
 10
31.7101
 20
24.6934
 11
31.7876
 21
24.384
  0
LINE
  8
0
 10
31.7876
 20
24.384
 11
31.8343
 21
24.0685
  0
LINE
  8
0
 10
31.8343
 20
24.0685
 11
31.85
 21
23.75
  0
LINE
  8
0
 10
31.85
 20
23.75
 11
31.8343
 21
23.4314
  0
LINE
  8
0
 10
31.8343
 20
23.4314
 11
31.7876
 21
23.116
  0
LINE
  8
0
 10
31.7876
 20
23.116
 11
31.7101
 21
22.8066
  0
LINE
  8
0
 10
31.7101
 20
22.8066
 11
31.6026
 21
22.5063
  0
LINE
  8
0
 10
31.6026
 20
22.5063
 11
31.4662
 21
22.218
  0
LINE
  8
0
 10
31.4662
 20
22.218
 11
31.3023
 21
21.9444
  0
LINE
  8
0
 10
31.3023
 20
21.9444
 11
31.1123
 21
21.6882
  0
LINE
  8
0
 10
31.1123
 20
21.6882
 11
30.8981
 21
21.4519
  0
LINE
  8
0
 10
30.8981
 20
21.4519
 11
30.6618
 21
21.2377
  0
LINE
  8
0
 10
30.6618
 20
21.2377
 11
30.4056
 21
21.0477
  0
LINE
  8
0
 10
30.4056
 20
21.0477
 11
30.132
 21
20.8837
  0
LINE
  8
0
 10
30.132
 20
20.8837
 11
29.8437
 21
20.7474
  0
LINE
  8
0
 10
29.8437
 20
20.7474
 11
29.5434
 21
20.6399
  0
LINE
  8
0
 10
29.5434
 20
20.6399
 11
29.234
 21
20.5624
  0
LINE
  8
0
 10
29.234
 20
20.5624
 11
28.9185
 21
20.5156
  0
LINE
  8
0
 10
28.9185
 20
20.5156
 11
28.6
 21
20.5
  0
LINE
  8
0
 10
28.6
 20
20.5
 11
28.2814
 21
20.5156
  0
LINE
  8
0
 10
7.34317
 20
1.4077
 11
7.18785
 21
1.43074
  0
LINE
  8
0
 10
7.18785
 20
1.43074
 11
7.03554
 21
1.46889
  0
LINE
  8
0
 10
7.03554
 20
1.46889
 11
6.8877
 21
1.52179
  0
LINE
  8
0
 10
6.8877
 20
1.52179
 11
6.74576
 21
1.58891
  0
LINE
  8
0
 10
6.74576
 20
1.58891
 11
6.61108
 21
1.66965
  0
LINE
  8
0
 10
6.61108
 20
1.66965
 11
6.48497
 21
1.76317
  0
LINE
  8
0
 10
6.48497
 20
1.76317
 11
6.36862
 21
1.86862
  0
LINE
  8
0
 10
6.36862
 20
1.86862
 11
6.26317
 21
1.98497
  0
LINE
  8
0
 10
6.26317
 20
1.98497
 11
6.16965
 21
2.11108
  0
LINE
  8
0
 10
6.16965
 20
2.11108
 11
6.08891
 21
2.24576
  0
LINE
  8
0
 10
6.08891
 20
2.24576
 11
6.02179
 21
2.3877
  0
LINE
  8
0
 10
6.02179
 20
2.3877
 11
5.96889
 21
2.53554
  0
LINE
  8
0
 10
5.96889
 20
2.53554
 11
5.93074
 21
2.68785
  0
LINE
  8
0
 10
5.93074
 20
2.68785
 11
5.9077
 21
2.84317
  0
LINE
  8
0
 10
5.9077
 20
2.84317
 11
5.89999
 21
3
  0
LINE
  8
0
 10
5.89999
 20
3
 11
5.9077
 21
3.15681
  0
LINE
  8
0
 10
5.9077
 20
3.15681
 11
5.93074
 21
3.31213
  0
LINE
  8
0
 10
5.93074
 20
3.31213
 11
5.96889
 21
3.46445
  0
LINE
  8
0
 10
5.96889
 20
3.46445
 11
6.02179
 21
3.61229
  0
LINE
  8
0
 10
6.02179
 20
3.61229
 11
6.08891
 21
3.75423
  0
LINE
  8
0
 10
6.08891
 20
3.75423
 11
6.16965
 21
3.8889
  0
LINE
  8
0
 10
6.16965
 20
3.8889
 11
6.26317
 21
4.01501
  0
LINE
  8
0
 10
6.26317
 20
4.01501
 11
6.36862
 21
4.13136
  0
LINE
  8
0
 10
6.36862
 20
4.13136
 11
6.48497
 21
4.23682
  0
LINE
  8
0
 10
6.48497
 20
4.23682
 11
6.61108
 21
4.33034
  0
LINE
  8
0
 10
6.61108
 20
4.33034
 11
6.74576
 21
4.41107
  0
LINE
  8
0
 10
6.74576
 20
4.41107
 11
6.8877
 21
4.4782
  0
LINE
  8
0
 10
6.8877
 20
4.4782
 11
7.03554
 21
4.5311
  0
LINE
  8
0
 10
7.03554
 20
4.5311
 11
7.18785
 21
4.56924
  0
LINE
  8
0
 10
7.18785
 20
4.56924
 11
7.34317
 21
4.59229
  0
LINE
  8
0
 10
7.34317
 20
4.59229
 11
7.5
 21
4.59999
  0
LINE
  8
0
 10
7.5
 20
4.59999
 11
7.65681
 21
4.59229
  0
LINE
  8
0
 10
7.65681
 20
4.59229
 11
7.81213
 21
4.56924
  0
LINE
  8
0
 10
7.81213
 20
4.56924
 11
7.96445
 21
4.5311
  0
LINE
  8
0
 10
7.96445
 20
4.5311
 11
8.11229
 21
4.4782
  0
LINE
  8
0
 10
8.11229
 20
4.4782
 11
8.25423
 21
4.41107
  0
LINE
  8
0
 10
8.25423
 20
4.41107
 11
8.3889
 21
4.33034
  0
LINE
  8
0
 10
8.3889
 20
4.33034
 11
8.51501
 21
4.23682
  0
LINE
  8
0
 10
8.51501
 20
4.23682
 11
8.63136
 21
4.13136
  0
LINE
  8
0
 10
8.63136
 20
4.13136
 11
8.73682
 21
4.01501
  0
LINE
  8
0
 10
8.73682
 20
4.01501
 11
8.83034
 21
3.8889
  0
LINE
  8
0
 10
8.83034
 20
3.8889
 11
8.91107
 21
3.75423
  0
LINE
  8
0
 10
8.91107
 20
3.75423
 11
8.9782
 21
3.61229
  0
LINE
  8
0
 10
8.9782
 20
3.61229
 11
9.0311
 21
3.46445
  0
LINE
  8
0
 10
9.0311
 20
3.46445
 11
9.06924
 21
3.31213
  0
LINE
  8
0
 10
9.06924
 20
3.31213
 11
9.09229
 21
3.15681
  0
LINE
  8
0
 10
9.09229
 20
3.15681
 11
9.09999
 21
3
  0
LINE
  8
0
 10
9.09999
 20
3
 11
9.09229
 21
2.84317
  0
LINE
  8
0
 10
9.09229
 20
2.84317
 11
9.06924
 21
2.68785
  0
LINE
  8
0
 10
9.06924
 20
2.68785
 11
9.0311
 21
2.53554
  0
LINE
  8
0
 10
9.0311
 20
2.53554
 11
8.9782
 21
2.3877
  0
LINE
  8
0
 10
8.9782
 20
2.3877
 11
8.91107
 21
2.24576
  0
LINE
  8
0
 10
8.91107
 20
2.24576
 11
8.83034
 21
2.11108
  0
LINE
  8
0
 10
8.83034
 20
2.11108
 11
8.73682
 21
1.98497
  0
LINE
  8
0
 10
8.73682
 20
1.98497
 11
8.63136
 21
1.86862
  0
LINE
  8
0
 10
8.63136
 20
1.86862
 11
8.51501
 21
1.76317
  0
LINE
  8
0
 10
8.51501
 20
1.76317
 11
8.3889
 21
1.66965
  0
LINE
  8
0
 10
8.3889
 20
1.66965
 11
8.25423
 21
1.58891
  0
LINE
  8
0
 10
8.25423
 20
1.58891
 11
8.11229
 21
1.52179
  0
LINE
  8
0
 10
8.11229
 20
1.52179
 11
7.96445
 21
1.46889
  0
LINE
  8
0
 10
7.96445
 20
1.46889
 11
7.81213
 21
1.43074
  0
LINE
  8
0
 10
7.81213
 20
1.43074
 11
7.65681
 21
1.4077
  0
LINE
  8
0
 10
7.65681
 20
1.4077
 11
7.5
 21
1.39999
  0
LINE
  8
0
 10
7.5
 20
1.39999
 11
7.34317
 21
1.4077
  0
ENDSEC
  0
SECTION
  2
OBJECTS
  0
DICTIONARY
  0
ENDSEC
  0
EOF
