<?xml version="1.0" encoding="utf-8" ?>
<svg baseProfile="tiny" height="364.117313934" version="1.2" width="98.369288934" xmlns="http://www.w3.org/2000/svg" xmlns:ev="http://www.w3.org/2001/xml-events" xmlns:xlink="http://www.w3.org/1999/xlink"><defs /><g id="paths" stroke="green"><path d="M 33.239762967,359.224006967 L 33.239762967,242.294875967 L 4.893306967,242.294875967 L 4.893306967,121.822437967 L 33.239762967,121.822437967 L 33.239762967,4.893306967 L 93.475981967,4.893306967 L 93.475981967,359.224006967 L 33.239762967,359.224006967 Z" fill-opacity="0" stroke-linejoin="round" stroke-width="1.0" /></g><g fill="red" id="top_parts" stroke="red"><line stroke-linecap="round" stroke-width="0.5" x1="56.2346" x2="56.2346" y1="85.8579" y2="80.5429" /><line stroke-linecap="round" stroke-width="0.5" x1="56.2346" x2="66.9379" y1="80.5429" y2="80.5429" /><line stroke-linecap="round" stroke-width="0.5" x1="66.9379" x2="66.9379" y1="80.5429" y2="85.8579" /><line stroke-linecap="round" stroke-width="0.5" x1="66.9379" x2="56.2346" y1="85.8579" y2="85.8579" /><text font-family="monospace" font-size="2" stroke-width="0.1" text-anchor="middle" x="61.586218967" y="83.200391667">R1</text><circle cx="61.5862" cy="138.6531" r="0.4429" stroke-width="0.5" /><line stroke-linecap="round" stroke-width="0.5" x1="66.9379" x2="66.9379" y1="236.0941" y2="241.409" /><line stroke-linecap="round" stroke-width="0.5" x1="66.9379" x2="56.2346" y1="241.409" y2="241.409" /><line stroke-linecap="round" stroke-width="0.5" x1="56.2346" x2="56.2346" y1="241.409" y2="236.0941" /><line stroke-linecap="round" stroke-width="0.5" x1="56.2346" x2="66.9379" y1="236.0941" y2="236.0941" /><text font-family="monospace" font-size="2" stroke-width="0.1" text-anchor="middle" x="61.586218967" y="238.751568967">C6</text><circle cx="61.5862" cy="51.8421" r="0.4429" stroke-width="0.5" /><line stroke-linecap="round" stroke-width="0.5" x1="92.2358" x2="92.2358" y1="95.2476" y2="121.8224" /><line stroke-linecap="round" stroke-width="0.5" x1="92.2358" x2="42.6295" y1="121.8224" y2="121.8224" /><line stroke-linecap="round" stroke-width="0.5" x1="42.6295" x2="42.6295" y1="121.8224" y2="95.2476" /><line stroke-linecap="round" stroke-width="0.5" x1="42.6295" x2="92.2358" y1="95.2476" y2="95.2476" /><line stroke-linecap="round" stroke-width="0.5" x1="108.1807" x2="108.1807" y1="97.9051" y2="119.165" /><line stroke-linecap="round" stroke-width="0.5" x1="108.1807" x2="94.0075" y1="119.165" y2="119.165" /><line stroke-linecap="round" stroke-width="0.5" x1="94.0075" x2="94.0075" y1="119.165" y2="97.9051" /><line stroke-linecap="round" stroke-width="0.5" x1="94.0075" x2="108.1807" y1="97.9051" y2="97.9051" /><line stroke-linecap="round" stroke-width="0.5" x1="94.0075" x2="94.0075" y1="96.1335" y2="120.9366" /><line stroke-linecap="round" stroke-width="0.5" x1="94.0075" x2="92.2358" y1="120.9366" y2="120.9366" /><line stroke-linecap="round" stroke-width="0.5" x1="92.2358" x2="92.2358" y1="120.9366" y2="96.1335" /><line stroke-linecap="round" stroke-width="0.5" x1="92.2358" x2="94.0075" y1="96.1335" y2="96.1335" /><text font-family="monospace" font-size="2" stroke-width="0.1" text-anchor="middle" x="67.787006217" y="108.535036717">J2</text><line stroke-linecap="round" stroke-width="0.5" x1="56.2346" x2="56.2346" y1="172.6689" y2="167.3539" /><line stroke-linecap="round" stroke-width="0.5" x1="56.2346" x2="66.9379" y1="167.3539" y2="167.3539" /><line stroke-linecap="round" stroke-width="0.5" x1="66.9379" x2="66.9379" y1="167.3539" y2="172.6689" /><line stroke-linecap="round" stroke-width="0.5" x1="66.9379" x2="56.2346" y1="172.6689" y2="172.6689" /><text font-family="monospace" font-size="2" stroke-width="0.1" text-anchor="middle" x="61.586218967" y="170.011413167">R4</text><line stroke-linecap="round" stroke-width="0.5" x1="56.2346" x2="56.2346" y1="76.9996" y2="71.6846" /><line stroke-linecap="round" stroke-width="0.5" x1="56.2346" x2="66.9379" y1="71.6846" y2="71.6846" /><line stroke-linecap="round" stroke-width="0.5" x1="66.9379" x2="66.9379" y1="71.6846" y2="76.9996" /><line stroke-linecap="round" stroke-width="0.5" x1="66.9379" x2="56.2346" y1="76.9996" y2="76.9996" /><text font-family="monospace" font-size="2" stroke-width="0.1" text-anchor="middle" x="61.586218967" y="74.342124167">C1</text><line stroke-linecap="round" stroke-width="0.5" x1="56.2346" x2="56.2346" y1="346.2909" y2="340.976" /><line stroke-linecap="round" stroke-width="0.5" x1="56.2346" x2="66.9379" y1="340.976" y2="340.976" /><line stroke-linecap="round" stroke-width="0.5" x1="66.9379" x2="66.9379" y1="340.976" y2="346.2909" /><line stroke-linecap="round" stroke-width="0.5" x1="66.9379" x2="56.2346" y1="346.2909" y2="346.2909" /><text font-family="monospace" font-size="2" stroke-width="0.1" text-anchor="middle" x="61.586218967" y="343.633456167">R10</text><line stroke-linecap="round" stroke-width="0.5" x1="56.2346" x2="56.2346" y1="337.4327" y2="332.1177" /><line stroke-linecap="round" stroke-width="0.5" x1="56.2346" x2="66.9379" y1="332.1177" y2="332.1177" /><line stroke-linecap="round" stroke-width="0.5" x1="66.9379" x2="66.9379" y1="332.1177" y2="337.4327" /><line stroke-linecap="round" stroke-width="0.5" x1="66.9379" x2="56.2346" y1="337.4327" y2="337.4327" /><text font-family="monospace" font-size="2" stroke-width="0.1" text-anchor="middle" x="61.586218967" y="334.775188667">C7</text><line stroke-linecap="round" stroke-width="0.5" x1="66.9379" x2="66.9379" y1="209.5193" y2="214.8342" /><line stroke-linecap="round" stroke-width="0.5" x1="66.9379" x2="56.2346" y1="214.8342" y2="214.8342" /><line stroke-linecap="round" stroke-width="0.5" x1="56.2346" x2="56.2346" y1="214.8342" y2="209.5193" /><line stroke-linecap="round" stroke-width="0.5" x1="56.2346" x2="66.9379" y1="209.5193" y2="209.5193" /><text font-family="monospace" font-size="2" stroke-width="0.1" text-anchor="middle" x="61.586218967" y="212.176766467">R9</text><line stroke-linecap="round" stroke-width="0.5" x1="56.2346" x2="56.2346" y1="163.8106" y2="158.4957" /><line stroke-linecap="round" stroke-width="0.5" x1="56.2346" x2="66.9379" y1="158.4957" y2="158.4957" /><line stroke-linecap="round" stroke-width="0.5" x1="66.9379" x2="66.9379" y1="158.4957" y2="163.8106" /><line stroke-linecap="round" stroke-width="0.5" x1="66.9379" x2="56.2346" y1="163.8106" y2="163.8106" /><text font-family="monospace" font-size="2" stroke-width="0.1" text-anchor="middle" x="61.586218967" y="161.153145667">C3</text><line stroke-linecap="round" stroke-width="0.5" x1="7.5508" x2="7.5508" y1="231.665" y2="132.4524" /><line stroke-linecap="round" stroke-width="0.5" x1="7.5508" x2="37.6689" y1="132.4524" y2="132.4524" /><line stroke-linecap="round" stroke-width="0.5" x1="37.6689" x2="37.6689" y1="132.4524" y2="231.665" /><line stroke-linecap="round" stroke-width="0.5" x1="37.6689" x2="7.5508" y1="231.665" y2="231.665" /><text font-family="monospace" font-size="2" stroke-width="0.1" text-anchor="middle" x="22.609841967" y="182.058656967">J5</text><line stroke-linecap="round" stroke-width="0.5" x1="75.7228" x2="75.7228" y1="41.2122" y2="35.8972" /><line stroke-linecap="round" stroke-width="0.5" x1="75.7228" x2="86.4261" y1="35.8972" y2="35.8972" /><line stroke-linecap="round" stroke-width="0.5" x1="86.4261" x2="86.4261" y1="35.8972" y2="41.2122" /><line stroke-linecap="round" stroke-width="0.5" x1="86.4261" x2="75.7228" y1="41.2122" y2="41.2122" /><text font-family="monospace" font-size="2" stroke-width="0.1" text-anchor="middle" x="81.074407467" y="38.554723467">R2</text><line stroke-linecap="round" stroke-width="0.5" x1="66.9379" x2="66.9379" y1="322.9051" y2="328.2201" /><line stroke-linecap="round" stroke-width="0.5" x1="66.9379" x2="56.2346" y1="328.2201" y2="328.2201" /><line stroke-linecap="round" stroke-width="0.5" x1="56.2346" x2="56.2346" y1="328.2201" y2="322.9051" /><line stroke-linecap="round" stroke-width="0.5" x1="56.2346" x2="66.9379" y1="322.9051" y2="322.9051" /><text font-family="monospace" font-size="2" stroke-width="0.1" text-anchor="middle" x="61.586218967" y="325.562590467">C8</text><line stroke-linecap="round" stroke-width="0.5" x1="66.9379" x2="66.9379" y1="62.472" y2="67.787" /><line stroke-linecap="round" stroke-width="0.5" x1="66.9379" x2="56.2346" y1="67.787" y2="67.787" /><line stroke-linecap="round" stroke-width="0.5" x1="56.2346" x2="56.2346" y1="67.787" y2="62.472" /><line stroke-linecap="round" stroke-width="0.5" x1="56.2346" x2="66.9379" y1="62.472" y2="62.472" /><text font-family="monospace" font-size="2" stroke-width="0.1" text-anchor="middle" x="61.586218967" y="65.129525967">C2</text><line stroke-linecap="round" stroke-width="0.5" x1="92.2358" x2="92.2358" y1="8.4366" y2="35.0114" /><line stroke-linecap="round" stroke-width="0.5" x1="92.2358" x2="42.6295" y1="35.0114" y2="35.0114" /><line stroke-linecap="round" stroke-width="0.5" x1="42.6295" x2="42.6295" y1="35.0114" y2="8.4366" /><line stroke-linecap="round" stroke-width="0.5" x1="42.6295" x2="92.2358" y1="8.4366" y2="8.4366" /><line stroke-linecap="round" stroke-width="0.5" x1="108.1807" x2="108.1807" y1="11.0941" y2="32.3539" /><line stroke-linecap="round" stroke-width="0.5" x1="108.1807" x2="94.0075" y1="32.3539" y2="32.3539" /><line stroke-linecap="round" stroke-width="0.5" x1="94.0075" x2="94.0075" y1="32.3539" y2="11.0941" /><line stroke-linecap="round" stroke-width="0.5" x1="94.0075" x2="108.1807" y1="11.0941" y2="11.0941" /><line stroke-linecap="round" stroke-width="0.5" x1="94.0075" x2="94.0075" y1="9.3224" y2="34.1256" /><line stroke-linecap="round" stroke-width="0.5" x1="94.0075" x2="92.2358" y1="34.1256" y2="34.1256" /><line stroke-linecap="round" stroke-width="0.5" x1="92.2358" x2="92.2358" y1="34.1256" y2="9.3224" /><line stroke-linecap="round" stroke-width="0.5" x1="92.2358" x2="94.0075" y1="9.3224" y2="9.3224" /><text font-family="monospace" font-size="2" stroke-width="0.1" text-anchor="middle" x="67.787006217" y="21.724015217">J1</text><line stroke-linecap="round" stroke-width="0.5" x1="66.9379" x2="66.9379" y1="149.2831" y2="154.598" /><line stroke-linecap="round" stroke-width="0.5" x1="66.9379" x2="56.2346" y1="154.598" y2="154.598" /><line stroke-linecap="round" stroke-width="0.5" x1="56.2346" x2="56.2346" y1="154.598" y2="149.2831" /><line stroke-linecap="round" stroke-width="0.5" x1="56.2346" x2="66.9379" y1="149.2831" y2="149.2831" /><text font-family="monospace" font-size="2" stroke-width="0.1" text-anchor="middle" x="61.586218967" y="151.940547467">C4</text><line stroke-linecap="round" stroke-width="0.5" x1="92.2358" x2="92.2358" y1="182.0587" y2="208.6335" /><line stroke-linecap="round" stroke-width="0.5" x1="92.2358" x2="42.6295" y1="208.6335" y2="208.6335" /><line stroke-linecap="round" stroke-width="0.5" x1="42.6295" x2="42.6295" y1="208.6335" y2="182.0587" /><line stroke-linecap="round" stroke-width="0.5" x1="42.6295" x2="92.2358" y1="182.0587" y2="182.0587" /><line stroke-linecap="round" stroke-width="0.5" x1="108.1807" x2="108.1807" y1="184.7161" y2="205.976" /><line stroke-linecap="round" stroke-width="0.5" x1="108.1807" x2="94.0075" y1="205.976" y2="205.976" /><line stroke-linecap="round" stroke-width="0.5" x1="94.0075" x2="94.0075" y1="205.976" y2="184.7161" /><line stroke-linecap="round" stroke-width="0.5" x1="94.0075" x2="108.1807" y1="184.7161" y2="184.7161" /><line stroke-linecap="round" stroke-width="0.5" x1="94.0075" x2="94.0075" y1="182.9445" y2="207.7476" /><line stroke-linecap="round" stroke-width="0.5" x1="94.0075" x2="92.2358" y1="207.7476" y2="207.7476" /><line stroke-linecap="round" stroke-width="0.5" x1="92.2358" x2="92.2358" y1="207.7476" y2="182.9445" /><line stroke-linecap="round" stroke-width="0.5" x1="92.2358" x2="94.0075" y1="182.9445" y2="182.9445" /><text font-family="monospace" font-size="2" stroke-width="0.1" text-anchor="middle" x="67.787006217" y="195.346058217">J3</text><line stroke-linecap="round" stroke-width="0.5" x1="56.2346" x2="56.2346" y1="259.4799" y2="254.165" /><line stroke-linecap="round" stroke-width="0.5" x1="56.2346" x2="66.9379" y1="254.165" y2="254.165" /><line stroke-linecap="round" stroke-width="0.5" x1="66.9379" x2="66.9379" y1="254.165" y2="259.4799" /><line stroke-linecap="round" stroke-width="0.5" x1="66.9379" x2="56.2346" y1="259.4799" y2="259.4799" /><text font-family="monospace" font-size="2" stroke-width="0.1" text-anchor="middle" x="61.586218967" y="256.822434667">R7</text><line stroke-linecap="round" stroke-width="0.5" x1="92.2358" x2="92.2358" y1="268.8697" y2="295.4445" /><line stroke-linecap="round" stroke-width="0.5" x1="92.2358" x2="42.6295" y1="295.4445" y2="295.4445" /><line stroke-linecap="round" stroke-width="0.5" x1="42.6295" x2="42.6295" y1="295.4445" y2="268.8697" /><line stroke-linecap="round" stroke-width="0.5" x1="42.6295" x2="92.2358" y1="268.8697" y2="268.8697" /><line stroke-linecap="round" stroke-width="0.5" x1="108.1807" x2="108.1807" y1="271.5272" y2="292.787" /><line stroke-linecap="round" stroke-width="0.5" x1="108.1807" x2="94.0075" y1="292.787" y2="292.787" /><line stroke-linecap="round" stroke-width="0.5" x1="94.0075" x2="94.0075" y1="292.787" y2="271.5272" /><line stroke-linecap="round" stroke-width="0.5" x1="94.0075" x2="108.1807" y1="271.5272" y2="271.5272" /><line stroke-linecap="round" stroke-width="0.5" x1="94.0075" x2="94.0075" y1="269.7555" y2="294.5587" /><line stroke-linecap="round" stroke-width="0.5" x1="94.0075" x2="92.2358" y1="294.5587" y2="294.5587" /><line stroke-linecap="round" stroke-width="0.5" x1="92.2358" x2="92.2358" y1="294.5587" y2="269.7555" /><line stroke-linecap="round" stroke-width="0.5" x1="92.2358" x2="94.0075" y1="269.7555" y2="269.7555" /><text font-family="monospace" font-size="2" stroke-width="0.1" text-anchor="middle" x="67.787006217" y="282.157079717">J4</text><line stroke-linecap="round" stroke-width="0.5" x1="66.9379" x2="66.9379" y1="296.3303" y2="301.6453" /><line stroke-linecap="round" stroke-width="0.5" x1="66.9379" x2="56.2346" y1="301.6453" y2="301.6453" /><line stroke-linecap="round" stroke-width="0.5" x1="56.2346" x2="56.2346" y1="301.6453" y2="296.3303" /><line stroke-linecap="round" stroke-width="0.5" x1="56.2346" x2="66.9379" y1="296.3303" y2="296.3303" /><text font-family="monospace" font-size="2" stroke-width="0.1" text-anchor="middle" x="61.586218967" y="298.987787967">R12</text><circle cx="61.5862" cy="312.2752" r="0.4429" stroke-width="0.5" /><line stroke-linecap="round" stroke-width="0.5" x1="66.9379" x2="66.9379" y1="122.7083" y2="128.0232" /><line stroke-linecap="round" stroke-width="0.5" x1="66.9379" x2="56.2346" y1="128.0232" y2="128.0232" /><line stroke-linecap="round" stroke-width="0.5" x1="56.2346" x2="56.2346" y1="128.0232" y2="122.7083" /><line stroke-linecap="round" stroke-width="0.5" x1="56.2346" x2="66.9379" y1="122.7083" y2="122.7083" /><text font-family="monospace" font-size="2" stroke-width="0.1" text-anchor="middle" x="61.586218967" y="125.365744967">R6</text><line stroke-linecap="round" stroke-width="0.5" x1="66.9379" x2="66.9379" y1="35.8972" y2="41.2122" /><line stroke-linecap="round" stroke-width="0.5" x1="66.9379" x2="56.2346" y1="41.2122" y2="41.2122" /><line stroke-linecap="round" stroke-width="0.5" x1="56.2346" x2="56.2346" y1="41.2122" y2="35.8972" /><line stroke-linecap="round" stroke-width="0.5" x1="56.2346" x2="66.9379" y1="35.8972" y2="35.8972" /><text font-family="monospace" font-size="2" stroke-width="0.1" text-anchor="middle" x="61.586218967" y="38.554723467">R3</text><line stroke-linecap="round" stroke-width="0.5" x1="75.7228" x2="75.7228" y1="319.3618" y2="314.0468" /><line stroke-linecap="round" stroke-width="0.5" x1="75.7228" x2="86.4261" y1="314.0468" y2="314.0468" /><line stroke-linecap="round" stroke-width="0.5" x1="86.4261" x2="86.4261" y1="314.0468" y2="319.3618" /><line stroke-linecap="round" stroke-width="0.5" x1="86.4261" x2="75.7228" y1="319.3618" y2="319.3618" /><text font-family="monospace" font-size="2" stroke-width="0.1" text-anchor="middle" x="81.074407467" y="316.704322967">R11</text><circle cx="61.5862" cy="225.4642" r="0.4429" stroke-width="0.5" /><line stroke-linecap="round" stroke-width="0.5" x1="56.2346" x2="56.2346" y1="250.6216" y2="245.3067" /><line stroke-linecap="round" stroke-width="0.5" x1="56.2346" x2="66.9379" y1="245.3067" y2="245.3067" /><line stroke-linecap="round" stroke-width="0.5" x1="66.9379" x2="66.9379" y1="245.3067" y2="250.6216" /><line stroke-linecap="round" stroke-width="0.5" x1="66.9379" x2="56.2346" y1="250.6216" y2="250.6216" /><text font-family="monospace" font-size="2" stroke-width="0.1" text-anchor="middle" x="61.586218967" y="247.964167167">C5</text><line stroke-linecap="round" stroke-width="0.5" x1="75.7228" x2="75.7228" y1="232.5508" y2="227.2358" /><line stroke-linecap="round" stroke-width="0.5" x1="75.7228" x2="86.4261" y1="227.2358" y2="227.2358" /><line stroke-linecap="round" stroke-width="0.5" x1="86.4261" x2="86.4261" y1="227.2358" y2="232.5508" /><line stroke-linecap="round" stroke-width="0.5" x1="86.4261" x2="75.7228" y1="232.5508" y2="232.5508" /><text font-family="monospace" font-size="2" stroke-width="0.1" text-anchor="middle" x="81.074407467" y="229.893301467">R8</text><line stroke-linecap="round" stroke-width="0.5" x1="75.7228" x2="75.7228" y1="145.7398" y2="140.4248" /><line stroke-linecap="round" stroke-width="0.5" x1="75.7228" x2="86.4261" y1="140.4248" y2="140.4248" /><line stroke-linecap="round" stroke-width="0.5" x1="86.4261" x2="86.4261" y1="140.4248" y2="145.7398" /><line stroke-linecap="round" stroke-width="0.5" x1="86.4261" x2="75.7228" y1="145.7398" y2="145.7398" /><text font-family="monospace" font-size="2" stroke-width="0.1" text-anchor="middle" x="81.074407467" y="143.082279967">R5</text></g><g fill="blue" id="bottom_parts" stroke="blue"><line stroke-linecap="round" stroke-width="0.5" x1="59.4602" x2="59.4602" y1="34.6571" y2="95.602" /><line stroke-linecap="round" stroke-width="0.5" x1="59.4602" x2="147.8657" y1="95.602" y2="95.602" /><line stroke-linecap="round" stroke-width="0.5" x1="147.8657" x2="147.8657" y1="95.602" y2="34.6571" /><line stroke-linecap="round" stroke-width="0.5" x1="147.8657" x2="59.4602" y1="34.6571" y2="34.6571" /><text font-family="monospace" font-size="2" stroke-width="0.1" text-anchor="middle" x="103.220076217" y="65.129525967">VR1</text><circle cx="70.7634" cy="46.8461" r="0.8858" stroke-width="0.5" /><line stroke-linecap="round" stroke-width="0.5" x1="59.4602" x2="59.4602" y1="121.4681" y2="182.413" /><line stroke-linecap="round" stroke-width="0.5" x1="59.4602" x2="147.8657" y1="182.413" y2="182.413" /><line stroke-linecap="round" stroke-width="0.5" x1="147.8657" x2="147.8657" y1="182.413" y2="121.4681" /><line stroke-linecap="round" stroke-width="0.5" x1="147.8657" x2="59.4602" y1="121.4681" y2="121.4681" /><text font-family="monospace" font-size="2" stroke-width="0.1" text-anchor="middle" x="103.220076217" y="151.940547467">VR2</text><circle cx="70.7634" cy="133.6571" r="0.8858" stroke-width="0.5" /><line stroke-linecap="round" stroke-width="0.5" x1="59.4602" x2="59.4602" y1="208.2791" y2="269.224" /><line stroke-linecap="round" stroke-width="0.5" x1="59.4602" x2="147.8657" y1="269.224" y2="269.224" /><line stroke-linecap="round" stroke-width="0.5" x1="147.8657" x2="147.8657" y1="269.224" y2="208.2791" /><line stroke-linecap="round" stroke-width="0.5" x1="147.8657" x2="59.4602" y1="208.2791" y2="208.2791" /><text font-family="monospace" font-size="2" stroke-width="0.1" text-anchor="middle" x="103.220076217" y="238.751568967">VR3</text><circle cx="70.7634" cy="220.4681" r="0.8858" stroke-width="0.5" /><line stroke-linecap="round" stroke-width="0.5" x1="59.4602" x2="59.4602" y1="295.0902" y2="356.035" /><line stroke-linecap="round" stroke-width="0.5" x1="59.4602" x2="147.8657" y1="356.035" y2="356.035" /><line stroke-linecap="round" stroke-width="0.5" x1="147.8657" x2="147.8657" y1="356.035" y2="295.0902" /><line stroke-linecap="round" stroke-width="0.5" x1="147.8657" x2="59.4602" y1="295.0902" y2="295.0902" /><text font-family="monospace" font-size="2" stroke-width="0.1" text-anchor="middle" x="103.220076217" y="325.562590467">VR4</text><circle cx="70.7634" cy="307.2791" r="0.8858" stroke-width="0.5" /></g></svg>